<?xml version="1.0" standalone="no"?>
<!DOCTYPE svg PUBLIC "-//W3C//DTD SVG 20010904//EN"
 "http://www.w3.org/TR/2001/REC-SVG-20010904/DTD/svg10.dtd">
<svg version="1.0" xmlns="http://www.w3.org/2000/svg"
 width="1024.000000pt" height="1024.000000pt" viewBox="0 0 1024.000000 1024.000000"
 preserveAspectRatio="xMidYMid meet">
<metadata>
Created by potrace 1.11, written by Peter Selinger 2001-2013
</metadata>
<g transform="translate(0.000000,1024.000000) scale(0.100000,-0.100000)"
fill="#000000" stroke="none">
<path d="M4829 10236 c-2 -2 -51 -6 -109 -10 -58 -3 -114 -8 -125 -10 -11 -2
-51 -7 -88 -11 -37 -3 -76 -8 -85 -10 -9 -1 -42 -6 -72 -11 -30 -4 -57 -8 -60
-9 -3 -1 -30 -5 -60 -9 -30 -4 -71 -12 -90 -16 -19 -5 -51 -12 -70 -15 -19 -3
-43 -8 -52 -11 -9 -3 -25 -7 -35 -9 -21 -4 -111 -25 -170 -39 -105 -25 -420
-127 -543 -176 -860 -338 -1602 -885 -2163 -1595 -48 -60 -94 -119 -103 -130
-9 -11 -55 -76 -102 -145 -269 -388 -508 -870 -656 -1326 -41 -127 -118 -408
-130 -474 -2 -14 -16 -86 -30 -160 -14 -74 -28 -157 -32 -185 -4 -27 -8 -57
-9 -65 -2 -8 -6 -46 -10 -85 -4 -38 -9 -77 -10 -85 -27 -147 -27 -874 0 -1041
2 -13 6 -53 9 -89 4 -36 11 -90 16 -120 5 -30 12 -75 16 -100 3 -25 7 -49 8
-55 2 -5 7 -32 11 -60 5 -27 10 -52 10 -55 1 -3 5 -23 9 -45 10 -48 73 -308
86 -350 58 -192 81 -260 125 -380 328 -883 875 -1638 1620 -2233 50 -40 95
-76 100 -80 461 -341 892 -569 1440 -760 188 -66 540 -156 725 -186 19 -3 46
-8 60 -11 13 -2 42 -7 65 -10 22 -3 51 -8 65 -11 14 -2 45 -6 70 -9 25 -3 70
-8 100 -11 278 -33 734 -37 1010 -9 19 2 65 6 102 10 37 3 77 8 90 10 13 3 46
7 73 11 28 3 86 12 130 20 44 7 94 16 110 19 17 3 41 8 55 11 14 3 36 8 50 11
14 2 45 9 70 14 25 6 52 12 60 14 50 11 191 48 225 60 22 7 81 25 130 40 362
107 811 318 1190 557 89 57 272 182 320 220 300 236 352 283 580 512 249 252
440 487 626 771 260 396 438 762 584 1199 44 134 107 351 120 415 2 9 10 46
19 84 9 37 18 82 21 100 3 17 8 39 10 47 2 8 7 33 10 55 3 23 7 52 10 65 3 13
7 42 10 65 8 54 14 95 20 125 2 14 7 59 10 100 4 41 8 86 10 100 17 117 24
548 12 750 -10 161 -23 312 -33 364 -2 10 -6 44 -9 75 -4 31 -10 72 -15 91 -5
19 -11 53 -14 75 -7 52 -20 119 -46 235 -12 52 -23 102 -25 111 -9 42 -78 279
-107 364 -146 437 -350 854 -601 1229 -70 105 -250 352 -267 366 -3 3 -29 34
-59 70 -179 218 -442 481 -666 665 -33 28 -62 53 -65 56 -17 18 -292 217 -380
274 -58 37 -116 75 -130 85 -26 17 -47 29 -220 127 -330 185 -723 346 -1100
449 -100 28 -284 72 -324 78 -21 4 -41 8 -45 10 -3 2 -26 7 -51 10 -25 3 -56
8 -70 11 -82 17 -96 19 -195 30 -33 4 -62 8 -65 10 -3 2 -45 6 -95 10 -49 4
-101 9 -115 12 -32 5 -685 14 -691 9z m516 -321 c196 -9 224 -11 276 -19 24
-3 64 -8 89 -11 25 -2 77 -9 115 -15 39 -6 89 -13 111 -16 23 -3 54 -8 69 -13
l28 -7 -88 -109 c-155 -192 -210 -260 -215 -265 -3 -3 -41 -50 -85 -105 -44
-55 -86 -106 -92 -115 -7 -8 -109 -134 -227 -280 l-215 -265 0 -255 0 -255 27
31 c15 17 34 40 42 50 8 11 35 44 60 74 25 30 50 62 57 70 71 88 168 209 181
225 10 11 53 65 97 120 44 55 82 102 85 105 3 3 82 100 175 215 196 244 248
308 255 315 3 3 21 25 40 50 19 25 42 53 50 62 8 9 58 70 110 136 l95 119 3
-4635 c1 -2550 0 -4637 -3 -4640 -11 -11 -285 -75 -412 -97 -148 -24 -170 -28
-278 -40 -27 -4 -61 -8 -75 -10 -139 -20 -690 -28 -860 -12 -185 17 -319 33
-375 43 -11 2 -49 9 -85 15 -283 45 -663 153 -966 274 -158 63 -511 237 -654
322 -538 322 -1016 749 -1393 1246 -80 106 -91 124 -77 132 5 3 46 50 90 104
43 54 85 105 92 112 7 8 40 48 73 89 33 41 67 81 75 90 8 9 31 36 50 60 19 24
65 80 102 124 37 45 149 180 249 301 210 255 247 299 475 575 94 113 309 374
479 580 171 206 318 385 328 396 l18 21 930 0 c511 0 932 3 935 6 5 5 8 205 5
295 l-1 22 -1444 0 -1444 0 -25 -32 c-13 -18 -33 -43 -43 -55 -26 -29 -30 -34
-194 -238 -80 -99 -152 -189 -162 -200 -9 -11 -137 -168 -283 -350 -147 -181
-282 -348 -300 -370 -18 -22 -93 -114 -166 -205 -73 -91 -165 -204 -204 -251
-38 -47 -81 -101 -95 -119 -53 -70 -50 -71 -92 32 -124 298 -258 801 -293
1099 -3 26 -7 56 -10 67 -2 10 -6 55 -10 98 -4 43 -9 86 -10 95 -5 26 -18 336
-18 419 1 89 12 352 17 401 3 19 7 66 11 104 10 98 19 167 31 240 3 17 7 39 8
50 2 11 6 34 9 50 4 17 9 45 12 63 12 70 37 182 66 292 17 63 32 122 34 130
11 49 85 264 135 394 354 922 996 1723 1820 2270 140 93 187 122 340 210 104
59 351 177 510 243 73 31 345 130 375 137 6 2 28 8 50 14 22 6 43 12 47 12 4
0 26 7 49 15 23 9 51 17 63 19 12 3 91 21 176 40 85 19 169 37 185 40 53 9
159 25 200 31 22 3 51 8 65 10 14 3 61 7 105 11 44 3 88 8 98 10 10 1 88 6
175 10 86 3 158 7 159 8 3 2 134 -2 288 -9z m2118 -601 c380 -210 732 -478
1057 -804 464 -464 797 -961 1047 -1560 59 -141 153 -412 179 -510 2 -8 17
-69 35 -135 34 -130 37 -143 45 -194 3 -18 8 -43 11 -55 6 -25 31 -167 38
-216 3 -19 7 -48 10 -65 4 -31 11 -84 20 -165 27 -253 27 -794 0 -995 -3 -16
-9 -70 -15 -120 -6 -49 -18 -128 -26 -175 -9 -47 -17 -95 -19 -107 -2 -12 -6
-34 -9 -50 -4 -15 -8 -37 -10 -48 -14 -76 -83 -333 -117 -441 -110 -344 -247
-655 -422 -959 -66 -114 -266 -423 -291 -448 -6 -7 -34 -41 -61 -77 -207 -271
-495 -569 -759 -785 -27 -22 -54 -45 -60 -50 -19 -17 -197 -149 -281 -207
-131 -92 -401 -253 -467 -280 -17 -7 -18 190 -18 4247 0 2340 3 4255 6 4255 3
0 51 -25 107 -56z"/>
</g>
</svg>
