<?xml version="1.0" standalone="no"?>
<!DOCTYPE svg PUBLIC "-//W3C//DTD SVG 1.1//EN" "http://www.w3.org/Graphics/SVG/1.1/DTD/svg11.dtd" >
<svg xmlns="http://www.w3.org/2000/svg" xmlns:xlink="http://www.w3.org/1999/xlink" version="1.1">
<metadata></metadata>
<defs>
<font id="panobold" horiz-adv-x="977" >
<font-face units-per-em="1000" ascent="768" descent="-232" />
<missing-glyph horiz-adv-x="322" />
<glyph unicode="fi" horiz-adv-x="874" d="M804 521v-521h-185v405h-276v-405h-185v405h-133v116h133q7 113 80.5 167t218.5 54q55 0 113 -10v-123l-7 -2q-26 8 -74 8q-76 0 -111 -22t-35 -72h461z" />
<glyph unicode="fl" horiz-adv-x="874" d="M619 722h185v-722h-185v405h-276v-405h-185v405h-133v116h133q7 113 80.5 167t218.5 54q55 0 113 -10v-123l-7 -2q-26 8 -74 8q-76 0 -111 -22t-35 -72h276v201z" />
<glyph unicode="ff" horiz-adv-x="1081" d="M950 615q-76 0 -111 -22t-35 -72h227v-116h-227v-405h-185v405h-276v-405h-185v405h-133v116h133q7 113 80.5 167t218.5 54q55 0 113 -10v-123l-7 -2q-26 8 -74 8q-76 0 -111 -22t-35 -72h276q7 113 80.5 167t218.5 54q55 0 113 -10v-123l-7 -2q-26 8 -74 8z" />
<glyph unicode="ft" horiz-adv-x="981" d="M971 405h-167v-169q0 -62 35 -88t111 -26h16l5 -3v-129q-32 -2 -53 -2q-153 0 -226 62.5t-73 191.5v163h-276v-405h-185v405h-133v116h133q0 107 82.5 164t237.5 57q158 0 241.5 -56.5t84.5 -163.5v-1h167v-116zM343 521h276q0 49 -36.5 77t-104.5 28q-64 0 -99.5 -28 t-35.5 -77z" />
<glyph unicode="fft" horiz-adv-x="1442" d="M1432 405h-167v-169q0 -62 35 -88t111 -26h16l5 -3v-129q-32 -2 -53 -2q-153 0 -226 62.5t-73 191.5v163h-276v-405h-185v405h-276v-405h-185v405h-133v116h133q7 113 80.5 167t218.5 54q55 0 113 -10v-123l-7 -2q-26 8 -74 8q-76 0 -111 -22t-35 -72h276q0 107 82.5 164 t237.5 57q158 0 241.5 -56.5t84.5 -163.5v-1h167v-116zM804 521h276q0 49 -36.5 77t-104.5 28q-64 0 -99.5 -28t-35.5 -77z" />
<glyph unicode="ffi" horiz-adv-x="1335" d="M1265 521v-521h-185v405h-276v-405h-185v405h-276v-405h-185v405h-133v116h133q7 113 80.5 167t218.5 54q55 0 113 -10v-123l-7 -2q-26 8 -74 8q-76 0 -111 -22t-35 -72h276q7 113 80.5 167t218.5 54q55 0 113 -10v-123l-7 -2q-26 8 -74 8q-76 0 -111 -22t-35 -72h461z " />
<glyph unicode="ij" horiz-adv-x="645" d="M56 798h213v-156h-213v156zM381 798h213v-156h-213v156zM70 573h185v-573h-185v573zM250 -248v137l6 4q81 -7 110.5 22.5t29.5 122.5v535h184v-539q0 -137 -76 -211.5t-210 -74.5q-26 0 -44 4z" />
<glyph horiz-adv-x="0" />
<glyph horiz-adv-x="333" />
<glyph unicode="&#xd;" horiz-adv-x="600" />
<glyph unicode=" "  horiz-adv-x="322" />
<glyph unicode="&#x09;" horiz-adv-x="322" />
<glyph unicode="&#xa0;" horiz-adv-x="322" />
<glyph unicode="!" horiz-adv-x="286" d="M52 450v272h180v-272l-7 -236h-166zM50 166h186v-166h-186v166z" />
<glyph unicode="&#x22;" horiz-adv-x="497" d="M50 597v125h161v-125l-7 -141h-147zM286 597v125h161v-125l-7 -141h-147z" />
<glyph unicode="#" horiz-adv-x="1156" d="M1106 433h-252l-36 -143h230v-128h-262l-40 -162h-156l40 162h-208l-40 -162h-156l40 162h-216v128h248l36 143h-226v128h258l40 161h156l-40 -161h208l40 161h156l-40 -161h220v-128zM662 290l36 143h-208l-36 -143h208z" />
<glyph unicode="$" horiz-adv-x="1083" d="M1033 226q0 -116 -102 -173t-330 -64v-93h-118v92q-254 6 -424 61v160l6 3q177 -67 418 -73v154q-59 3 -104.5 8t-98 14.5t-90 26t-70 39.5t-49 57.5t-16.5 78.5q0 105 109 162.5t319 62.5v98h118v-98q192 -7 360 -57v-152l-6 -2q-174 52 -354 60v-142q59 -3 105 -8 t99 -15t91 -26t70.5 -39t49.5 -57.5t17 -77.5zM245 523q0 -36 59 -49.5t179 -18.5v137q-238 -6 -238 -69zM601 139q242 9 242 82q0 36 -59.5 49t-182.5 18v-149z" />
<glyph unicode="%" horiz-adv-x="1657" d="M50 494q0 116 88.5 181t239.5 65t239.5 -65t88.5 -181q0 -115 -88.5 -180.5t-239.5 -65.5t-239.5 65.5t-88.5 180.5zM466 4l564 718h149l3 -4l-564 -718h-149zM576 494q0 68 -53 103t-145 35t-145.5 -35.5t-53.5 -102.5t53.5 -102.5t145.5 -35.5t145 35t53 103zM951 234 q0 116 88.5 181t239.5 65t239.5 -65t88.5 -181q0 -115 -88.5 -180.5t-239.5 -65.5t-239.5 65.5t-88.5 180.5zM1477 234q0 68 -53 103t-145 35t-145.5 -35.5t-53.5 -102.5t53.5 -102.5t145.5 -35.5t145 35t53 103z" />
<glyph unicode="&#x26;" horiz-adv-x="1446" d="M1101 143q114 -54 295 -136v-6l-315 -1q-28 13 -79 37.5t-57 27.5q-189 -77 -416 -77q-232 0 -355.5 69t-123.5 194q0 99 78.5 156.5t230.5 65.5q-16 36 -16 77q0 100 95.5 146t296.5 46q205 0 297.5 -46.5t92.5 -144.5q0 -93 -75.5 -145t-208.5 -52h-148 q74 -50 238 -131q203 93 384 271l4 -2v-195q-114 -95 -218 -154zM741 612q-105 0 -159 -17t-54 -65q0 -31 28 -56h210q102 0 144 16t42 53t-46.5 53t-164.5 16zM522 132q120 0 233 29q-202 106 -304 193h-33q-86 0 -133.5 -24.5t-47.5 -70.5q0 -59 76.5 -93t208.5 -34z" />
<glyph unicode="'" horiz-adv-x="261" d="M50 597v125h161v-125l-7 -141h-147z" />
<glyph unicode="(" horiz-adv-x="548" d="M100 317q0 142 64.5 287t168.5 238h185l2 -5q-111 -84 -184.5 -227t-73.5 -293q0 -151 74.5 -294.5t186.5 -227.5l-2 -5h-188q-104 93 -168.5 238t-64.5 289z" />
<glyph unicode=")" horiz-adv-x="548" d="M215 -210h-188l-2 5q112 84 186.5 227.5t74.5 294.5q0 150 -73.5 293t-184.5 227l2 5h185q104 -93 168.5 -238t64.5 -287q0 -144 -64.5 -289t-168.5 -238z" />
<glyph unicode="*" horiz-adv-x="881" d="M831 594v-104h-186l153 -94l-90 -89l-194 153v-147h-146v146l-193 -152l-90 89l153 94h-188v104h318v128h146v-128h317z" />
<glyph unicode="+" horiz-adv-x="920" d="M870 425v-128h-336v-211h-148v211h-336v128h336v211h148v-211h336z" />
<glyph unicode="," horiz-adv-x="300" d="M51 177h199v-145l-133 -209h-67l57 177h-56v177z" />
<glyph unicode="-" horiz-adv-x="600" d="M50 360h500v-134l-500 -1v135z" />
<glyph unicode="." horiz-adv-x="300" d="M50 179h200v-179h-200v179z" />
<glyph unicode="/" horiz-adv-x="690" d="M-40 -118l618 965h149l3 -4l-618 -965h-149z" />
<glyph unicode="0" horiz-adv-x="1082" d="M40 365q0 176 135.5 276.5t365.5 100.5t365.5 -100.5t135.5 -276.5t-135.5 -276.5t-365.5 -100.5t-365.5 100.5t-135.5 276.5zM862 365q0 109 -86 168t-235 59t-235 -59t-86 -168t86 -168t235 -59t235 59t86 168z" />
<glyph unicode="1" horiz-adv-x="579" d="M334 544l-301 -122l-3 2v149l337 149h142v-722h-175v544z" />
<glyph unicode="2" horiz-adv-x="939" d="M30 31q0 95 35 159t124.5 115t248.5 91q133 34 195 54t79 32.5t17 30.5q0 35 -61.5 56.5t-168.5 21.5q-254 0 -430 -119l-6 3v163q175 105 440 105q406 0 406 -229q0 -60 -30.5 -101.5t-111 -77.5t-225.5 -70q-131 -31 -189.5 -57t-71.5 -58h627v-150h-878v31z" />
<glyph unicode="3" horiz-adv-x="963" d="M788 384q135 -47 135 -163q0 -110 -126.5 -171.5t-351.5 -61.5q-252 0 -425 95v165l5 3q169 -112 434 -112q136 0 210 25.5t74 71.5q0 69 -186 69h-289v143h292q154 0 154 60q0 37 -71.5 60t-186.5 23q-245 0 -412 -113l-4 3v164q178 97 410 97q204 0 324 -56t120 -152 t-106 -150z" />
<glyph unicode="4" horiz-adv-x="998" d="M978 312v-143h-142v-169h-180v169h-626v114l647 439h159v-410h142zM316 312h340v231z" />
<glyph unicode="5" horiz-adv-x="999" d="M555 498q196 0 305 -62.5t109 -184.5q0 -129 -123.5 -196t-351.5 -67q-269 0 -461 104v170l8 3q192 -123 466 -123q136 0 209 28t73 82q0 105 -259 105q-175 0 -343 -77l-157 101l81 341h798v-143h-661l-38 -151q102 41 174.5 55.5t170.5 14.5z" />
<glyph unicode="6" horiz-adv-x="1039" d="M40 341q0 193 136 297t388 104q206 0 356 -60v-156l-9 -2q-173 70 -354 70q-131 0 -212.5 -37.5t-104.5 -108.5q109 53 325 53q219 0 331.5 -64t112.5 -186q0 -128 -123.5 -195.5t-349.5 -67.5q-246 0 -371 85.5t-125 267.5zM829 256q0 116 -296 116q-153 0 -223.5 -26 t-70.5 -84q0 -119 306 -119q148 0 216 26.5t68 86.5z" />
<glyph unicode="7" horiz-adv-x="879" d="M630 578h-620v144h859v-129q-203 -147 -295 -278.5t-121 -314.5h-185q33 189 117 318.5t245 259.5z" />
<glyph unicode="8" horiz-adv-x="1044" d="M825 387q95 -28 137 -69t42 -104q0 -111 -124 -168.5t-358 -57.5t-358 57.5t-124 168.5q0 63 42 104t137 69q-76 25 -111 61.5t-35 91.5q0 100 115 151t334 51t334 -51t115 -151q0 -55 -35 -91.5t-111 -61.5zM522 595q-269 0 -269 -73q0 -77 269 -77t269 77q0 73 -269 73 zM522 138q155 0 228.5 22.5t73.5 70.5q0 91 -302 91t-302 -91q0 -48 73.5 -70.5t228.5 -22.5z" />
<glyph unicode="9" horiz-adv-x="1033" d="M104 47v157l9 2q168 -70 351 -70q131 0 214.5 37.5t111.5 108.5q-115 -53 -328 -53t-322.5 63t-109.5 185q0 129 128.5 197t355.5 68q245 0 362 -85t117 -264q0 -194 -143 -299.5t-392 -105.5q-214 0 -354 59zM800 469q0 61 -74 89.5t-228 28.5q-149 0 -218.5 -27 t-69.5 -86q0 -62 68.5 -89t222.5 -27q157 0 228 26.5t71 84.5z" />
<glyph unicode=":" horiz-adv-x="300" d="M50 575h200v-179h-200v179zM50 179h200v-179h-200v179z" />
<glyph unicode=";" horiz-adv-x="300" d="M50 576h200v-179h-200v179zM51 0v177h199v-145l-133 -209h-67l57 177h-56z" />
<glyph unicode="&#x3c;" horiz-adv-x="847" d="M797 661v-146l-519 -154l519 -153v-147l-747 236v128z" />
<glyph unicode="=" horiz-adv-x="920" d="M50 563h820v-128h-820v128zM50 278h820v-128h-820v128z" />
<glyph unicode="&#x3e;" horiz-adv-x="847" d="M50 661l747 -236v-128l-747 -236v147l519 153l-519 154v146z" />
<glyph unicode="?" horiz-adv-x="878" d="M50 380q0 80 82 113q68 27 278 43q21 2 82 6q89 6 122.5 13.5t33.5 22.5q0 31 -143 31q-104 0 -218.5 -12t-181.5 -32l-4 2v134q158 41 371 41q187 0 271.5 -37t84.5 -124q0 -20 -4.5 -37.5t-15.5 -31.5t-22.5 -25t-33.5 -20.5t-41 -16.5t-52.5 -13t-59 -10t-70 -8.5 t-77 -7.5t-86.5 -7q-113 -9 -127 -16q-8 -5 -9 -13q0 -10 15 -16.5t52 -9.5t102 -3q241 0 409 58l4 -2v-137q-156 -53 -378 -53q-200 0 -292 41t-92 127zM360 166h186v-166h-186v166z" />
<glyph unicode="@" horiz-adv-x="1214" d="M784 503h120q-37 -145 -37 -176t18.5 -48t52.5 -17q47 0 75.5 36.5t28.5 96.5q0 100 -112.5 167t-297.5 67q-210 0 -335 -81.5t-125 -219.5q0 -132 117 -209t315 -77q181 0 327 64l9 -4v-111q-148 -62 -340 -62q-255 0 -410 109.5t-155 288.5q0 185 163 300t425 115 q249 0 402.5 -99.5t153.5 -260.5q0 -100 -66 -161t-174 -61q-115 0 -162 69q-72 -69 -215 -69q-115 0 -182 45t-67 124q0 86 79 140t205 54q119 0 180 -49zM579 266q77 0 119 22.5t42 62.5q0 31 -35 48t-101 17q-75 0 -116 -20.5t-41 -57.5q0 -33 34.5 -52.5t97.5 -19.5z " />
<glyph unicode="A" horiz-adv-x="1093" d="M889 0l-85 145h-510l-90 -145h-204l460 722h196l437 -722h-204zM384 292h334l-162 277z" />
<glyph unicode="B" horiz-adv-x="1110" d="M892 375q90 -19 134 -60.5t44 -110.5q0 -106 -84.5 -155t-253.5 -49h-652v722h600q178 0 255.5 -47.5t77.5 -136.5q0 -116 -121 -163zM677 572h-407v-140h413q68 0 99 15.5t31 54.5q0 38 -31 54t-105 16zM753 150q117 0 117 75q0 42 -34.5 57t-106.5 15h-459v-147h483z " />
<glyph unicode="C" horiz-adv-x="1103" d="M40 365q0 178 146.5 277.5t406.5 99.5q240 0 430 -98v-162l-6 -1q-203 111 -406 111q-185 0 -283 -60t-98 -168q0 -107 97.5 -166.5t283.5 -59.5q200 0 406 111l5 -1v-162q-191 -98 -418 -98q-266 0 -415 99.5t-149 277.5z" />
<glyph unicode="D" horiz-adv-x="1154" d="M592 722q245 0 383.5 -95t138.5 -266q0 -170 -137.5 -265.5t-377.5 -95.5h-519v722h512zM583 150q170 0 254 50.5t84 160.5t-84 160.5t-254 50.5h-313v-422h313z" />
<glyph unicode="E" horiz-adv-x="1014" d="M964 575h-694v-142h650v-143h-650v-143h694v-147h-884v722h884v-147z" />
<glyph unicode="F" horiz-adv-x="1014" d="M964 572h-694v-137h650v-147h-650v-288h-190v722h884v-150z" />
<glyph unicode="G" horiz-adv-x="1103" d="M611 592q-185 0 -283 -60t-98 -168q0 -107 97.5 -166.5t283.5 -59.5q109 0 221 33v199h190v-284q-191 -98 -418 -98q-266 0 -415 99.5t-149 277.5t146.5 277.5t406.5 99.5q240 0 430 -98v-162l-6 -1q-203 111 -406 111z" />
<glyph unicode="H" horiz-adv-x="1140" d="M870 722h190v-722h-190v286h-600v-286h-190v722h190v-286h600v286z" />
<glyph unicode="I" horiz-adv-x="350" d="M80 722h190v-722h-190v722z" />
<glyph unicode="J" horiz-adv-x="706" d="M80 18v158l6 3q74 -37 153 -37q102 0 149.5 53.5t47.5 162.5v364h190v-349q0 -385 -377 -385q-105 0 -169 30z" />
<glyph unicode="K" horiz-adv-x="1037" d="M582 432l455 -428l-3 -4h-249l-350 333l-165 -110v-223h-190v722h190v-306l474 306h263l3 -4z" />
<glyph unicode="L" horiz-adv-x="984" d="M280 147h654v-147h-844v722h190v-575z" />
<glyph unicode="M" horiz-adv-x="1286" d="M1206 722v-722h-184v469l-290 -469h-178l-290 469v-469h-184v722h218l345 -552l345 552h218z" />
<glyph unicode="N" horiz-adv-x="1171" d="M901 722h190v-722h-220l-601 513v-513h-190v722h200l621 -528v528z" />
<glyph unicode="O" horiz-adv-x="1206" d="M40 365q0 178 148.5 277.5t414.5 99.5t414.5 -99.5t148.5 -277.5t-148.5 -277.5t-414.5 -99.5t-414.5 99.5t-148.5 277.5zM976 365q0 107 -97 167t-276 60t-276 -60t-97 -167t97 -167t276 -60t276 60t97 167z" />
<glyph unicode="P" horiz-adv-x="1056" d="M632 722q187 0 285.5 -64.5t98.5 -186.5t-97.5 -186.5t-281.5 -64.5h-367v-220h-190v722h552zM627 370q103 0 149.5 21.5t46.5 79.5t-46.5 79.5t-149.5 21.5h-357v-202h357z" />
<glyph unicode="Q" horiz-adv-x="1207" d="M1011 83l156 -149l-4 -4h-228l-89 85q-106 -27 -243 -27q-266 0 -414.5 99.5t-148.5 277.5t148.5 277.5t414.5 99.5t414.5 -99.5t148.5 -277.5q0 -181 -155 -282zM603 138q59 0 107 6l-153 147l4 4h228l97 -93q90 59 90 163q0 107 -97 167t-276 60t-276 -60t-97 -167 t97 -167t276 -60z" />
<glyph unicode="R" horiz-adv-x="1105" d="M861 322q54 -16 87.5 -53.5t45.5 -76.5t30.5 -95t40.5 -91v-6h-198q-10 25 -32.5 99.5t-42.5 100.5t-54.5 37.5t-111.5 11.5h-356v-249h-190v722h618q154 0 235 -52.5t81 -151.5q0 -136 -153 -196zM270 399h400q73 0 111.5 23t38.5 67q0 45 -40 64t-130 19h-380v-173z " />
<glyph unicode="S" horiz-adv-x="1083" d="M59 49v160l6 3q196 -74 476 -74q302 0 302 83q0 26 -34 40.5t-89.5 18.5t-126 8t-144.5 7t-144.5 16.5t-126 35.5t-89.5 65.5t-34 104.5q0 111 120.5 168.5t354.5 57.5q235 0 431 -58v-152l-6 -2q-209 62 -421 62q-289 0 -289 -70q0 -29 43.5 -44t113 -19.5t153.5 -7.5 t168 -13.5t153.5 -31t113 -66.5t43.5 -115q0 -124 -118.5 -181t-384.5 -57q-279 0 -471 61z" />
<glyph unicode="T" horiz-adv-x="1079" d="M1059 722v-147h-425v-575h-190v575h-424v147h1039z" />
<glyph unicode="U" horiz-adv-x="1058" d="M80 391v331h190v-345q0 -239 259 -239t259 239v345h190v-331q0 -403 -449 -403t-449 403z" />
<glyph unicode="V" horiz-adv-x="1088" d="M1085 722l3 -4l-435 -718h-196l-457 718l3 4h200l350 -561l333 561h199z" />
<glyph unicode="W" horiz-adv-x="1370" d="M1367 722l3 -4l-300 -718h-185l-200 510l-200 -510h-185l-300 718l3 4h196l198 -507l198 507h181l198 -506l199 506h194z" />
<glyph unicode="X" horiz-adv-x="1010" d="M622 367l388 -363l-3 -4h-228l-275 257l-275 -257h-226l-3 4l387 362l-377 352l3 4h228l264 -246l264 246h226l3 -4z" />
<glyph unicode="Y" horiz-adv-x="1038" d="M1035 722l3 -4l-424 -470v-248h-190v248l-424 470l3 4h217l299 -339l300 339h216z" />
<glyph unicode="Z" horiz-adv-x="1079" d="M400 150h599v-150h-919v114l608 458h-587v150h887v-114z" />
<glyph unicode="[" horiz-adv-x="458" d="M100 842h333v-120h-174v-812h174v-120h-333v1052z" />
<glyph unicode="\" horiz-adv-x="690" d="M730 -118l-3 -4h-149l-618 965l3 4h149z" />
<glyph unicode="]" horiz-adv-x="458" d="M358 842v-1052h-333v120h174v812h-174v120h333z" />
<glyph unicode="^" horiz-adv-x="800" d="M750 440h-159l-191 400l-189 -400h-161l286 577h128z" />
<glyph unicode="_" horiz-adv-x="980" d="M0 0h980v-119h-980v119z" />
<glyph unicode="`" horiz-adv-x="429" d="M379 645l-2 -3h-156l-171 210l2 3h205z" />
<glyph unicode="a" d="M722 573h185v-573h-185v73q-99 -85 -289 -85q-184 0 -291 77.5t-107 214.5q0 139 107 222t284 83q192 0 296 -98v86zM471 123q121 0 186 42.5t65 121.5t-65 121t-186 42t-186 -42t-65 -121t65 -121.5t186 -42.5z" />
<glyph unicode="b" d="M551 585q177 0 284 -83t107 -222q0 -137 -107 -214.5t-291 -77.5q-190 0 -289 85v-73h-185v722h185v-235q104 98 296 98zM506 123q121 0 186 42.5t65 121.5t-65 121t-186 42t-186 -42t-65 -121t65 -121.5t186 -42.5z" />
<glyph unicode="c" horiz-adv-x="881" d="M35 286q0 137 116.5 218t320.5 81q187 0 339 -78v-168l-4 -1q-150 104 -335 104q-123 0 -187.5 -40t-64.5 -116t64.5 -115.5t187.5 -39.5q188 0 335 103l4 -1v-167q-152 -78 -339 -78q-204 0 -320.5 80.5t-116.5 217.5z" />
<glyph unicode="d" d="M722 722h185v-722h-185v73q-99 -85 -289 -85q-184 0 -291 77.5t-107 214.5q0 139 107 222t284 83q192 0 296 -98v235zM471 123q121 0 186 42.5t65 121.5t-65 121t-186 42t-186 -42t-65 -121t65 -121.5t186 -42.5z" />
<glyph unicode="e" horiz-adv-x="911" d="M876 286v-37h-653q30 -118 266 -118q108 0 185 23.5t152 74.5l4 -3v-160q-152 -78 -344 -78q-215 0 -333 81t-118 219q0 137 115 217t311 80q193 0 304 -79.5t111 -219.5zM463 457q-180 0 -237 -98h469q-51 98 -232 98z" />
<glyph unicode="f" horiz-adv-x="620" d="M489 615q-76 0 -111 -22t-35 -72h227v-116h-227v-405h-185v405h-133v116h133q7 113 80.5 167t218.5 54q55 0 113 -10v-123l-7 -2q-26 8 -74 8z" />
<glyph unicode="g" d="M722 573h185v-496q-3 -171 -119 -250t-343 -79q-209 0 -355 78v166l5 2q159 -110 356 -110q130 0 200 44t71 126v19q-99 -85 -289 -85q-184 0 -291 77.5t-107 214.5q0 139 107 222t284 83q192 0 296 -98v86zM471 123q121 0 186 42.5t65 121.5t-65 121t-186 42t-186 -42 t-65 -121t65 -121.5t186 -42.5z" />
<glyph unicode="h" horiz-adv-x="957" d="M544 585q163 0 255.5 -79t92.5 -218v-288h-185v262q0 190 -211 190q-115 0 -178 -57.5t-63 -169.5v-225h-185v722h185v-237q105 100 289 100z" />
<glyph unicode="i" horiz-adv-x="325" d="M56 798h213v-156h-213v156zM70 573h185v-573h-185v573z" />
<glyph unicode="j" horiz-adv-x="315" d="M51 798h213v-156h-213v156zM-80 -248v137l6 4q81 -7 110.5 22.5t29.5 122.5v535h184v-539q0 -137 -76 -211.5t-210 -74.5q-26 0 -44 4z" />
<glyph unicode="k" horiz-adv-x="907" d="M507 334l400 -330l-3 -4h-252l-278 240l-119 -84v-156h-185v722h185v-384l339 235h243l3 -4z" />
<glyph unicode="l" horiz-adv-x="325" d="M70 722h185v-722h-185v722z" />
<glyph unicode="m" horiz-adv-x="1472" d="M1090 585q149 0 233 -77.5t84 -215.5v-292h-185v262q0 98 -43.5 143t-141.5 45q-108 0 -159.5 -54.5t-51.5 -170.5v-225h-185v262q0 98 -43.5 143t-135.5 45q-207 0 -207 -225v-225h-185v573h185v-91q94 103 261 103q191 0 269 -131q48 63 128.5 97t176.5 34z" />
<glyph unicode="n" horiz-adv-x="957" d="M544 585q169 0 258.5 -76.5t89.5 -220.5v-288h-185v240q0 112 -50 161t-159 49q-243 0 -243 -247v-203h-185v573h185v-93q99 105 289 105z" />
<glyph unicode="o" horiz-adv-x="942" d="M35 286q0 137 116.5 218t318.5 81t319.5 -81t117.5 -218q0 -136 -117.5 -217t-319.5 -81t-318.5 80.5t-116.5 217.5zM722 286q0 80 -64.5 122t-187.5 42q-121 0 -185.5 -42t-64.5 -122t64.5 -121.5t185.5 -41.5q123 0 187.5 41.5t64.5 121.5z" />
<glyph unicode="p" d="M551 585q177 0 284 -83t107 -222q0 -137 -107 -214.5t-291 -77.5q-190 0 -289 85v-305h-185v805h185v-86q104 98 296 98zM506 123q121 0 186 42.5t65 121.5t-65 121t-186 42t-186 -42t-65 -121t65 -121.5t186 -42.5z" />
<glyph unicode="q" d="M722 573h185v-805h-185v305q-99 -85 -289 -85q-184 0 -291 77.5t-107 214.5q0 139 107 222t284 83q192 0 296 -98v86zM471 123q121 0 186 42.5t65 121.5t-65 121t-186 42t-186 -42t-65 -121t65 -121.5t186 -42.5z" />
<glyph unicode="r" horiz-adv-x="667" d="M542 585q35 0 75 -5v-150l-5 -2q-44 11 -105 11q-124 0 -188 -62t-64 -176v-201h-185v573h185v-88q103 100 287 100z" />
<glyph unicode="s" horiz-adv-x="895" d="M53 44v141l5 2q178 -73 398 -73q113 0 161 13t48 43q0 23 -45.5 34t-114 12.5t-148 9.5t-148 22t-114 53t-45.5 99q0 185 388 185q193 0 353 -46v-137l-7 -2q-172 58 -370 58q-97 0 -138 -10.5t-41 -35.5q0 -20 34 -30t88 -13.5t119.5 -6.5t131.5 -12.5t120 -26t88 -52.5 t34 -88q0 -196 -389 -196q-244 0 -408 57z" />
<glyph unicode="t" horiz-adv-x="493" d="M483 445h-167v-199q0 -68 31 -96t105 -28h26l5 -3v-129q-32 -2 -53 -2q-155 0 -227 62t-72 192v203h-121v116h121v131h185v-131h167v-116z" />
<glyph unicode="u" horiz-adv-x="957" d="M702 573h185v-573h-185v88q-105 -100 -291 -100q-167 0 -256.5 83.5t-89.5 237.5v264h185v-238q0 -108 51.5 -160t158.5 -52q242 0 242 255v195z" />
<glyph unicode="v" horiz-adv-x="909" d="M906 573l3 -4l-352 -569h-204l-353 569l3 4h199l253 -434l254 434h197z" />
<glyph unicode="w" horiz-adv-x="1277" d="M1274 573l3 -4l-278 -569h-187l-175 386l-175 -386h-184l-278 569l3 4h201l174 -394l172 394h178l171 -395l176 395h199z" />
<glyph unicode="x" horiz-adv-x="872" d="M318 293l-304 276l3 4h229l190 -174l190 174h229l3 -4l-304 -276l318 -289l-3 -4h-229l-204 187l-204 -187h-229l-3 4z" />
<glyph unicode="y" horiz-adv-x="913" d="M910 573l3 -4l-418 -670q-50 -81 -114 -116t-165 -35h-42v135l6 4h20q67 0 98.5 19t64.5 74l12 20h-1l-374 569l3 4h206l258 -402l249 402h194z" />
<glyph unicode="z" horiz-adv-x="923" d="M364 135h489v-135h-783v115l475 323h-459v135h753v-115z" />
<glyph unicode="{" horiz-adv-x="596" d="M238 -55v182q0 55 -29 89t-84 34h-25v132h25q55 0 84 34t29 89v182q0 71 43 113t117 42h173v-120h-147q-27 0 -27 -32v-162q0 -87 -29 -138t-98 -74q69 -23 98 -74t29 -138v-162q0 -32 27 -32h147v-120h-173q-74 0 -117 42t-43 113z" />
<glyph unicode="|" horiz-adv-x="255" d="M50 882h155v-1032h-155v1032z" />
<glyph unicode="}" horiz-adv-x="596" d="M198 -210h-173v120h147q27 0 27 32v162q0 87 29 138t98 74q-69 23 -98 74t-29 138v162q0 32 -27 32h-147v120h173q74 0 117 -42t43 -113v-182q0 -55 29 -89t84 -34h25v-132h-25q-55 0 -84 -34t-29 -89v-182q0 -71 -43 -113t-117 -42z" />
<glyph unicode="~" horiz-adv-x="1049" d="M318 352q-45 0 -76.5 -26.5t-37.5 -71.5h-154q12 110 86.5 174.5t185.5 64.5q68 0 151.5 -27.5t156.5 -55t113 -27.5q87 0 102 97h154q-9 -118 -71.5 -178t-173.5 -60q-70 0 -154 27.5t-159 55t-123 27.5z" />
<glyph unicode="&#xa1;" horiz-adv-x="286" d="M50 325v166h186v-166h-186zM52 41l7 236h166l7 -236v-272h-180v272z" />
<glyph unicode="&#xa2;" horiz-adv-x="881" d="M807 338q-92 65 -197 89l-162 -296h24q188 0 335 103l4 -1v-167q-152 -78 -339 -78q-52 0 -99 6l-59 -108h-128l-5 6l70 128q-104 35 -160 104t-56 162q0 137 116.5 218t320.5 81q49 0 86 -4l58 106h128l5 -6l-67 -123q66 -20 129 -51v-168zM323 152l159 290h-10 q-123 0 -187.5 -40t-64.5 -116q0 -98 103 -134z" />
<glyph unicode="&#xa3;" horiz-adv-x="1010" d="M956 201l4 -1v-149q-115 -65 -223 -65q-70 0 -195 38t-195 38q-96 0 -238 -62l-59 134q89 35 122.5 60t33.5 55q0 20 -20 60h-135v129h75q-6 26 -6 55q0 107 115 178t287 71q124 0 210 -25t169 -80v-163l-5 -3q-88 64 -172.5 91.5t-191.5 27.5q-95 0 -162 -32t-67 -78 q0 -17 10 -42h452v-129h-400q2 -12 2 -18q0 -74 -81 -123q80 23 146 23q63 0 159 -30t149 -30q56 0 102.5 15t113.5 55z" />
<glyph unicode="&#xa4;" horiz-adv-x="992" d="M910 360q0 -80 -43 -145l75 -75l-119 -110l-80 81q-105 -50 -247 -50t-247 50l-80 -81l-119 110l75 75q-43 65 -43 145t43 145l-75 75l119 110l80 -81q105 50 247 50t247 -50l80 81l119 -110l-75 -75q43 -65 43 -145zM267 361q0 -81 61 -123t168 -42t168 42t61 123 q0 80 -61.5 121.5t-167.5 41.5t-167.5 -41.5t-61.5 -121.5z" />
<glyph unicode="&#xa5;" horiz-adv-x="1038" d="M1038 718l-318 -353h266v-135h-372v-230h-190v230h-372v135h266l-318 353l3 4h217l299 -339l300 339h216z" />
<glyph unicode="&#xa6;" horiz-adv-x="255" d="M50 882h155v-402h-155v402zM50 252h155v-402h-155v402z" />
<glyph unicode="&#xa7;" horiz-adv-x="908" d="M776 108q82 -51 82 -141q0 -219 -386 -219q-219 0 -390 58v143l6 2q199 -65 401 -65q199 0 199 68q0 32 -47.5 50.5t-118 24.5t-153.5 18t-153.5 29t-118 60t-47.5 109q0 79 84 144q-84 48 -84 134q0 108 103.5 163.5t304.5 55.5q185 0 356 -58v-143l-6 -2 q-201 65 -357 65q-231 0 -231 -69q0 -32 47 -50.5t117 -23t152.5 -16t152.5 -28t117 -60t47 -111.5q0 -76 -77 -138zM199 276q0 -42 67 -60.5t196.5 -31.5t196.5 -30q45 22 45 63q0 43 -64 63.5t-195 35.5t-192 29q-54 -29 -54 -69z" />
<glyph unicode="&#xa8;" horiz-adv-x="660" d="M50 798h213v-156h-213v156zM397 798h213v-156h-213v156z" />
<glyph unicode="&#xa9;" horiz-adv-x="1206" d="M50 365q0 170 148 268.5t405 98.5t405 -98.5t148 -268.5t-148 -268.5t-405 -98.5t-405 98.5t-148 268.5zM1021 365q0 122 -111 191.5t-307 69.5t-307 -69.5t-111 -191.5t111 -191.5t307 -69.5t307 69.5t111 191.5zM316 365q0 88 77.5 139t215.5 51q125 0 225 -45v-103 l-6 -1q-105 50 -204 50q-88 0 -134.5 -24.5t-46.5 -67.5q0 -42 46 -66t135 -24q96 0 205 50l4 -2v-102q-96 -45 -214 -45q-145 0 -224 50.5t-79 139.5z" />
<glyph unicode="&#xaa;" horiz-adv-x="685" d="M352 740q283 0 283 -169v-266h-131v66q-87 -75 -240 -75q-214 0 -214 136q0 59 56 93t188 43q68 5 210 9q0 58 -156 58q-151 0 -265 -71l-1 1v123q117 52 270 52zM299 399q93 0 148 23t57 59v14q-161 -8 -233 -14q-40 -4 -57.5 -14t-17.5 -29q0 -39 103 -39z" />
<glyph unicode="&#xab;" horiz-adv-x="807" d="M50 226v120l334 180v-160l-157 -80l157 -80v-160zM757 526v-160l-157 -80l157 -80v-160l-334 180v120z" />
<glyph unicode="&#xac;" horiz-adv-x="920" d="M50 425h820v-339h-148v211h-672v128z" />
<glyph unicode="&#xad;" horiz-adv-x="524" d="M50 360h424v-135h-424v135z" />
<glyph unicode="&#xae;" horiz-adv-x="1206" d="M603 732q257 0 405 -98.5t148 -268.5t-148 -268.5t-405 -98.5t-405 98.5t-148 268.5t148 268.5t405 98.5zM603 104q196 0 307 69.5t111 191.5t-111 191.5t-307 69.5t-307 -69.5t-111 -191.5t111 -191.5t307 -69.5zM860 416q0 -44 -28.5 -74.5t-81.5 -44.5l110 -109l-1 -3 h-130l-99 101h-137v-101h-113v361h274q206 0 206 -130zM493 460v-88h161q50 0 71.5 10.5t21.5 34.5q0 20 -15 30t-31 11.5t-47 1.5h-161z" />
<glyph unicode="&#xaf;" horiz-adv-x="666" d="M50 776h566v-123h-566v123z" />
<glyph unicode="&#xb0;" horiz-adv-x="718" d="M50 537q0 110 85 178t224 68t224 -68t85 -178t-85 -178t-224 -68t-224 68t-85 178zM539 537q0 62 -48.5 101t-131.5 39t-131.5 -39t-48.5 -101t48.5 -101t131.5 -39t131.5 39t48.5 101z" />
<glyph unicode="&#xb1;" horiz-adv-x="920" d="M534 485h336v-128h-336v-151h-148v151h-336v128h336v151h148v-151zM50 11v128h820v-128h-820z" />
<glyph unicode="&#xb4;" horiz-adv-x="429" d="M50 645l122 210h205l2 -3l-171 -210h-156z" />
<glyph unicode="&#xb5;" horiz-adv-x="922" d="M687 573h185v-573h-185v88q-105 -100 -291 -100q-91 0 -161 26v-247h-185v806h185v-238q0 -108 51.5 -160t158.5 -52q242 0 242 255v195z" />
<glyph unicode="&#xb6;" horiz-adv-x="1266" d="M1186 722v-722h-190v575h-139v-575h-190v220h-248q-184 0 -281.5 64.5t-97.5 186.5t98.5 186.5t285.5 64.5h762zM667 367v208h-238q-107 0 -153 -24.5t-46 -78.5q0 -55 47 -80t152 -25h238z" />
<glyph unicode="&#xb7;" horiz-adv-x="300" d="M50 451h200v-179h-200v179z" />
<glyph unicode="&#xb8;" horiz-adv-x="389" d="M50 -182l124 182h165l-103 -186h-184z" />
<glyph unicode="&#xba;" horiz-adv-x="752" d="M50 517q0 103 87.5 163t238.5 60t238.5 -60t87.5 -163t-87.5 -163t-238.5 -60t-238.5 60t-87.5 163zM559 517q0 114 -183 114t-183 -114t183 -114t183 114z" />
<glyph unicode="&#xbb;" horiz-adv-x="807" d="M50 366v160l334 -180v-120l-334 -180v160l157 80zM423 526l334 -180v-120l-334 -180v160l157 80l-157 80v160z" />
<glyph unicode="&#xbc;" horiz-adv-x="1407" d="M374 251h-126v345l-198 -80v109l220 97h104v-471zM1004 722l3 -4l-564 -718h-149l-3 4l564 718h149zM1357 214v-102h-95v-112h-129v112h-401v82l413 277h117v-257h95zM934 214h199v132z" />
<glyph unicode="&#xbd;" horiz-adv-x="1477" d="M248 596l-198 -80v109l220 97h104v-471h-126v345zM291 4l564 718h149l3 -4l-564 -718h-149zM850 20q0 98 59.5 154t199.5 87q70 15 102.5 23t54.5 16t26.5 13.5t4.5 14.5q0 47 -139 47q-166 0 -282 -77l-4 2v116q112 69 281 69q131 0 202.5 -42.5t71.5 -119.5 q0 -61 -48.5 -93.5t-190.5 -62.5q-98 -21 -132 -32.5t-41 -26.5h411v-108h-576v20z" />
<glyph unicode="&#xbe;" horiz-adv-x="1592" d="M640 402q0 -71 -83.5 -111.5t-230.5 -40.5q-166 0 -276 61v118l3 2q110 -72 283 -72q174 0 174 55q0 38 -114 38h-184v103h187q92 0 92 32q0 20 -44.5 33t-113.5 13q-159 0 -267 -72l-3 2v117q113 62 266 62q135 0 213.5 -36.5t78.5 -99.5t-69 -96q88 -29 88 -108z M1189 722l3 -4l-564 -718h-149l-3 4l564 718h149zM1542 214v-102h-95v-112h-129v112h-401v82l413 277h117v-257h95zM1119 214h199v132z" />
<glyph unicode="&#xbf;" horiz-adv-x="878" d="M537 324h-186v166h186v-166zM828 110q0 -80 -82 -113q-68 -27 -278 -43q-21 -2 -82 -6q-89 -6 -122.5 -13.5t-33.5 -22.5q0 -31 143 -31q104 0 218.5 12t181.5 32l4 -2v-134q-158 -41 -371 -41q-187 0 -271.5 37t-84.5 124q0 20 4.5 37.5t15.5 31.5t22.5 25t33.5 20.5 t41 16.5t52.5 13t59 10t70 8.5t77 7.5t86.5 7q113 9 127 16q9 4 9 13q0 10 -15 16.5t-52 9.5t-102 3q-241 0 -409 -58l-4 2v137q156 53 378 53q200 0 292 -41t92 -127z" />
<glyph unicode="&#xc0;" horiz-adv-x="1093" d="M642 780h-158l-152 196l2 3h201l109 -196zM889 0l-85 145h-510l-90 -145h-204l460 722h196l437 -722h-204zM384 292h334l-162 277z" />
<glyph unicode="&#xc1;" horiz-adv-x="1093" d="M637 780h-158l-2 3l109 196h201l2 -3zM889 0l-85 145h-510l-90 -145h-204l460 722h196l437 -722h-204zM384 292h334l-162 277z" />
<glyph unicode="&#xc2;" horiz-adv-x="1093" d="M420 780h-210l-2 3l225 196h227l226 -196l-2 -3h-210l-127 108zM889 0l-85 145h-510l-90 -145h-204l460 722h196l437 -722h-204zM384 292h334l-162 277z" />
<glyph unicode="&#xc3;" horiz-adv-x="1093" d="M380 792h-130q-5 85 43.5 139t131.5 53q58 -1 145 -37t110 -36q24 0 37 17t11 47l3 2h130q2 -86 -42.5 -138t-121.5 -52q-56 0 -146 36t-113 36q-26 0 -41 -17t-14 -48zM889 0l-85 145h-510l-90 -145h-204l460 722h196l437 -722h-204zM384 292h334l-162 277z" />
<glyph unicode="&#xc4;" horiz-adv-x="1093" d="M478 966v-163h-208v163h208zM824 966v-163h-208v163h208zM889 0l-85 145h-510l-90 -145h-204l460 722h196l437 -722h-204zM384 292h334l-162 277z" />
<glyph unicode="&#xc5;" horiz-adv-x="1093" d="M547 749q-86 0 -137.5 37.5t-51.5 100.5t51.5 100.5t137.5 37.5t137.5 -37.5t51.5 -100.5t-51.5 -100.5t-137.5 -37.5zM547 937q-37 0 -57 -13.5t-20 -36.5t20 -36.5t57 -13.5t57 13.5t20 36.5t-20 36.5t-57 13.5zM889 0l-85 145h-510l-90 -145h-204l460 722h196 l437 -722h-204zM384 292h334l-162 277z" />
<glyph unicode="&#xc6;" horiz-adv-x="1794" d="M1050 575v-142h650v-143h-650v-143h694v-147h-884v153h-479l-146 -153h-235l700 722h1044v-147h-694zM520 300h340v275h-78z" />
<glyph unicode="&#xc7;" horiz-adv-x="1103" d="M611 592q-185 0 -283 -60t-98 -168q0 -107 97.5 -166.5t283.5 -59.5q200 0 406 111l5 -1v-162q-160 -83 -339 -95l-98 -177h-184l-2 4l118 173q-227 16 -352 113.5t-125 260.5q0 178 146.5 277.5t406.5 99.5q240 0 430 -98v-162l-6 -1q-203 111 -406 111z" />
<glyph unicode="&#xc8;" horiz-adv-x="1014" d="M633 780h-158l-152 196l2 3h201l109 -196zM964 575h-694v-142h650v-143h-650v-143h694v-147h-884v722h884v-147z" />
<glyph unicode="&#xc9;" horiz-adv-x="1014" d="M565 780h-158l-2 3l109 196h201l2 -3zM964 575h-694v-142h650v-143h-650v-143h694v-147h-884v722h884v-147z" />
<glyph unicode="&#xca;" horiz-adv-x="1014" d="M394 780h-210l-2 3l225 196h227l226 -196l-2 -3h-210l-127 108zM964 575h-694v-142h650v-143h-650v-143h694v-147h-884v722h884v-147z" />
<glyph unicode="&#xcb;" horiz-adv-x="1014" d="M453 966v-163h-208v163h208zM799 966v-163h-208v163h208zM964 575h-694v-142h650v-143h-650v-143h694v-147h-884v722h884v-147z" />
<glyph unicode="&#xcc;" horiz-adv-x="350" d="M267 783l-2 -3h-158l-152 196l2 3h201zM80 722h190v-722h-190v722z" />
<glyph unicode="&#xcd;" horiz-adv-x="350" d="M91 783l109 196h201l2 -3l-152 -196h-158zM80 722h190v-722h-190v722z" />
<glyph unicode="&#xce;" horiz-adv-x="350" d="M287 979l226 -196l-2 -3h-210l-127 108l-127 -108h-210l-2 3l225 196h227zM80 0v722h190v-722h-190z" />
<glyph unicode="&#xcf;" horiz-adv-x="350" d="M-102 966h208v-163h-208v163zM244 966h208v-163h-208v163zM80 722h190v-722h-190v722z" />
<glyph unicode="&#xd0;" horiz-adv-x="1154" d="M811 940v-126h-562v126h562zM592 722q245 0 383.5 -95t138.5 -266q0 -170 -137.5 -265.5t-377.5 -95.5h-519v722h512zM583 150q170 0 254 50.5t84 160.5t-84 160.5t-254 50.5h-313v-422h313z" />
<glyph unicode="&#xd1;" horiz-adv-x="1171" d="M411 792h-130q-5 85 43.5 139t131.5 53q58 -1 145 -37t110 -36q24 0 36.5 17t11.5 47l3 2h130q2 -86 -42.5 -138t-121.5 -52q-56 0 -146 36t-113 36q-26 0 -41 -17t-14 -48zM901 722h190v-722h-220l-601 513v-513h-190v722h200l621 -528v528z" />
<glyph unicode="&#xd2;" horiz-adv-x="1206" d="M709 783l-2 -3h-158l-152 196l2 3h201zM40 365q0 178 148.5 277.5t414.5 99.5t414.5 -99.5t148.5 -277.5t-148.5 -277.5t-414.5 -99.5t-414.5 99.5t-148.5 277.5zM976 365q0 107 -97 167t-276 60t-276 -60t-97 -167t97 -167t276 -60t276 60t97 167z" />
<glyph unicode="&#xd3;" horiz-adv-x="1206" d="M509 783l109 196h201l2 -3l-152 -196h-158zM40 365q0 178 148.5 277.5t414.5 99.5t414.5 -99.5t148.5 -277.5t-148.5 -277.5t-414.5 -99.5t-414.5 99.5t-148.5 277.5zM976 365q0 107 -97 167t-276 60t-276 -60t-97 -167t97 -167t276 -60t276 60t97 167z" />
<glyph unicode="&#xd4;" horiz-adv-x="1206" d="M475 780h-210l-2 3l225 196h227l226 -196l-2 -3h-210l-127 108zM603 742q266 0 414.5 -99.5t148.5 -277.5t-148.5 -277.5t-414.5 -99.5t-414.5 99.5t-148.5 277.5t148.5 277.5t414.5 99.5zM603 138q179 0 276 60t97 167t-97 167t-276 60t-276 -60t-97 -167t97 -167 t276 -60z" />
<glyph unicode="&#xd5;" horiz-adv-x="1206" d="M486 859q-26 0 -41 -17t-14 -48l-3 -2h-130q-5 85 43.5 139t131.5 53q58 -1 145 -37t110 -36q24 0 37 17t11 47l3 2h130q2 -86 -42.5 -138t-121.5 -52q-56 0 -146 36t-113 36zM40 365q0 178 148.5 277.5t414.5 99.5t414.5 -99.5t148.5 -277.5t-148.5 -277.5t-414.5 -99.5 t-414.5 99.5t-148.5 277.5zM976 365q0 107 -97 167t-276 60t-276 -60t-97 -167t97 -167t276 -60t276 60t97 167z" />
<glyph unicode="&#xd6;" horiz-adv-x="950" d="M179 722h228v-141h-228v141zM545 722h228v-141h-228v141zM40 274q0 134 116.5 210.5t318.5 76.5t318.5 -76.5t116.5 -210.5q0 -133 -116.5 -209.5t-318.5 -76.5t-318.5 76.5t-116.5 209.5zM720 274q0 70 -64.5 108.5t-180.5 38.5t-180.5 -38.5t-64.5 -108.5 q0 -69 64.5 -107.5t180.5 -38.5t180.5 38.5t64.5 107.5z" />
<glyph unicode="&#xd7;" horiz-adv-x="653" d="M603 546l-178 -178l178 -179l-98 -98l-178 179l-179 -179l-98 98l179 179l-179 178l98 98l179 -178l178 178z" />
<glyph unicode="&#xd8;" horiz-adv-x="1206" d="M603 742q266 0 414.5 -99.5t148.5 -277.5t-148.5 -277.5t-414.5 -99.5t-414.5 99.5t-148.5 277.5t148.5 277.5t414.5 99.5zM603 592q-179 0 -276 -60t-97 -167q0 -92 71 -149l473 358q-74 18 -171 18zM603 138q179 0 276 60t97 167q0 92 -70 148l-473 -357 q73 -18 170 -18z" />
<glyph unicode="&#xd9;" horiz-adv-x="1058" d="M644 783l-2 -3h-158l-152 196l2 3h201zM80 391v331h190v-345q0 -239 259 -239t259 239v345h190v-331q0 -403 -449 -403t-449 403z" />
<glyph unicode="&#xda;" horiz-adv-x="1058" d="M428 783l109 196h201l2 -3l-152 -196h-158zM80 391v331h190v-345q0 -239 259 -239t259 239v345h190v-331q0 -403 -449 -403t-449 403z" />
<glyph unicode="&#xdb;" horiz-adv-x="1058" d="M401 780h-210l-2 3l225 196h227l226 -196l-2 -3h-210l-127 108zM788 722h190v-331q0 -403 -449 -403t-449 403v331h190v-345q0 -239 259 -239t259 239v345z" />
<glyph unicode="&#xdc;" horiz-adv-x="1058" d="M252 966h208v-163h-208v163zM598 966h208v-163h-208v163zM80 391v331h190v-345q0 -239 259 -239t259 239v345h190v-331q0 -403 -449 -403t-449 403z" />
<glyph unicode="&#xdd;" horiz-adv-x="1038" d="M584 780h-158l-2 3l109 196h201l2 -3zM1035 722l3 -4l-424 -470v-248h-190v248l-424 470l3 4h217l299 -339l300 339h216z" />
<glyph unicode="&#xde;" horiz-adv-x="1036" d="M612 612q187 0 285.5 -64.5t98.5 -186.5t-97.5 -186.5t-281.5 -64.5h-347v-110h-190v722h190v-110h342zM607 260q103 0 149.5 21.5t46.5 79.5t-46.5 79.5t-149.5 21.5h-337v-202h337z" />
<glyph unicode="&#xdf;" horiz-adv-x="1064" d="M340 33v146l6 2q84 -32 150.5 -45t151.5 -13q91 0 143.5 28.5t52.5 78.5q0 100 -194 100h-132v129h36q102 0 141 20t39 63q0 88 -210 88q-130 0 -199.5 -54t-69.5 -154v-422h-185v433q0 167 119.5 251t346.5 84q191 0 287 -54.5t96 -156.5q0 -48 -24 -85t-68 -57 q202 -38 202 -195q0 -109 -105 -170.5t-276 -61.5q-140 0 -308 45z" />
<glyph unicode="&#xe0;" d="M610 642h-156l-171 210l2 3h205l122 -210zM722 573h185v-573h-185v73q-99 -85 -289 -85q-184 0 -291 77.5t-107 214.5q0 139 107 222t284 83q192 0 296 -98v86zM471 123q121 0 186 42.5t65 121.5t-65 121t-186 42t-186 -42t-65 -121t65 -121.5t186 -42.5z" />
<glyph unicode="&#xe1;" d="M541 642h-156l-2 3l122 210h205l2 -3zM722 573h185v-573h-185v73q-99 -85 -289 -85q-184 0 -291 77.5t-107 214.5q0 139 107 222t284 83q192 0 296 -98v86zM471 123q121 0 186 42.5t65 121.5t-65 121t-186 42t-186 -42t-65 -121t65 -121.5t186 -42.5z" />
<glyph unicode="&#xe2;" d="M351 642h-189l-2 3l224 210h228l224 -209l-2 -4h-187l-148 130zM722 573h185v-573h-185v73q-99 -85 -289 -85q-184 0 -291 77.5t-107 214.5q0 139 107 222t284 83q192 0 296 -98v86zM471 123q121 0 186 42.5t65 121.5t-65 121t-186 42t-186 -42t-65 -121t65 -121.5 t186 -42.5z" />
<glyph unicode="&#xe3;" d="M312 654h-134q-5 83 45 135.5t136 51.5q61 0 150.5 -37t113.5 -37q25 0 38.5 17.5t11.5 47.5l3 2h134q2 -84 -44 -134.5t-126 -50.5q-58 0 -150.5 37t-116.5 37q-26 0 -42.5 -18.5t-15.5 -48.5zM722 573h185v-573h-185v73q-99 -85 -289 -85q-184 0 -291 77.5t-107 214.5 q0 139 107 222t284 83q192 0 296 -98v86zM471 123q121 0 186 42.5t65 121.5t-65 121t-186 42t-186 -42t-65 -121t65 -121.5t186 -42.5z" />
<glyph unicode="&#xe4;" d="M424 798v-156h-213v156h213zM771 798v-156h-213v156h213zM722 573h185v-573h-185v73q-99 -85 -289 -85q-184 0 -291 77.5t-107 214.5q0 139 107 222t284 83q192 0 296 -98v86zM471 123q121 0 186 42.5t65 121.5t-65 121t-186 42t-186 -42t-65 -121t65 -121.5t186 -42.5z " />
<glyph unicode="&#xe5;" d="M471 621q-99 0 -154 35.5t-55 96.5t54.5 95.5t154.5 34.5t154.5 -34.5t54.5 -95.5t-55 -96.5t-154 -35.5zM471 803q-40 0 -63.5 -14.5t-23.5 -35.5q0 -22 23.5 -37t63.5 -15t63.5 15t23.5 37q0 21 -23.5 35.5t-63.5 14.5zM722 573h185v-573h-185v73q-99 -85 -289 -85 q-184 0 -291 77.5t-107 214.5q0 139 107 222t284 83q192 0 296 -98v86zM471 123q121 0 186 42.5t65 121.5t-65 121t-186 42t-186 -42t-65 -121t65 -121.5t186 -42.5z" />
<glyph unicode="&#xe6;" horiz-adv-x="1550" d="M1515 286v-37h-653q30 -118 268 -118q106 0 183 23.5t152 74.5l4 -3v-160q-152 -78 -344 -78q-255 0 -367 118q-122 -118 -383 -118q-163 0 -251.5 48.5t-88.5 138.5q0 88 89.5 138t280.5 50h269v3q0 84 -212 84q-211 0 -368 -98l-3 2v155q161 76 375 76q240 0 322 -101 q123 101 318 101q188 0 298.5 -79.5t110.5 -219.5zM1102 457q-180 0 -237 -98h469q-51 98 -232 98zM377 123q134 0 215 34t82 92h-250q-203 0 -203 -67q0 -59 156 -59z" />
<glyph unicode="&#xe7;" horiz-adv-x="881" d="M472 442q-123 0 -187.5 -40t-64.5 -116t64.5 -115.5t187.5 -39.5q188 0 335 103l4 -1v-167q-117 -61 -253 -74l-99 -178h-184l-2 4l118 174q-168 16 -262 94t-94 200q0 137 116.5 218t320.5 81q187 0 339 -78v-168l-4 -1q-150 104 -335 104z" />
<glyph unicode="&#xe8;" horiz-adv-x="911" d="M557 642h-156l-171 210l2 3h205l122 -210zM876 286v-37h-653q30 -118 266 -118q108 0 185 23.5t152 74.5l4 -3v-160q-152 -78 -344 -78q-215 0 -333 81t-118 219q0 137 115 217t311 80q193 0 304 -79.5t111 -219.5zM463 457q-180 0 -237 -98h469q-51 98 -232 98z" />
<glyph unicode="&#xe9;" horiz-adv-x="911" d="M540 642h-156l-2 3l122 210h205l2 -3zM876 286v-37h-653q30 -118 266 -118q108 0 185 23.5t152 74.5l4 -3v-160q-152 -78 -344 -78q-215 0 -333 81t-118 219q0 137 115 217t311 80q193 0 304 -79.5t111 -219.5zM463 457q-180 0 -237 -98h469q-51 98 -232 98z" />
<glyph unicode="&#xea;" horiz-adv-x="911" d="M320 642h-189l-2 3l224 210h228l224 -209l-2 -4h-187l-148 130zM876 286v-37h-653q30 -118 266 -118q108 0 185 23.5t152 74.5l4 -3v-160q-152 -78 -344 -78q-215 0 -333 81t-118 219q0 137 115 217t311 80q193 0 304 -79.5t111 -219.5zM463 457q-180 0 -237 -98h469 q-51 98 -232 98z" />
<glyph unicode="&#xeb;" horiz-adv-x="911" d="M397 798v-156h-213v156h213zM744 798v-156h-213v156h213zM876 286v-37h-653q30 -118 266 -118q108 0 185 23.5t152 74.5l4 -3v-160q-152 -78 -344 -78q-215 0 -333 81t-118 219q0 137 115 217t311 80q193 0 304 -79.5t111 -219.5zM463 457q-180 0 -237 -98h469 q-51 98 -232 98z" />
<glyph unicode="&#xec;" horiz-adv-x="325" d="M248 645l-2 -3h-156l-171 210l2 3h205zM70 573h185v-573h-185v573z" />
<glyph unicode="&#xed;" horiz-adv-x="325" d="M77 645l122 210h205l2 -3l-171 -210h-156zM70 573h185v-573h-185v573z" />
<glyph unicode="&#xee;" horiz-adv-x="325" d="M275 855l224 -209l-2 -4h-187l-148 130l-148 -130h-189l-2 3l224 210h228zM70 0v573h185v-573h-185z" />
<glyph unicode="&#xef;" horiz-adv-x="325" d="M-117 798h213v-156h-213v156zM230 798h213v-156h-213v156zM70 573h185v-573h-185v573z" />
<glyph unicode="&#xf0;" horiz-adv-x="945" d="M770 615q140 -131 140 -317q0 -310 -430 -310q-208 0 -326.5 71t-118.5 203q0 119 98.5 185t274.5 66q96 0 177 -19t126 -52q-20 74 -127 150l-293 -37l-9 74l194 24q-88 41 -187 62v7h292q51 -16 101 -43l209 26l10 -74zM486 123q122 0 184.5 34t62.5 96q0 64 -67 98.5 t-192 34.5q-123 0 -188.5 -33t-65.5 -94q0 -64 70.5 -100t195.5 -36z" />
<glyph unicode="&#xf1;" horiz-adv-x="957" d="M310 654h-134q-5 83 45 135.5t136 51.5q61 0 150.5 -37t113.5 -37q25 0 38.5 17.5t11.5 47.5l3 2h134q2 -84 -44 -134.5t-126 -50.5q-58 0 -150.5 37t-116.5 37q-26 0 -42.5 -18.5t-15.5 -48.5zM544 585q169 0 258.5 -76.5t89.5 -220.5v-288h-185v240q0 112 -50 161 t-159 49q-243 0 -243 -247v-203h-185v573h185v-93q99 105 289 105z" />
<glyph unicode="&#xf2;" horiz-adv-x="942" d="M564 645l-2 -3h-156l-171 210l2 3h205zM35 286q0 137 116.5 218t318.5 81t319.5 -81t117.5 -218q0 -136 -117.5 -217t-319.5 -81t-318.5 80.5t-116.5 217.5zM722 286q0 80 -64.5 122t-187.5 42q-121 0 -185.5 -42t-64.5 -122t64.5 -121.5t185.5 -41.5q123 0 187.5 41.5 t64.5 121.5z" />
<glyph unicode="&#xf3;" horiz-adv-x="942" d="M379 645l122 210h205l2 -3l-171 -210h-156zM35 286q0 137 116.5 218t318.5 81t319.5 -81t117.5 -218q0 -136 -117.5 -217t-319.5 -81t-318.5 80.5t-116.5 217.5zM722 286q0 80 -64.5 122t-187.5 42q-121 0 -185.5 -42t-64.5 -122t64.5 -121.5t185.5 -41.5 q123 0 187.5 41.5t64.5 121.5z" />
<glyph unicode="&#xf4;" horiz-adv-x="942" d="M322 642h-189l-2 3l224 210h228l224 -209l-2 -4h-187l-148 130zM470 585q202 0 319.5 -81t117.5 -218q0 -136 -117.5 -217t-319.5 -81t-318.5 80.5t-116.5 217.5t116.5 218t318.5 81zM470 123q123 0 187.5 41.5t64.5 121.5t-64.5 122t-187.5 42q-121 0 -185.5 -42 t-64.5 -122t64.5 -121.5t185.5 -41.5z" />
<glyph unicode="&#xf5;" horiz-adv-x="942" d="M350 723q-26 0 -42.5 -18.5t-15.5 -48.5l-3 -2h-134q-5 83 45 135.5t136 51.5q61 0 150.5 -37t113.5 -37q25 0 38.5 17.5t11.5 47.5l3 2h134q2 -84 -44 -134.5t-126 -50.5q-58 0 -150.5 37t-116.5 37zM35 286q0 137 116.5 218t318.5 81t319.5 -81t117.5 -218 q0 -136 -117.5 -217t-319.5 -81t-318.5 80.5t-116.5 217.5zM722 286q0 80 -64.5 122t-187.5 42q-121 0 -185.5 -42t-64.5 -122t64.5 -121.5t185.5 -41.5q123 0 187.5 41.5t64.5 121.5z" />
<glyph unicode="&#xf6;" horiz-adv-x="942" d="M191 798h213v-156h-213v156zM538 798h213v-156h-213v156zM35 286q0 137 116.5 218t318.5 81t319.5 -81t117.5 -218q0 -136 -117.5 -217t-319.5 -81t-318.5 80.5t-116.5 217.5zM722 286q0 80 -64.5 122t-187.5 42q-121 0 -185.5 -42t-64.5 -122t64.5 -121.5t185.5 -41.5 q123 0 187.5 41.5t64.5 121.5z" />
<glyph unicode="&#xf7;" horiz-adv-x="920" d="M375 636h170v-152h-170v152zM50 425h820v-128h-820v128zM375 238h170v-152h-170v152z" />
<glyph unicode="&#xf8;" horiz-adv-x="942" d="M470 585q202 0 319.5 -81t117.5 -218q0 -136 -117.5 -217t-319.5 -81t-318.5 80.5t-116.5 217.5t116.5 218t318.5 81zM470 450q-121 0 -185.5 -42t-64.5 -122q0 -60 38 -100l312 255q-44 9 -100 9zM470 123q123 0 187.5 41.5t64.5 121.5q0 62 -39 101l-311 -255 q43 -9 98 -9z" />
<glyph unicode="&#xf9;" horiz-adv-x="957" d="M589 642h-156l-171 210l2 3h205l122 -210zM702 573h185v-573h-185v88q-105 -100 -291 -100q-167 0 -256.5 83.5t-89.5 237.5v264h185v-238q0 -108 51.5 -160t158.5 -52q242 0 242 255v195z" />
<glyph unicode="&#xfa;" horiz-adv-x="957" d="M531 642h-156l-2 3l122 210h205l2 -3zM702 573h185v-573h-185v88q-105 -100 -291 -100q-167 0 -256.5 83.5t-89.5 237.5v264h185v-238q0 -108 51.5 -160t158.5 -52q242 0 242 255v195z" />
<glyph unicode="&#xfb;" horiz-adv-x="957" d="M327 642h-189l-2 3l224 210h228l224 -209l-2 -4h-187l-148 130zM702 573h185v-573h-185v88q-105 -100 -291 -100q-167 0 -256.5 83.5t-89.5 237.5v264h185v-238q0 -108 51.5 -160t158.5 -52q242 0 242 255v195z" />
<glyph unicode="&#xfc;" horiz-adv-x="957" d="M409 798v-156h-213v156h213zM756 798v-156h-213v156h213zM702 573h185v-573h-185v88q-105 -100 -291 -100q-167 0 -256.5 83.5t-89.5 237.5v264h185v-238q0 -108 51.5 -160t158.5 -52q242 0 242 255v195z" />
<glyph unicode="&#xfd;" horiz-adv-x="913" d="M518 642h-156l-2 3l122 210h205l2 -3zM910 573l3 -4l-418 -670q-50 -81 -114 -116t-165 -35h-42v135l6 4h20q67 0 98.5 19t64.5 74l12 20h-1l-374 569l3 4h206l258 -402l249 402h194z" />
<glyph unicode="&#xfe;" d="M551 585q177 0 284 -83t107 -222q0 -137 -107 -214.5t-291 -77.5q-190 0 -289 85v-305h-185v954h185v-235q104 98 296 98zM506 123q121 0 186 42.5t65 121.5t-65 121t-186 42t-186 -42t-65 -121t65 -121.5t186 -42.5z" />
<glyph unicode="&#xff;" horiz-adv-x="913" d="M399 798v-156h-213v156h213zM746 798v-156h-213v156h213zM910 573l3 -4l-418 -670q-50 -81 -114 -116t-165 -35h-42v135l6 4h20q67 0 98.5 19t64.5 74l12 20h-1l-374 569l3 4h206l258 -402l249 402h194z" />
<glyph unicode="&#x100;" horiz-adv-x="1093" d="M828 940v-126h-562v126h562zM889 0l-85 145h-510l-90 -145h-204l460 722h196l437 -722h-204zM384 292h334l-162 277z" />
<glyph unicode="&#x101;" d="M781 776v-123h-566v123h566zM722 573h185v-573h-185v73q-99 -85 -289 -85q-184 0 -291 77.5t-107 214.5q0 139 107 222t284 83q192 0 296 -98v86zM471 123q121 0 186 42.5t65 121.5t-65 121t-186 42t-186 -42t-65 -121t65 -121.5t186 -42.5z" />
<glyph unicode="&#x102;" horiz-adv-x="1093" d="M547 775q-137 0 -206 54.5t-72 149.5h154l3 -3q4 -38 36 -61t85 -23t85 23t36 61l3 3h154q-3 -95 -72 -149.5t-206 -54.5zM889 0l-85 145h-510l-90 -145h-204l460 722h196l437 -722h-204zM384 292h334l-162 277z" />
<glyph unicode="&#x103;" d="M503 631q-143 0 -221.5 59t-78.5 165h147l3 -3q1 -113 150 -113t150 113l3 3h147q0 -106 -78.5 -165t-221.5 -59zM722 573h185v-573h-185v73q-99 -85 -289 -85q-184 0 -291 77.5t-107 214.5q0 139 107 222t284 83q192 0 296 -98v86zM471 123q121 0 186 42.5t65 121.5 t-65 121t-186 42t-186 -42t-65 -121t65 -121.5t186 -42.5z" />
<glyph unicode="&#x104;" horiz-adv-x="1093" d="M992 -155q52 0 97 15l4 -1v-99q-42 -12 -116 -12q-214 0 -214 107q0 45 38.5 78.5t123.5 66.5h-36l-85 145h-510l-90 -145h-204l460 722h196l437 -722q-178 -58 -178 -117q0 -38 77 -38zM384 292h334l-162 277z" />
<glyph unicode="&#x105;" d="M907 0q-178 -58 -178 -117q0 -38 77 -38q52 0 97 15l4 -1v-99q-42 -12 -116 -12q-214 0 -214 107q0 45 38.5 78.5t123.5 66.5h-17v73q-99 -85 -289 -85q-184 0 -291 77.5t-107 214.5q0 139 107 222t284 83q192 0 296 -98v86h185v-573zM471 123q121 0 186 42.5t65 121.5 t-65 121t-186 42t-186 -42t-65 -121t65 -121.5t186 -42.5z" />
<glyph unicode="&#x106;" horiz-adv-x="1103" d="M482 783l109 196h201l2 -3l-152 -196h-158zM40 365q0 178 146.5 277.5t406.5 99.5q240 0 430 -98v-162l-6 -1q-203 111 -406 111q-185 0 -283 -60t-98 -168q0 -107 97.5 -166.5t283.5 -59.5q200 0 406 111l5 -1v-162q-191 -98 -418 -98q-266 0 -415 99.5t-149 277.5z" />
<glyph unicode="&#x107;" horiz-adv-x="881" d="M384 645l122 210h205l2 -3l-171 -210h-156zM35 286q0 137 116.5 218t320.5 81q187 0 339 -78v-168l-4 -1q-150 104 -335 104q-123 0 -187.5 -40t-64.5 -116t64.5 -115.5t187.5 -39.5q188 0 335 103l4 -1v-167q-152 -78 -339 -78q-204 0 -320.5 80.5t-116.5 217.5z" />
<glyph unicode="&#x108;" horiz-adv-x="1103" d="M462 780h-210l-2 3l225 196h227l226 -196l-2 -3h-210l-127 108zM611 592q-185 0 -283 -60t-98 -168q0 -107 97.5 -166.5t283.5 -59.5q200 0 406 111l5 -1v-162q-191 -98 -418 -98q-266 0 -415 99.5t-149 277.5t146.5 277.5t406.5 99.5q240 0 430 -98v-162l-6 -1 q-203 111 -406 111z" />
<glyph unicode="&#x109;" horiz-adv-x="881" d="M313 642h-189l-2 3l224 210h228l224 -209l-2 -4h-187l-148 130zM472 442q-123 0 -187.5 -40t-64.5 -116t64.5 -115.5t187.5 -39.5q188 0 335 103l4 -1v-167q-152 -78 -339 -78q-204 0 -320.5 80.5t-116.5 217.5t116.5 218t320.5 81q187 0 339 -78v-168l-4 -1 q-150 104 -335 104z" />
<glyph unicode="&#x10a;" horiz-adv-x="1103" d="M486 966h208v-163h-208v163zM40 365q0 178 146.5 277.5t406.5 99.5q240 0 430 -98v-162l-6 -1q-203 111 -406 111q-185 0 -283 -60t-98 -168q0 -107 97.5 -166.5t283.5 -59.5q200 0 406 111l5 -1v-162q-191 -98 -418 -98q-266 0 -415 99.5t-149 277.5z" />
<glyph unicode="&#x10b;" horiz-adv-x="881" d="M356 798h213v-156h-213v156zM35 286q0 137 116.5 218t320.5 81q187 0 339 -78v-168l-4 -1q-150 104 -335 104q-123 0 -187.5 -40t-64.5 -116t64.5 -115.5t187.5 -39.5q188 0 335 103l4 -1v-167q-152 -78 -339 -78q-204 0 -320.5 80.5t-116.5 217.5z" />
<glyph unicode="&#x10c;" horiz-adv-x="1103" d="M693 780h-207l-245 196l2 3h220l127 -108l127 108h220l2 -3zM611 592q-185 0 -283 -60t-98 -168q0 -107 97.5 -166.5t283.5 -59.5q200 0 406 111l5 -1v-162q-191 -98 -418 -98q-266 0 -415 99.5t-149 277.5t146.5 277.5t406.5 99.5q240 0 430 -98v-162l-6 -1 q-203 111 -406 111z" />
<glyph unicode="&#x10d;" horiz-adv-x="881" d="M551 642h-179l-255 210l2 3h212l131 -120l130 120h210l2 -3zM472 442q-123 0 -187.5 -40t-64.5 -116t64.5 -115.5t187.5 -39.5q188 0 335 103l4 -1v-167q-152 -78 -339 -78q-204 0 -320.5 80.5t-116.5 217.5t116.5 218t320.5 81q187 0 339 -78v-168l-4 -1 q-150 104 -335 104z" />
<glyph unicode="&#x10e;" horiz-adv-x="1154" d="M642 780h-207l-245 196l2 3h220l127 -108l127 108h220l2 -3zM592 722q245 0 383.5 -95t138.5 -266q0 -170 -137.5 -265.5t-377.5 -95.5h-519v722h512zM583 150q170 0 254 50.5t84 160.5t-84 160.5t-254 50.5h-313v-422h313z" />
<glyph unicode="&#x10f;" horiz-adv-x="1126" d="M722 487v235h185v-722h-185v73q-99 -85 -289 -85q-184 0 -291 77.5t-107 214.5q0 139 107 222t284 83q192 0 296 -98zM961 722h165l-32 -279h-133v279zM471 123q121 0 186 42.5t65 121.5t-65 121t-186 42t-186 -42t-65 -121t65 -121.5t186 -42.5z" />
<glyph unicode="&#x110;" horiz-adv-x="1154" d="M592 722q245 0 383.5 -95t138.5 -266q0 -170 -137.5 -265.5t-377.5 -95.5h-519v298h-85v126h85v298h512zM583 150q170 0 254 50.5t84 160.5t-84 160.5t-254 50.5h-313v-148h287v-126h-287v-148h313z" />
<glyph unicode="&#x111;" d="M977 681v-70h-70v-611h-185v73q-99 -85 -289 -85q-184 0 -291 77.5t-107 214.5q0 139 107 222t284 83q192 0 296 -98v124h-286v70h286v41h185v-41h70zM471 123q121 0 186 42.5t65 121.5t-65 121t-186 42t-186 -42t-65 -121t65 -121.5t186 -42.5z" />
<glyph unicode="&#x112;" horiz-adv-x="1014" d="M803 940v-126h-562v126h562zM964 575h-694v-142h650v-143h-650v-143h694v-147h-884v722h884v-147z" />
<glyph unicode="&#x113;" horiz-adv-x="911" d="M747 776v-123h-566v123h566zM876 286v-37h-653q30 -118 266 -118q108 0 185 23.5t152 74.5l4 -3v-160q-152 -78 -344 -78q-215 0 -333 81t-118 219q0 137 115 217t311 80q193 0 304 -79.5t111 -219.5zM463 457q-180 0 -237 -98h469q-51 98 -232 98z" />
<glyph unicode="&#x114;" horiz-adv-x="1014" d="M522 775q-137 0 -206 54.5t-72 149.5h154l3 -3q4 -38 36 -61t85 -23t85 23t36 61l3 3h154q-3 -95 -72 -149.5t-206 -54.5zM964 575h-694v-142h650v-143h-650v-143h694v-147h-884v722h884v-147z" />
<glyph unicode="&#x115;" horiz-adv-x="911" d="M464 631q-143 0 -221.5 59t-78.5 165h147l3 -3q1 -113 150 -113t150 113l3 3h147q0 -106 -78.5 -165t-221.5 -59zM876 286v-37h-653q30 -118 266 -118q108 0 185 23.5t152 74.5l4 -3v-160q-152 -78 -344 -78q-215 0 -333 81t-118 219q0 137 115 217t311 80 q193 0 304 -79.5t111 -219.5zM463 457q-180 0 -237 -98h469q-51 98 -232 98z" />
<glyph unicode="&#x116;" horiz-adv-x="1014" d="M626 966v-163h-208v163h208zM964 575h-694v-142h650v-143h-650v-143h694v-147h-884v722h884v-147z" />
<glyph unicode="&#x117;" horiz-adv-x="911" d="M571 798v-156h-213v156h213zM876 286v-37h-653q30 -118 266 -118q108 0 185 23.5t152 74.5l4 -3v-160q-152 -78 -344 -78q-215 0 -333 81t-118 219q0 137 115 217t311 80q193 0 304 -79.5t111 -219.5zM463 457q-180 0 -237 -98h469q-51 98 -232 98z" />
<glyph unicode="&#x118;" horiz-adv-x="1014" d="M964 575h-694v-142h650v-143h-650v-143h694v-147q-178 -58 -178 -117q0 -38 77 -38q52 0 97 15l4 -1v-99q-42 -12 -116 -12q-214 0 -214 107q0 45 38.5 78.5t123.5 66.5h-716v722h884v-147z" />
<glyph unicode="&#x119;" horiz-adv-x="911" d="M876 286v-37h-653q30 -118 266 -118q108 0 185 23.5t152 74.5l4 -3v-160q-60 -38 -90.5 -60t-59 -54t-28.5 -60q0 -43 70 -43q63 0 104 33l4 -1v-104q-37 -29 -117 -29q-94 0 -147 30.5t-53 83.5q0 77 122 138q-69 -12 -149 -12q-215 0 -333 81t-118 219q0 137 115 217 t311 80q193 0 304 -79.5t111 -219.5zM463 457q-180 0 -237 -98h469q-51 98 -232 98z" />
<glyph unicode="&#x11a;" horiz-adv-x="1014" d="M625 780h-207l-245 196l2 3h220l127 -108l127 108h220l2 -3zM964 575h-694v-142h650v-143h-650v-143h694v-147h-884v722h884v-147z" />
<glyph unicode="&#x11b;" horiz-adv-x="911" d="M553 642h-179l-255 210l2 3h212l131 -120l130 120h210l2 -3zM876 286v-37h-653q30 -118 266 -118q108 0 185 23.5t152 74.5l4 -3v-160q-152 -78 -344 -78q-215 0 -333 81t-118 219q0 137 115 217t311 80q193 0 304 -79.5t111 -219.5zM463 457q-180 0 -237 -98h469 q-51 98 -232 98z" />
<glyph unicode="&#x11c;" horiz-adv-x="1103" d="M462 780h-210l-2 3l225 196h227l226 -196l-2 -3h-210l-127 108zM611 592q-185 0 -283 -60t-98 -168q0 -107 97.5 -166.5t283.5 -59.5q109 0 221 33v199h190v-284q-191 -98 -418 -98q-266 0 -415 99.5t-149 277.5t146.5 277.5t406.5 99.5q240 0 430 -98v-162l-6 -1 q-203 111 -406 111z" />
<glyph unicode="&#x11d;" d="M324 642h-189l-2 3l224 210h228l224 -209l-2 -4h-187l-148 130zM722 573h185v-496q-3 -171 -119 -250t-343 -79q-209 0 -355 78v166l5 2q159 -110 356 -110q130 0 200 44t71 126v19q-99 -85 -289 -85q-184 0 -291 77.5t-107 214.5q0 139 107 222t284 83q192 0 296 -98v86 zM471 123q121 0 186 42.5t65 121.5t-65 121t-186 42t-186 -42t-65 -121t65 -121.5t186 -42.5z" />
<glyph unicode="&#x11e;" horiz-adv-x="1103" d="M590 775q-137 0 -206 54.5t-72 149.5h154l3 -3q4 -38 36 -61t85 -23t85 23t36 61l3 3h154q-3 -95 -72 -149.5t-206 -54.5zM611 592q-185 0 -283 -60t-98 -168q0 -107 97.5 -166.5t283.5 -59.5q109 0 221 33v199h190v-284q-191 -98 -418 -98q-266 0 -415 99.5t-149 277.5 t146.5 277.5t406.5 99.5q240 0 430 -98v-162l-6 -1q-203 111 -406 111z" />
<glyph unicode="&#x11f;" d="M471 631q-143 0 -221.5 59t-78.5 165h147l3 -3q1 -113 150 -113t150 113l3 3h147q0 -106 -78.5 -165t-221.5 -59zM722 573h185v-496q-3 -171 -119 -250t-343 -79q-209 0 -355 78v166l5 2q159 -110 356 -110q130 0 200 44t71 126v19q-99 -85 -289 -85q-184 0 -291 77.5 t-107 214.5q0 139 107 222t284 83q192 0 296 -98v86zM471 123q121 0 186 42.5t65 121.5t-65 121t-186 42t-186 -42t-65 -121t65 -121.5t186 -42.5z" />
<glyph unicode="&#x120;" horiz-adv-x="1103" d="M694 966v-163h-208v163h208zM611 592q-185 0 -283 -60t-98 -168q0 -107 97.5 -166.5t283.5 -59.5q109 0 221 33v199h190v-284q-191 -98 -418 -98q-266 0 -415 99.5t-149 277.5t146.5 277.5t406.5 99.5q240 0 430 -98v-162l-6 -1q-203 111 -406 111z" />
<glyph unicode="&#x121;" d="M578 798v-156h-213v156h213zM722 573h185v-496q-3 -171 -119 -250t-343 -79q-209 0 -355 78v166l5 2q159 -110 356 -110q130 0 200 44t71 126v19q-99 -85 -289 -85q-184 0 -291 77.5t-107 214.5q0 139 107 222t284 83q192 0 296 -98v86zM471 123q121 0 186 42.5t65 121.5 t-65 121t-186 42t-186 -42t-65 -121t65 -121.5t186 -42.5z" />
<glyph unicode="&#x122;" horiz-adv-x="1103" d="M611 592q-185 0 -283 -60t-98 -168q0 -107 97.5 -166.5t283.5 -59.5q109 0 221 33v199h190v-284q-191 -98 -418 -98q-266 0 -415 99.5t-149 277.5t146.5 277.5t406.5 99.5q240 0 430 -98v-162l-6 -1q-203 111 -406 111zM495 -198v150h169v-123l-89 -154h-64l32 127h-48z " />
<glyph unicode="&#x123;" d="M570 781v-150h-169v123l89 154h64l-32 -127h48zM722 573h185v-496q-3 -171 -119 -250t-343 -79q-209 0 -355 78v166l5 2q159 -110 356 -110q130 0 200 44t71 126v19q-99 -85 -289 -85q-184 0 -291 77.5t-107 214.5q0 139 107 222t284 83q192 0 296 -98v86zM471 123 q121 0 186 42.5t65 121.5t-65 121t-186 42t-186 -42t-65 -121t65 -121.5t186 -42.5z" />
<glyph unicode="&#x124;" horiz-adv-x="1140" d="M443 780h-210l-2 3l225 196h227l226 -196l-2 -3h-210l-127 108zM870 722h190v-722h-190v286h-600v-286h-190v722h190v-286h600v286z" />
<glyph unicode="&#x125;" horiz-adv-x="957" d="M309 791l-148 130l-148 -130h-189l-2 3l224 210h228l224 -209l-2 -4h-187zM544 585q163 0 255.5 -79t92.5 -218v-288h-185v262q0 190 -211 190q-115 0 -178 -57.5t-63 -169.5v-225h-185v722h185v-237q105 100 289 100z" />
<glyph unicode="&#x126;" horiz-adv-x="1140" d="M1140 625v-102h-80v-523h-190v286h-600v-286h-190v523h-80v102h80v97h190v-97h600v97h190v-97h80zM870 436v87h-600v-87h600z" />
<glyph unicode="&#x127;" horiz-adv-x="957" d="M544 585q163 0 255.5 -79t92.5 -218v-288h-185v262q0 190 -211 190q-115 0 -178 -57.5t-63 -169.5v-225h-185v611h-109v70h109v41h185v-41h232v-70h-232v-126q105 100 289 100z" />
<glyph unicode="&#x128;" horiz-adv-x="350" d="M58 859q-26 0 -41 -17t-14 -48l-3 -2h-130q-5 85 43.5 139t131.5 53q58 -1 145 -37t110 -36q24 0 37 17t11 47l3 2h130q2 -86 -42.5 -138t-121.5 -52q-56 0 -146 36t-113 36zM80 722h190v-722h-190v722z" />
<glyph unicode="&#x129;" horiz-adv-x="325" d="M42 723q-26 0 -42.5 -18.5t-15.5 -48.5l-3 -2h-134q-5 83 45 135.5t136 51.5q61 0 150.5 -37t113.5 -37q25 0 38.5 17.5t11.5 47.5l3 2h134q2 -84 -44 -134.5t-126 -50.5q-58 0 -150.5 37t-116.5 37zM70 573h185v-573h-185v573z" />
<glyph unicode="&#x12a;" horiz-adv-x="350" d="M-106 940h562v-126h-562v126zM80 722h190v-722h-190v722z" />
<glyph unicode="&#x12b;" horiz-adv-x="325" d="M-30 776h386v-123h-386v123zM70 573h185v-573h-185v573z" />
<glyph unicode="&#x12c;" horiz-adv-x="350" d="M-103 979h154l3 -3q4 -38 36 -61t85 -23t85 23t36 61l3 3h154q-3 -95 -72 -149.5t-206 -54.5t-206 54.5t-72 149.5zM80 722h190v-722h-190v722z" />
<glyph unicode="&#x12d;" horiz-adv-x="325" d="M-137 855h147l3 -3q1 -113 150 -113t150 113l3 3h147q0 -106 -78.5 -165t-221.5 -59t-221.5 59t-78.5 165zM70 573h185v-573h-185v573z" />
<glyph unicode="&#x12e;" horiz-adv-x="350" d="M270 0q-178 -58 -178 -117q0 -38 77 -38q52 0 97 15l4 -1v-99q-42 -12 -116 -12q-214 0 -214 107q0 45 38.5 78.5t123.5 66.5h-22v722h190v-722z" />
<glyph unicode="&#x12f;" horiz-adv-x="325" d="M56 798h213v-156h-213v156zM70 0v573h185v-573q-178 -58 -178 -117q0 -38 77 -38q52 0 97 15l4 -1v-99q-42 -12 -116 -12q-214 0 -214 107q0 45 38.5 78.5t123.5 66.5h-17z" />
<glyph unicode="&#x130;" horiz-adv-x="350" d="M71 966h208v-163h-208v163zM80 722h190v-722h-190v722z" />
<glyph unicode="&#x131;" horiz-adv-x="325" d="M70 573h185v-573h-185v573z" />
<glyph unicode="&#x132;" horiz-adv-x="1026" d="M80 722h190v-722h-190v722zM400 18v158l6 3q74 -37 153 -37q102 0 149.5 53.5t47.5 162.5v364h190v-349q0 -385 -377 -385q-105 0 -169 30z" />
<glyph unicode="&#x133;" horiz-adv-x="645" d="M56 798h213v-156h-213v156zM381 798h213v-156h-213v156zM70 573h185v-573h-185v573zM250 -248v137l6 4q81 -7 110.5 22.5t29.5 122.5v535h184v-539q0 -137 -76 -211.5t-210 -74.5q-26 0 -44 4z" />
<glyph unicode="&#x134;" horiz-adv-x="706" d="M643 979l226 -196l-2 -3h-210l-127 108l-127 -108h-210l-2 3l225 196h227zM436 358v364h190v-349q0 -385 -377 -385q-105 0 -169 30v158l6 3q74 -37 153 -37q102 0 149.5 53.5t47.5 162.5z" />
<glyph unicode="&#x135;" horiz-adv-x="315" d="M269 855l224 -209l-2 -4h-187l-148 130l-148 -130h-189l-2 3l224 210h228zM66 38v535h184v-539q0 -137 -76 -211.5t-210 -74.5q-26 0 -44 4v137l6 4q81 -7 110.5 22.5t29.5 122.5z" />
<glyph unicode="&#x136;" horiz-adv-x="1037" d="M582 432l455 -428l-3 -4h-249l-350 333l-165 -110v-223h-190v722h190v-306l474 306h263l3 -4zM437 -198v150h169v-123l-89 -154h-64l32 127h-48z" />
<glyph unicode="&#x137;" horiz-adv-x="907" d="M507 334l400 -330l-3 -4h-252l-278 240l-119 -84v-156h-185v722h185v-384l339 235h243l3 -4zM348 -198v150h169v-123l-89 -154h-64l32 127h-48z" />
<glyph unicode="&#x139;" horiz-adv-x="984" d="M259 780h-158l-2 3l109 196h201l2 -3zM280 147h654v-147h-844v722h190v-575z" />
<glyph unicode="&#x13a;" horiz-adv-x="325" d="M79 794l122 210h205l2 -3l-171 -210h-156zM70 722h185v-722h-185v722z" />
<glyph unicode="&#x13b;" horiz-adv-x="984" d="M280 147h654v-147h-844v722h190v-575zM428 -198v150h169v-123l-89 -154h-64l32 127h-48z" />
<glyph unicode="&#x13c;" horiz-adv-x="325" d="M70 722h185v-722h-185v722zM79 -198v150h169v-123l-89 -154h-64l32 127h-48z" />
<glyph unicode="&#x13d;" horiz-adv-x="984" d="M280 147h654v-147h-844v722h190v-575zM499 722l-32 -279h-133v279h165z" />
<glyph unicode="&#x13e;" horiz-adv-x="474" d="M70 722h185v-722h-185v722zM309 722h165l-32 -279h-133v279z" />
<glyph unicode="&#x13f;" horiz-adv-x="984" d="M280 147h654v-147h-844v722h190v-575zM771 524v-179h-200v179h200z" />
<glyph unicode="&#x140;" horiz-adv-x="525" d="M70 722h185v-722h-185v722zM325 451h200v-179h-200v179z" />
<glyph unicode="&#x141;" horiz-adv-x="1039" d="M335 147h654v-147h-844v275l-180 -83l-5 1v157l185 85v287h190v-199l220 101l5 -1v-157l-225 -104v-215z" />
<glyph unicode="&#x142;" horiz-adv-x="325" d="M370 559v-141l-115 -72v-346h-185v229l-112 -70l-4 1v141l116 73v348h185v-232l111 70z" />
<glyph unicode="&#x143;" horiz-adv-x="1171" d="M644 780h-158l-2 3l109 196h201l2 -3zM901 722h190v-722h-220l-601 513v-513h-190v722h200l621 -528v528z" />
<glyph unicode="&#x144;" horiz-adv-x="957" d="M548 642h-156l-2 3l122 210h205l2 -3zM544 585q169 0 258.5 -76.5t89.5 -220.5v-288h-185v240q0 112 -50 161t-159 49q-243 0 -243 -247v-203h-185v573h185v-93q99 105 289 105z" />
<glyph unicode="&#x145;" horiz-adv-x="1171" d="M901 722h190v-722h-220l-601 513v-513h-190v722h200l621 -528v528zM502 -198v150h169v-123l-89 -154h-64l32 127h-48z" />
<glyph unicode="&#x146;" horiz-adv-x="957" d="M544 585q169 0 258.5 -76.5t89.5 -220.5v-288h-185v240q0 112 -50 161t-159 49q-243 0 -243 -247v-203h-185v573h185v-93q99 105 289 105zM407 -198v150h169v-123l-89 -154h-64l32 127h-48z" />
<glyph unicode="&#x147;" horiz-adv-x="1171" d="M689 780h-207l-245 196l2 3h220l127 -108l127 108h220l2 -3zM901 722h190v-722h-220l-601 513v-513h-190v722h200l621 -528v528z" />
<glyph unicode="&#x148;" horiz-adv-x="957" d="M586 642h-179l-255 210l2 3h212l131 -120l130 120h210l2 -3zM544 585q169 0 258.5 -76.5t89.5 -220.5v-288h-185v240q0 112 -50 161t-159 49q-243 0 -243 -247v-203h-185v573h185v-93q99 105 289 105z" />
<glyph unicode="&#x14a;" horiz-adv-x="1171" d="M901 722h190v-954h-190v232l-631 517v-517h-190v722h200l621 -507v507z" />
<glyph unicode="&#x14b;" horiz-adv-x="957" d="M544 585q169 0 258.5 -76.5t89.5 -220.5v-520h-185v472q0 112 -50 161t-159 49q-243 0 -243 -247v-203h-185v573h185v-93q99 105 289 105z" />
<glyph unicode="&#x14c;" horiz-adv-x="1206" d="M322 940h562v-126h-562v126zM40 365q0 178 148.5 277.5t414.5 99.5t414.5 -99.5t148.5 -277.5t-148.5 -277.5t-414.5 -99.5t-414.5 99.5t-148.5 277.5zM976 365q0 107 -97 167t-276 60t-276 -60t-97 -167t97 -167t276 -60t276 60t97 167z" />
<glyph unicode="&#x14d;" horiz-adv-x="942" d="M188 776h566v-123h-566v123zM35 286q0 137 116.5 218t318.5 81t319.5 -81t117.5 -218q0 -136 -117.5 -217t-319.5 -81t-318.5 80.5t-116.5 217.5zM722 286q0 80 -64.5 122t-187.5 42q-121 0 -185.5 -42t-64.5 -122t64.5 -121.5t185.5 -41.5q123 0 187.5 41.5t64.5 121.5z " />
<glyph unicode="&#x14e;" horiz-adv-x="1206" d="M325 979h154l3 -3q4 -38 36 -61t85 -23t85 23t36 61l3 3h154q-3 -95 -72 -149.5t-206 -54.5t-206 54.5t-72 149.5zM40 365q0 178 148.5 277.5t414.5 99.5t414.5 -99.5t148.5 -277.5t-148.5 -277.5t-414.5 -99.5t-414.5 99.5t-148.5 277.5zM976 365q0 107 -97 167t-276 60 t-276 -60t-97 -167t97 -167t276 -60t276 60t97 167z" />
<glyph unicode="&#x14f;" horiz-adv-x="942" d="M171 855h147l3 -3q1 -113 150 -113t150 113l3 3h147q0 -106 -78.5 -165t-221.5 -59t-221.5 59t-78.5 165zM35 286q0 137 116.5 218t318.5 81t319.5 -81t117.5 -218q0 -136 -117.5 -217t-319.5 -81t-318.5 80.5t-116.5 217.5zM722 286q0 80 -64.5 122t-187.5 42 q-121 0 -185.5 -42t-64.5 -122t64.5 -121.5t185.5 -41.5q123 0 187.5 41.5t64.5 121.5z" />
<glyph unicode="&#x150;" horiz-adv-x="1206" d="M362 783l109 196h201l2 -3l-152 -196h-158zM644 783l132 196h200l2 -3l-171 -196h-161zM40 365q0 178 148.5 277.5t414.5 99.5t414.5 -99.5t148.5 -277.5t-148.5 -277.5t-414.5 -99.5t-414.5 99.5t-148.5 277.5zM976 365q0 107 -97 167t-276 60t-276 -60t-97 -167 t97 -167t276 -60t276 60t97 167z" />
<glyph unicode="&#x151;" horiz-adv-x="942" d="M253 645l122 210h205l2 -3l-171 -210h-156zM509 645l169 210h204l2 -3l-214 -210h-159zM35 286q0 137 116.5 218t318.5 81t319.5 -81t117.5 -218q0 -136 -117.5 -217t-319.5 -81t-318.5 80.5t-116.5 217.5zM722 286q0 80 -64.5 122t-187.5 42q-121 0 -185.5 -42 t-64.5 -122t64.5 -121.5t185.5 -41.5q123 0 187.5 41.5t64.5 121.5z" />
<glyph unicode="&#x152;" horiz-adv-x="1910" d="M1860 575h-694v-142h650v-143h-650v-143h694v-147h-884v63q-144 -75 -373 -75q-266 0 -414.5 99.5t-148.5 277.5t148.5 277.5t414.5 99.5q229 0 373 -75v55h884v-147zM603 138q179 0 276 60t97 167t-97 167t-276 60t-276 -60t-97 -167t97 -167t276 -60z" />
<glyph unicode="&#x153;" horiz-adv-x="1598" d="M35 286q0 137 116.5 218t318.5 81q231 0 343 -109q110 109 335 109q193 0 304 -79.5t111 -219.5v-37h-653q30 -118 266 -118q108 0 185 23.5t152 74.5l4 -3v-160q-152 -78 -344 -78q-243 0 -358 110q-111 -110 -345 -110q-202 0 -318.5 80.5t-116.5 217.5zM1382 359 q-51 98 -232 98q-180 0 -237 -98h469zM722 286q0 80 -64.5 122t-187.5 42q-121 0 -185.5 -42t-64.5 -122t64.5 -121.5t185.5 -41.5q123 0 187.5 41.5t64.5 121.5z" />
<glyph unicode="&#x154;" horiz-adv-x="1076" d="M557 768h-158l-2 3l109 196h201l2 -3zM861 322q54 -16 87.5 -53.5t45.5 -76.5t30.5 -95t40.5 -91v-6h-198q-10 25 -32.5 99.5t-42.5 100.5t-54.5 37.5t-111.5 11.5h-356v-249h-190v722h618q154 0 235 -52.5t81 -151.5q0 -136 -153 -196zM270 399h400q73 0 111.5 23 t38.5 67q0 45 -40 64t-130 19h-380v-173z" />
<glyph unicode="&#x155;" horiz-adv-x="667" d="M411 642h-156l-2 3l122 210h205l2 -3zM542 585q35 0 75 -5v-150l-5 -2q-44 11 -105 11q-124 0 -188 -62t-64 -176v-201h-185v573h185v-88q103 100 287 100z" />
<glyph unicode="&#x156;" horiz-adv-x="1076" d="M861 322q54 -16 87.5 -53.5t45.5 -76.5t30.5 -95t40.5 -91v-6h-198q-10 25 -32.5 99.5t-42.5 100.5t-54.5 37.5t-111.5 11.5h-356v-249h-190v722h618q154 0 235 -52.5t81 -151.5q0 -136 -153 -196zM270 399h400q73 0 111.5 23t38.5 67q0 45 -40 64t-130 19h-380v-173z M476 -198v150h169v-123l-89 -154h-64l32 127h-48z" />
<glyph unicode="&#x157;" horiz-adv-x="667" d="M542 585q35 0 75 -5v-150l-5 -2q-44 11 -105 11q-124 0 -188 -62t-64 -176v-201h-185v573h185v-88q103 100 287 100zM78 -198v150h169v-123l-89 -154h-64l32 127h-48z" />
<glyph unicode="&#x158;" horiz-adv-x="1076" d="M616 780h-207l-245 196l2 3h220l127 -108l127 108h220l2 -3zM861 322q54 -16 87.5 -53.5t45.5 -76.5t30.5 -95t40.5 -91v-6h-198q-10 25 -32.5 99.5t-42.5 100.5t-54.5 37.5t-111.5 11.5h-356v-249h-190v722h618q154 0 235 -52.5t81 -151.5q0 -136 -153 -196zM270 399 h400q73 0 111.5 23t38.5 67q0 45 -40 64t-130 19h-380v-173z" />
<glyph unicode="&#x159;" horiz-adv-x="667" d="M432 642h-179l-255 210l2 3h212l131 -120l130 120h210l2 -3zM255 485q103 100 287 100q35 0 75 -5v-150l-5 -2q-44 11 -105 11q-124 0 -188 -62t-64 -176v-201h-185v573h185v-88z" />
<glyph unicode="&#x15a;" horiz-adv-x="1083" d="M434 783l109 196h201l2 -3l-152 -196h-158zM59 49v160l6 3q196 -74 476 -74q302 0 302 83q0 26 -34 40.5t-89.5 18.5t-126 8t-144.5 7t-144.5 16.5t-126 35.5t-89.5 65.5t-34 104.5q0 111 120.5 168.5t354.5 57.5q235 0 431 -58v-152l-6 -2q-209 62 -421 62 q-289 0 -289 -70q0 -29 43.5 -44t113 -19.5t153.5 -7.5t168 -13.5t153.5 -31t113 -66.5t43.5 -115q0 -124 -118.5 -181t-384.5 -57q-279 0 -471 61z" />
<glyph unicode="&#x15b;" horiz-adv-x="895" d="M335 645l122 210h205l2 -3l-171 -210h-156zM53 44v141l5 2q178 -73 398 -73q113 0 161 13t48 43q0 23 -45.5 34t-114 12.5t-148 9.5t-148 22t-114 53t-45.5 99q0 185 388 185q193 0 353 -46v-137l-7 -2q-172 58 -370 58q-97 0 -138 -10.5t-41 -35.5q0 -20 34 -30 t88 -13.5t119.5 -6.5t131.5 -12.5t120 -26t88 -52.5t34 -88q0 -196 -389 -196q-244 0 -408 57z" />
<glyph unicode="&#x15c;" horiz-adv-x="1083" d="M408 780h-210l-2 3l225 196h227l226 -196l-2 -3h-210l-127 108zM245 523q0 -29 43.5 -44t113 -19.5t153.5 -7.5t168 -13.5t153.5 -31t113 -66.5t43.5 -115q0 -124 -118.5 -181t-384.5 -57q-279 0 -471 61v160l6 3q196 -74 476 -74q302 0 302 83q0 26 -34 40.5t-89.5 18.5 t-126 8t-144.5 7t-144.5 16.5t-126 35.5t-89.5 65.5t-34 104.5q0 111 120.5 168.5t354.5 57.5q235 0 431 -58v-152l-6 -2q-209 62 -421 62q-289 0 -289 -70z" />
<glyph unicode="&#x15d;" horiz-adv-x="895" d="M294 642h-189l-2 3l224 210h228l224 -209l-2 -4h-187l-148 130zM235 412q0 -20 34 -30t88 -13.5t119.5 -6.5t131.5 -12.5t120 -26t88 -52.5t34 -88q0 -196 -389 -196q-244 0 -408 57v141l5 2q178 -73 398 -73q113 0 161 13t48 43q0 23 -45.5 34t-114 12.5t-148 9.5 t-148 22t-114 53t-45.5 99q0 185 388 185q193 0 353 -46v-137l-7 -2q-172 58 -370 58q-97 0 -138 -10.5t-41 -35.5z" />
<glyph unicode="&#x15e;" horiz-adv-x="1083" d="M1033 226q0 -110 -92.5 -167t-296.5 -68l-98 -177h-184l-2 4l116 171q-246 6 -417 60v160l6 3q196 -74 476 -74q302 0 302 83q0 26 -34 40.5t-89.5 18.5t-126 8t-144.5 7t-144.5 16.5t-126 35.5t-89.5 65.5t-34 104.5q0 111 120.5 168.5t354.5 57.5q235 0 431 -58v-152 l-6 -2q-209 62 -421 62q-289 0 -289 -70q0 -29 43.5 -44t113 -19.5t153.5 -7.5t168 -13.5t153.5 -31t113 -66.5t43.5 -115z" />
<glyph unicode="&#x15f;" horiz-adv-x="895" d="M850 183q0 -174 -304 -193l-97 -176h-184l-2 4l117 171q-197 10 -327 55v141l5 2q178 -73 398 -73q113 0 161 13t48 43q0 23 -45.5 34t-114 12.5t-148 9.5t-148 22t-114 53t-45.5 99q0 185 388 185q193 0 353 -46v-137l-7 -2q-172 58 -370 58q-97 0 -138 -10.5t-41 -35.5 q0 -20 34 -30t88 -13.5t119.5 -6.5t131.5 -12.5t120 -26t88 -52.5t34 -88z" />
<glyph unicode="&#x160;" horiz-adv-x="1083" d="M639 780h-207l-245 196l2 3h220l127 -108l127 108h220l2 -3zM245 523q0 -29 43.5 -44t113 -19.5t153.5 -7.5t168 -13.5t153.5 -31t113 -66.5t43.5 -115q0 -124 -118.5 -181t-384.5 -57q-279 0 -471 61v160l6 3q196 -74 476 -74q302 0 302 83q0 26 -34 40.5t-89.5 18.5 t-126 8t-144.5 7t-144.5 16.5t-126 35.5t-89.5 65.5t-34 104.5q0 111 120.5 168.5t354.5 57.5q235 0 431 -58v-152l-6 -2q-209 62 -421 62q-289 0 -289 -70z" />
<glyph unicode="&#x161;" horiz-adv-x="895" d="M532 642h-179l-255 210l2 3h212l131 -120l130 120h210l2 -3zM235 412q0 -20 34 -30t88 -13.5t119.5 -6.5t131.5 -12.5t120 -26t88 -52.5t34 -88q0 -196 -389 -196q-244 0 -408 57v141l5 2q178 -73 398 -73q113 0 161 13t48 43q0 23 -45.5 34t-114 12.5t-148 9.5t-148 22 t-114 53t-45.5 99q0 185 388 185q193 0 353 -46v-137l-7 -2q-172 58 -370 58q-97 0 -138 -10.5t-41 -35.5z" />
<glyph unicode="&#x162;" horiz-adv-x="1079" d="M1059 722v-147h-425v-575h-10l-103 -186h-184l-2 4l124 182h-15v575h-424v147h1039z" />
<glyph unicode="&#x163;" horiz-adv-x="493" d="M483 445h-167v-199q0 -68 31 -96t105 -28h26l5 -3v-129q-32 -2 -53 -2h-17l-99 -174h-198l145 201q-130 54 -130 227v203h-121v116h121v131h185v-131h167v-116z" />
<glyph unicode="&#x164;" horiz-adv-x="1079" d="M643 780h-207l-245 196l2 3h220l127 -108l127 108h220l2 -3zM1059 722v-147h-425v-575h-190v575h-424v147h1039z" />
<glyph unicode="&#x165;" horiz-adv-x="493" d="M359 880h165l-32 -279h-133v279zM316 692v-131h167v-116h-167v-199q0 -68 31 -96t105 -28h26l5 -3v-129q-32 -2 -53 -2q-155 0 -227 62t-72 192v203h-121v116h121v131h185z" />
<glyph unicode="&#x166;" horiz-adv-x="1079" d="M1059 575h-425v-144h269v-123h-269v-308h-190v308h-268v123h268v144h-424v147h1039v-147z" />
<glyph unicode="&#x167;" horiz-adv-x="493" d="M483 445h-167v-79h142v-99h-142v-21q0 -68 31 -96t105 -28h26l5 -3v-129q-32 -2 -53 -2q-155 0 -227 62t-72 192v25h-100v99h100v79h-121v116h121v131h185v-131h167v-116z" />
<glyph unicode="&#x168;" horiz-adv-x="1058" d="M412 859q-26 0 -41 -17t-14 -48l-3 -2h-130q-5 85 43.5 139t131.5 53q58 -1 145 -37t110 -36q24 0 37 17t11 47l3 2h130q2 -86 -42.5 -138t-121.5 -52q-56 0 -146 36t-113 36zM80 391v331h190v-345q0 -239 259 -239t259 239v345h190v-331q0 -403 -449 -403t-449 403z" />
<glyph unicode="&#x169;" horiz-adv-x="957" d="M294 654h-134q-5 83 45 135.5t136 51.5q61 0 150.5 -37t113.5 -37q25 0 38.5 17.5t11.5 47.5l3 2h134q2 -84 -44 -134.5t-126 -50.5q-58 0 -150.5 37t-116.5 37q-26 0 -42.5 -18.5t-15.5 -48.5zM702 573h185v-573h-185v88q-105 -100 -291 -100q-167 0 -256.5 83.5 t-89.5 237.5v264h185v-238q0 -108 51.5 -160t158.5 -52q242 0 242 255v195z" />
<glyph unicode="&#x16a;" horiz-adv-x="1058" d="M248 940h562v-126h-562v126zM80 391v331h190v-345q0 -239 259 -239t259 239v345h190v-331q0 -403 -449 -403t-449 403z" />
<glyph unicode="&#x16b;" horiz-adv-x="957" d="M759 776v-123h-566v123h566zM702 573h185v-573h-185v88q-105 -100 -291 -100q-167 0 -256.5 83.5t-89.5 237.5v264h185v-238q0 -108 51.5 -160t158.5 -52q242 0 242 255v195z" />
<glyph unicode="&#x16c;" horiz-adv-x="1058" d="M251 979h154l3 -3q4 -38 36 -61t85 -23t85 23t36 61l3 3h154q-3 -95 -72 -149.5t-206 -54.5t-206 54.5t-72 149.5zM80 391v331h190v-345q0 -239 259 -239t259 239v345h190v-331q0 -403 -449 -403t-449 403z" />
<glyph unicode="&#x16d;" horiz-adv-x="957" d="M476 631q-143 0 -221.5 59t-78.5 165h147l3 -3q1 -113 150 -113t150 113l3 3h147q0 -106 -78.5 -165t-221.5 -59zM702 573h185v-573h-185v88q-105 -100 -291 -100q-167 0 -256.5 83.5t-89.5 237.5v264h185v-238q0 -108 51.5 -160t158.5 -52q242 0 242 255v195z" />
<glyph unicode="&#x16e;" horiz-adv-x="1058" d="M340 887q0 63 51.5 100.5t137.5 37.5t137.5 -37.5t51.5 -100.5t-51.5 -100.5t-137.5 -37.5t-137.5 37.5t-51.5 100.5zM606 887q0 23 -20 36.5t-57 13.5t-57 -13.5t-20 -36.5t20 -36.5t57 -13.5t57 13.5t20 36.5zM80 391v331h190v-345q0 -239 259 -239t259 239v345h190 v-331q0 -403 -449 -403t-449 403z" />
<glyph unicode="&#x16f;" horiz-adv-x="957" d="M476 621q-99 0 -154 35.5t-55 96.5t54.5 95.5t154.5 34.5t154.5 -34.5t54.5 -95.5t-55 -96.5t-154 -35.5zM476 803q-40 0 -63.5 -14.5t-23.5 -35.5q0 -22 23.5 -37t63.5 -15t63.5 15t23.5 37q0 21 -23.5 35.5t-63.5 14.5zM702 573h185v-573h-185v88q-105 -100 -291 -100 q-167 0 -256.5 83.5t-89.5 237.5v264h185v-238q0 -108 51.5 -160t158.5 -52q242 0 242 255v195z" />
<glyph unicode="&#x170;" horiz-adv-x="1058" d="M282 783l109 196h201l2 -3l-152 -196h-158zM564 783l132 196h200l2 -3l-171 -196h-161zM80 391v331h190v-345q0 -239 259 -239t259 239v345h190v-331q0 -403 -449 -403t-449 403z" />
<glyph unicode="&#x171;" horiz-adv-x="957" d="M399 642h-156l-2 3l122 210h205l2 -3zM499 642l-2 3l169 210h204l2 -3l-214 -210h-159zM702 573h185v-573h-185v88q-105 -100 -291 -100q-167 0 -256.5 83.5t-89.5 237.5v264h185v-238q0 -108 51.5 -160t158.5 -52q242 0 242 255v195z" />
<glyph unicode="&#x172;" horiz-adv-x="1058" d="M788 722h190v-331q0 -336 -310 -392q-176 -57 -176 -116q0 -38 77 -38q52 0 97 15l4 -1v-99q-42 -12 -116 -12q-214 0 -214 107q0 42 32.5 73t103.5 61q-396 23 -396 402v331h190v-345q0 -239 259 -239t259 239v345z" />
<glyph unicode="&#x173;" horiz-adv-x="957" d="M887 0q-178 -58 -178 -117q0 -38 77 -38q52 0 97 15l4 -1v-99q-42 -12 -116 -12q-214 0 -214 107q0 45 38.5 78.5t123.5 66.5h-17v88q-105 -100 -291 -100q-167 0 -256.5 83.5t-89.5 237.5v264h185v-238q0 -108 51.5 -160t158.5 -52q242 0 242 255v195h185v-573z" />
<glyph unicode="&#x174;" horiz-adv-x="1370" d="M557 780h-210l-2 3l225 196h227l226 -196l-2 -3h-210l-127 108zM1367 722l3 -4l-300 -718h-185l-200 510l-200 -510h-185l-300 718l3 4h196l198 -507l198 507h181l198 -506l199 506h194z" />
<glyph unicode="&#x175;" horiz-adv-x="1277" d="M490 642h-189l-2 3l224 210h228l224 -209l-2 -4h-187l-148 130zM1274 573l3 -4l-278 -569h-187l-175 386l-175 -386h-184l-278 569l3 4h201l174 -394l172 394h178l171 -395l176 395h199z" />
<glyph unicode="&#x176;" horiz-adv-x="1038" d="M392 780h-210l-2 3l225 196h227l226 -196l-2 -3h-210l-127 108zM1035 722l3 -4l-424 -470v-248h-190v248l-424 470l3 4h217l299 -339l300 339h216z" />
<glyph unicode="&#x177;" horiz-adv-x="913" d="M316 642h-189l-2 3l224 210h228l224 -209l-2 -4h-187l-148 130zM910 573l3 -4l-418 -670q-50 -81 -114 -116t-165 -35h-42v135l6 4h20q67 0 98.5 19t64.5 74l12 20h-1l-374 569l3 4h206l258 -402l249 402h194z" />
<glyph unicode="&#x178;" horiz-adv-x="1038" d="M450 966v-163h-208v163h208zM796 966v-163h-208v163h208zM1035 722l3 -4l-424 -470v-248h-190v248l-424 470l3 4h217l299 -339l300 339h216z" />
<glyph unicode="&#x179;" horiz-adv-x="1079" d="M591 780h-158l-2 3l109 196h201l2 -3zM400 150h599v-150h-919v114l608 458h-587v150h887v-114z" />
<glyph unicode="&#x17a;" horiz-adv-x="923" d="M514 642h-156l-2 3l122 210h205l2 -3zM364 135h489v-135h-783v115l475 323h-459v135h753v-115z" />
<glyph unicode="&#x17b;" horiz-adv-x="1079" d="M643 966v-163h-208v163h208zM400 150h599v-150h-919v114l608 458h-587v150h887v-114z" />
<glyph unicode="&#x17c;" horiz-adv-x="923" d="M569 798v-156h-213v156h213zM364 135h489v-135h-783v115l475 323h-459v135h753v-115z" />
<glyph unicode="&#x17d;" horiz-adv-x="1079" d="M642 780h-207l-245 196l2 3h220l127 -108l127 108h220l2 -3zM400 150h599v-150h-919v114l608 458h-587v150h887v-114z" />
<glyph unicode="&#x17e;" horiz-adv-x="923" d="M551 642h-179l-255 210l2 3h212l131 -120l130 120h210l2 -3zM364 135h489v-135h-783v115l475 323h-459v135h753v-115z" />
<glyph unicode="&#x192;" horiz-adv-x="664" d="M533 615q-79 0 -112.5 -25t-33.5 -92v-91h227v-116h-227v-307q0 -233 -299 -233q-55 0 -113 10v123l7 2q26 -8 74 -8q79 0 112.5 24.5t33.5 89.5v299h-133v116h133v102q0 115 76.5 174t222.5 59q55 0 113 -10v-123l-7 -2q-26 8 -74 8z" />
<glyph unicode="&#x218;" horiz-adv-x="1083" d="M245 523q0 -29 43.5 -44t113 -19.5t153.5 -7.5t168 -13.5t153.5 -31t113 -66.5t43.5 -115q0 -124 -118.5 -181t-384.5 -57q-279 0 -471 61v160l6 3q196 -74 476 -74q302 0 302 83q0 26 -34 40.5t-89.5 18.5t-126 8t-144.5 7t-144.5 16.5t-126 35.5t-89.5 65.5t-34 104.5 q0 111 120.5 168.5t354.5 57.5q235 0 431 -58v-152l-6 -2q-209 62 -421 62q-289 0 -289 -70zM471 -198v150h169v-123l-89 -154h-64l32 127h-48z" />
<glyph unicode="&#x219;" horiz-adv-x="895" d="M235 412q0 -20 34 -30t88 -13.5t119.5 -6.5t131.5 -12.5t120 -26t88 -52.5t34 -88q0 -196 -389 -196q-244 0 -408 57v141l5 2q178 -73 398 -73q113 0 161 13t48 43q0 23 -45.5 34t-114 12.5t-148 9.5t-148 22t-114 53t-45.5 99q0 185 388 185q193 0 353 -46v-137l-7 -2 q-172 58 -370 58q-97 0 -138 -10.5t-41 -35.5zM376 -198v150h169v-123l-89 -154h-64l32 127h-48z" />
<glyph unicode="&#x21a;" horiz-adv-x="1079" d="M1059 722v-147h-425v-575h-190v575h-424v147h1039zM455 -198v150h169v-123l-89 -154h-64l32 127h-48z" />
<glyph unicode="&#x21b;" horiz-adv-x="493" d="M483 445h-167v-199q0 -68 31 -96t105 -28h26l5 -3v-129q-32 -2 -53 -2q-155 0 -227 62t-72 192v203h-121v116h121v131h185v-131h167v-116zM245 -198v150h169v-123l-89 -154h-64l32 127h-48z" />
<glyph unicode="&#x2c6;" horiz-adv-x="776" d="M502 855l224 -209l-2 -4h-187l-148 130l-148 -130h-189l-2 3l224 210h228z" />
<glyph unicode="&#x2c7;" horiz-adv-x="787" d="M735 855l2 -3l-253 -210h-179l-255 210l2 3h212l131 -120l130 120h210z" />
<glyph unicode="&#x2d8;" horiz-adv-x="700" d="M50 855h147l3 -3q1 -113 150 -113t150 113l3 3h147q0 -106 -78.5 -165t-221.5 -59t-221.5 59t-78.5 165z" />
<glyph unicode="&#x2d9;" horiz-adv-x="313" d="M50 798h213v-156h-213v156z" />
<glyph unicode="&#x2da;" horiz-adv-x="518" d="M50 753q0 61 54.5 95.5t154.5 34.5t154.5 -34.5t54.5 -95.5t-55 -96.5t-154 -35.5t-154 35.5t-55 96.5zM346 753q0 21 -23.5 35.5t-63.5 14.5t-63.5 -14.5t-23.5 -35.5q0 -22 23.5 -37t63.5 -15t63.5 15t23.5 37z" />
<glyph unicode="&#x2db;" horiz-adv-x="430" d="M50 -145q0 45 38.5 78.5t123.5 66.5h168q-178 -58 -178 -117q0 -38 77 -38q52 0 97 15l4 -1v-99q-42 -12 -116 -12q-214 0 -214 107z" />
<glyph unicode="&#x2dc;" horiz-adv-x="732" d="M245 723q-26 0 -42.5 -18.5t-15.5 -48.5l-3 -2h-134q-5 83 45 135.5t136 51.5q61 0 150.5 -37t113.5 -37q25 0 38.5 17.5t11.5 47.5l3 2h134q2 -84 -44 -134.5t-126 -50.5q-58 0 -150.5 37t-116.5 37z" />
<glyph unicode="&#x2dd;" horiz-adv-x="731" d="M50 645l122 210h205l2 -3l-171 -210h-156zM306 645l169 210h204l2 -3l-214 -210h-159z" />
<glyph unicode="&#x3a9;" horiz-adv-x="1246" d="M932 143h264v-143h-520v217q155 8 237.5 58.5t82.5 134.5q0 83 -97.5 132.5t-275.5 49.5t-275.5 -49.5t-97.5 -132.5q0 -84 82.5 -134.5t237.5 -58.5v-217h-520v143h264q-254 73 -254 277q0 152 148.5 237t414.5 85t414.5 -85t148.5 -237q0 -204 -254 -277z" />
<glyph unicode="&#x3c0;" horiz-adv-x="1311" d="M1261 573v-141h-235v-432h-160v432h-421v-432h-160v432h-235v141h1211z" />
<glyph unicode="&#x1e80;" horiz-adv-x="1370" d="M765 780h-158l-152 196l2 3h201l109 -196zM1367 722l3 -4l-300 -718h-185l-200 510l-200 -510h-185l-300 718l3 4h196l198 -507l198 507h181l198 -506l199 506h194z" />
<glyph unicode="&#x1e81;" horiz-adv-x="1277" d="M719 642h-156l-171 210l2 3h205l122 -210zM1274 573l3 -4l-278 -569h-187l-175 386l-175 -386h-184l-278 569l3 4h201l174 -394l172 394h178l171 -395l176 395h199z" />
<glyph unicode="&#x1e82;" horiz-adv-x="1370" d="M765 780h-158l-2 3l109 196h201l2 -3zM1367 722l3 -4l-300 -718h-185l-200 510l-200 -510h-185l-300 718l3 4h196l198 -507l198 507h181l198 -506l199 506h194z" />
<glyph unicode="&#x1e83;" horiz-adv-x="1277" d="M719 642h-156l-2 3l122 210h205l2 -3zM1274 573l3 -4l-278 -569h-187l-175 386l-175 -386h-184l-278 569l3 4h201l174 -394l172 394h178l171 -395l176 395h199z" />
<glyph unicode="&#x1e84;" horiz-adv-x="1370" d="M616 966v-163h-208v163h208zM962 966v-163h-208v163h208zM1367 722l3 -4l-300 -718h-185l-200 510l-200 -510h-185l-300 718l3 4h196l198 -507l198 507h181l198 -506l199 506h194z" />
<glyph unicode="&#x1e85;" horiz-adv-x="1277" d="M572 798v-156h-213v156h213zM919 798v-156h-213v156h213zM1274 573l3 -4l-278 -569h-187l-175 386l-175 -386h-184l-278 569l3 4h201l174 -394l172 394h178l171 -395l176 395h199z" />
<glyph unicode="&#x1e9e;" horiz-adv-x="1236" d="M886 453q310 -16 310 -215q0 -117 -110.5 -183.5t-316.5 -66.5q-177 0 -389 51v158l8 2q180 -61 381 -61q114 0 175.5 27.5t61.5 78.5q0 98 -302 98h-102l-5 7l183 221q-69 22 -177 22q-169 0 -251 -58t-82 -190v-344h-190v365q0 377 525 377q132 0 250 -32t177 -78z" />
<glyph unicode="&#x1ef2;" horiz-adv-x="1038" d="M616 780h-158l-152 196l2 3h201l109 -196zM1035 722l3 -4l-424 -470v-248h-190v248l-424 470l3 4h217l299 -339l300 339h216z" />
<glyph unicode="&#x1ef3;" horiz-adv-x="913" d="M553 642h-156l-171 210l2 3h205l122 -210zM910 573l3 -4l-418 -670q-50 -81 -114 -116t-165 -35h-42v135l6 4h20q67 0 98.5 19t64.5 74l12 20h-1l-374 569l3 4h206l258 -402l249 402h194z" />
<glyph unicode="&#x2000;" horiz-adv-x="512" />
<glyph unicode="&#x2001;" horiz-adv-x="1025" />
<glyph unicode="&#x2002;" horiz-adv-x="500" />
<glyph unicode="&#x2003;" horiz-adv-x="1000" />
<glyph unicode="&#x2004;" horiz-adv-x="341" />
<glyph unicode="&#x2005;" horiz-adv-x="256" />
<glyph unicode="&#x2006;" horiz-adv-x="170" />
<glyph unicode="&#x2007;" horiz-adv-x="170" />
<glyph unicode="&#x2008;" horiz-adv-x="128" />
<glyph unicode="&#x2009;" horiz-adv-x="200" />
<glyph unicode="&#x200a;" horiz-adv-x="100" />
<glyph unicode="&#x2010;" horiz-adv-x="600" d="M50 360h500v-134l-500 -1v135z" />
<glyph unicode="&#x2011;" horiz-adv-x="600" d="M50 360h500v-134l-500 -1v135z" />
<glyph unicode="&#x2012;" horiz-adv-x="600" d="M50 360h500v-134l-500 -1v135z" />
<glyph unicode="&#x2013;" horiz-adv-x="950" d="M50 360h850v-135h-850v135z" />
<glyph unicode="&#x2014;" horiz-adv-x="1700" d="M50 360h1600v-135h-1600v135z" />
<glyph unicode="&#x2018;" horiz-adv-x="285" d="M235 722l-57 -177h56v-177h-199v145l133 209h67z" />
<glyph unicode="&#x2019;" horiz-adv-x="285" d="M51 722h199v-145l-133 -209h-67l57 177h-56v177z" />
<glyph unicode="&#x201a;" horiz-adv-x="285" d="M51 177h199v-145l-133 -209h-67l57 177h-56v177z" />
<glyph unicode="&#x201c;" horiz-adv-x="554" d="M168 722h67l-57 -177h56v-177h-199v145zM504 722l-57 -177h56v-177h-199v145l133 209h67z" />
<glyph unicode="&#x201d;" horiz-adv-x="554" d="M51 545v177h199v-145l-133 -209h-67l57 177h-56zM320 722h199v-145l-133 -209h-67l57 177h-56v177z" />
<glyph unicode="&#x201e;" horiz-adv-x="554" d="M51 0v177h199v-145l-133 -209h-67l57 177h-56zM320 177h199v-145l-133 -209h-67l57 177h-56v177z" />
<glyph unicode="&#x2020;" horiz-adv-x="930" d="M880 529v-141l-339 8l9 -547h-170l9 547l-339 -8v141l337 -8l-7 201h170l-7 -201z" />
<glyph unicode="&#x2021;" horiz-adv-x="930" d="M880 529v-141l-337 8l7 -110l-7 -111l337 8v-141l-337 8l7 -201h-170l7 201l-337 -8v141l337 -8l-7 111l7 110l-337 -8v141l337 -8l-7 201h170l-7 -201z" />
<glyph unicode="&#x2022;" horiz-adv-x="460" d="M50 361q0 78 50 129t130 51t130 -51t50 -129t-50 -129t-130 -51t-130 51t-50 129z" />
<glyph unicode="&#x2025;" horiz-adv-x="650" d="M50 179h200v-179h-200v179zM400 179h200v-179h-200v179z" />
<glyph unicode="&#x2026;" horiz-adv-x="1000" d="M50 179h200v-179h-200v179zM400 179h200v-179h-200v179zM750 179h200v-179h-200v179z" />
<glyph unicode="&#x202f;" horiz-adv-x="205" />
<glyph unicode="&#x2030;" horiz-adv-x="2353" d="M50 494q0 116 88.5 181t239.5 65t239.5 -65t88.5 -181q0 -115 -88.5 -180.5t-239.5 -65.5t-239.5 65.5t-88.5 180.5zM466 4l564 718h149l3 -4l-564 -718h-149zM576 494q0 68 -53 103t-145 35t-145.5 -35.5t-53.5 -102.5t53.5 -102.5t145.5 -35.5t145 35t53 103zM951 234 q0 116 88.5 181t239.5 65t239.5 -65t88.5 -181q0 -115 -88.5 -180.5t-239.5 -65.5t-239.5 65.5t-88.5 180.5zM1647 234q0 116 88.5 181t239.5 65t239.5 -65t88.5 -181q0 -115 -88.5 -180.5t-239.5 -65.5t-239.5 65.5t-88.5 180.5zM1477 234q0 68 -53 103t-145 35 t-145.5 -35.5t-53.5 -102.5t53.5 -102.5t145.5 -35.5t145 35t53 103zM2173 234q0 68 -53 103t-145 35t-145.5 -35.5t-53.5 -102.5t53.5 -102.5t145.5 -35.5t145 35t53 103z" />
<glyph unicode="&#x2039;" horiz-adv-x="434" d="M384 526v-160l-157 -80l157 -80v-160l-334 180v120z" />
<glyph unicode="&#x203a;" horiz-adv-x="434" d="M50 526l334 -180v-120l-334 -180v160l157 80l-157 80v160z" />
<glyph unicode="&#x2044;" horiz-adv-x="316" d="M-200 4l564 718h149l3 -4l-564 -718h-149z" />
<glyph unicode="&#x205f;" horiz-adv-x="256" />
<glyph unicode="&#x20ac;" horiz-adv-x="1223" d="M731 592q-150 0 -243.5 -40t-123.5 -114h566l2 -4l-75 -120h-501q21 -84 116.5 -130t258.5 -46q200 0 406 111l5 -1v-162q-191 -98 -418 -98q-246 0 -392.5 85.5t-168.5 240.5h-161l-2 4l79 120h88q29 145 172 224.5t374 79.5q240 0 430 -98v-162l-6 -1 q-203 111 -406 111z" />
<glyph unicode="&#x2116;" horiz-adv-x="1854" d="M1477 281q-156 0 -246 62t-90 168t90 168.5t246 62.5t246.5 -62.5t90.5 -168.5q0 -105 -90.5 -167.5t-246.5 -62.5zM901 194v528h190v-722h-220l-601 513v-513h-190v722h200zM1477 623q-82 0 -130.5 -30.5t-48.5 -81.5t48.5 -81t130.5 -30q84 0 132 30t48 81t-48 81.5 t-132 30.5zM1176 113v119h603v-119h-603z" />
<glyph unicode="&#x2122;" horiz-adv-x="1454" d="M682 722v-111h-247v-322h-138v322h-247v111h632zM1404 722v-433h-133v246l-138 -244l1 -2h-136l1 2l-138 244v-246h-133v433h162l176 -303l176 303h162z" />
<glyph unicode="&#x2202;" horiz-adv-x="945" d="M35 262q0 119 98.5 185t274.5 66q96 0 177 -19t126 -52q-23 83 -145.5 162t-276.5 111v7h292q154 -47 241.5 -164.5t87.5 -259.5q0 -310 -430 -310q-208 0 -326.5 71t-118.5 203zM733 253q0 64 -67 98.5t-192 34.5q-123 0 -188.5 -33t-65.5 -94q0 -64 70.5 -100 t195.5 -36q122 0 184.5 34t62.5 96z" />
<glyph unicode="&#x2206;" horiz-adv-x="1269" d="M734 722l535 -722h-1269l535 722h199zM288 133h693l-346 467z" />
<glyph unicode="&#x220f;" horiz-adv-x="1148" d="M1068 722v-722h-190v575h-608v-575h-190v722h988z" />
<glyph unicode="&#x2211;" horiz-adv-x="1014" d="M964 722v-147h-581l504 -210v-8l-504 -210h581v-147h-914v158l509 203l-509 203v158h914z" />
<glyph unicode="&#x221a;" horiz-adv-x="1177" d="M1124 722l3 -4l-421 -718h-204l-261 439h-191v134h314l244 -435l333 584h183z" />
<glyph unicode="&#x221e;" horiz-adv-x="1142" d="M845 584q107 0 177 -62.5t70 -160.5t-70 -160.5t-177 -62.5q-73 0 -134.5 29.5t-139.5 101.5q-78 -72 -139.5 -101.5t-134.5 -29.5q-107 0 -177 62.5t-70 160.5t70 160.5t177 62.5q73 0 134.5 -29.5t139.5 -101.5q78 72 139.5 101.5t134.5 29.5zM298 271q42 0 84 18.5 t108 71.5q-66 53 -108 71.5t-84 18.5q-48 0 -79 -25t-31 -65t31 -65t79 -25zM844 271q48 0 79 25t31 65t-31 65t-79 25q-42 0 -84 -18.5t-108 -71.5q66 -53 108 -71.5t84 -18.5z" />
<glyph unicode="&#x222b;" horiz-adv-x="682" d="M-100 -239l26 123l8 2q24 -8 72 -8q77 0 117 27.5t53 86.5l147 690q25 115 113.5 174t234.5 59q55 0 111 -10l-26 -123l-7 -2q-24 8 -73 8q-77 0 -117 -28t-53 -89l-146 -687q-50 -233 -349 -233q-55 0 -111 10z" />
<glyph unicode="&#x2248;" horiz-adv-x="1049" d="M318 495q-45 0 -76.5 -26.5t-37.5 -71.5h-154q12 110 86.5 174.5t185.5 64.5q68 0 151.5 -27.5t156.5 -55t113 -27.5q87 0 102 97h154q-9 -118 -71.5 -178t-173.5 -60q-70 0 -154 27.5t-159 55t-123 27.5zM318 196q-45 0 -76.5 -26.5t-37.5 -71.5h-154q12 110 86.5 174.5 t185.5 64.5q68 0 151.5 -27.5t156.5 -55t113 -27.5q87 0 102 97h154q-9 -118 -71.5 -178t-173.5 -60q-70 0 -154 27.5t-159 55t-123 27.5z" />
<glyph unicode="&#x2260;" horiz-adv-x="920" d="M870 435h-277l-105 -157h382v-128h-468l-79 -119h-153l-3 4l77 115h-194v128h279l105 157h-384v128h469l79 118h153l3 -4l-76 -114h192v-128z" />
<glyph unicode="&#x2264;" horiz-adv-x="847" d="M797 661v-133l-466 -114l466 -115v-133l-747 195v105zM50 0v128h747v-128h-747z" />
<glyph unicode="&#x2265;" horiz-adv-x="847" d="M50 661l747 -195v-105l-747 -195v133l466 115l-466 114v133zM50 0v128h747v-128h-747z" />
<glyph unicode="&#x25ca;" horiz-adv-x="1046" d="M599 722l397 -361l-397 -361h-152l-397 361l397 361h152zM523 147l240 214l-240 214l-240 -214z" />
<glyph unicode="&#x25fc;" horiz-adv-x="575" d="M0 575h575v-575h-575v575z" />
<glyph horiz-adv-x="1103" d="M611 592q-185 0 -283 -60t-98 -168q0 -107 97.5 -166.5t283.5 -59.5q109 0 221 33v199h190v-284q-191 -98 -418 -98q-266 0 -415 99.5t-149 277.5t146.5 277.5t406.5 99.5q240 0 430 -98v-162l-6 -1q-203 111 -406 111z" />
<glyph horiz-adv-x="1103" d="M590 775q-137 0 -206 54.5t-72 149.5h154l3 -3q4 -38 36 -61t85 -23t85 23t36 61l3 3h154q-3 -95 -72 -149.5t-206 -54.5zM611 592q-185 0 -283 -60t-98 -168q0 -107 97.5 -166.5t283.5 -59.5q109 0 221 33v199h190v-284q-191 -98 -418 -98q-266 0 -415 99.5t-149 277.5 t146.5 277.5t406.5 99.5q240 0 430 -98v-162l-6 -1q-203 111 -406 111z" />
<glyph horiz-adv-x="1103" d="M462 780h-210l-2 3l225 196h227l226 -196l-2 -3h-210l-127 108zM611 592q-185 0 -283 -60t-98 -168q0 -107 97.5 -166.5t283.5 -59.5q109 0 221 33v199h190v-284q-191 -98 -418 -98q-266 0 -415 99.5t-149 277.5t146.5 277.5t406.5 99.5q240 0 430 -98v-162l-6 -1 q-203 111 -406 111z" />
<glyph horiz-adv-x="1103" d="M611 592q-185 0 -283 -60t-98 -168q0 -107 97.5 -166.5t283.5 -59.5q109 0 221 33v199h190v-284q-191 -98 -418 -98q-266 0 -415 99.5t-149 277.5t146.5 277.5t406.5 99.5q240 0 430 -98v-162l-6 -1q-203 111 -406 111zM495 -198v150h169v-123l-89 -154h-64l32 127h-48z " />
<glyph horiz-adv-x="1103" d="M694 966v-163h-208v163h208zM611 592q-185 0 -283 -60t-98 -168q0 -107 97.5 -166.5t283.5 -59.5q109 0 221 33v199h190v-284q-191 -98 -418 -98q-266 0 -415 99.5t-149 277.5t146.5 277.5t406.5 99.5q240 0 430 -98v-162l-6 -1q-203 111 -406 111z" />
<glyph horiz-adv-x="1026" d="M91 783l109 196h201l2 -3l-152 -196h-158zM763 783l109 196h201l2 -3l-152 -196h-158zM80 722h190v-722h-190v722zM400 18v158l6 3q74 -37 153 -37q102 0 149.5 53.5t47.5 162.5v364h190v-349q0 -385 -377 -385q-105 0 -169 30z" />
<glyph horiz-adv-x="950" d="M179 722h228v-141h-228v141zM545 722h228v-141h-228v141zM40 274q0 134 116.5 210.5t318.5 76.5t318.5 -76.5t116.5 -210.5q0 -133 -116.5 -209.5t-318.5 -76.5t-318.5 76.5t-116.5 209.5zM720 274q0 70 -64.5 108.5t-180.5 38.5t-180.5 -38.5t-64.5 -108.5 q0 -69 64.5 -107.5t180.5 -38.5t180.5 38.5t64.5 107.5z" />
<glyph horiz-adv-x="1105" d="M861 322q54 -16 87.5 -53.5t45.5 -76.5t30.5 -95t40.5 -91v-6h-198q-10 25 -32.5 99.5t-42.5 100.5t-54.5 37.5t-111.5 11.5h-356v-249h-190v722h618q154 0 235 -52.5t81 -151.5q0 -136 -153 -196zM270 399h400q73 0 111.5 23t38.5 67q0 45 -40 64t-130 19h-380v-173z " />
<glyph horiz-adv-x="1076" d="M557 768h-158l-2 3l109 196h201l2 -3zM861 322q54 -16 87.5 -53.5t45.5 -76.5t30.5 -95t40.5 -91v-6h-198q-10 25 -32.5 99.5t-42.5 100.5t-54.5 37.5t-111.5 11.5h-356v-249h-190v722h618q154 0 235 -52.5t81 -151.5q0 -136 -153 -196zM270 399h400q73 0 111.5 23 t38.5 67q0 45 -40 64t-130 19h-380v-173z" />
<glyph horiz-adv-x="1076" d="M616 780h-207l-245 196l2 3h220l127 -108l127 108h220l2 -3zM861 322q54 -16 87.5 -53.5t45.5 -76.5t30.5 -95t40.5 -91v-6h-198q-10 25 -32.5 99.5t-42.5 100.5t-54.5 37.5t-111.5 11.5h-356v-249h-190v722h618q154 0 235 -52.5t81 -151.5q0 -136 -153 -196zM270 399 h400q73 0 111.5 23t38.5 67q0 45 -40 64t-130 19h-380v-173z" />
<glyph horiz-adv-x="1076" d="M861 322q54 -16 87.5 -53.5t45.5 -76.5t30.5 -95t40.5 -91v-6h-198q-10 25 -32.5 99.5t-42.5 100.5t-54.5 37.5t-111.5 11.5h-356v-249h-190v722h618q154 0 235 -52.5t81 -151.5q0 -136 -153 -196zM270 399h400q73 0 111.5 23t38.5 67q0 45 -40 64t-130 19h-380v-173z M476 -198v150h169v-123l-89 -154h-64l32 127h-48z" />
<glyph d="M722 573h185v-573h-185v73q-99 -85 -289 -85q-184 0 -291 77.5t-107 214.5q0 139 107 222t284 83q192 0 296 -98v86zM471 123q121 0 186 42.5t65 121.5t-65 121t-186 42t-186 -42t-65 -121t65 -121.5t186 -42.5z" />
<glyph d="M541 642h-156l-2 3l122 210h205l2 -3zM722 573h185v-573h-185v73q-99 -85 -289 -85q-184 0 -291 77.5t-107 214.5q0 139 107 222t284 83q192 0 296 -98v86zM471 123q121 0 186 42.5t65 121.5t-65 121t-186 42t-186 -42t-65 -121t65 -121.5t186 -42.5z" />
<glyph d="M503 631q-143 0 -221.5 59t-78.5 165h147l3 -3q1 -113 150 -113t150 113l3 3h147q0 -106 -78.5 -165t-221.5 -59zM722 573h185v-573h-185v73q-99 -85 -289 -85q-184 0 -291 77.5t-107 214.5q0 139 107 222t284 83q192 0 296 -98v86zM471 123q121 0 186 42.5t65 121.5 t-65 121t-186 42t-186 -42t-65 -121t65 -121.5t186 -42.5z" />
<glyph d="M351 642h-189l-2 3l224 210h228l224 -209l-2 -4h-187l-148 130zM722 573h185v-573h-185v73q-99 -85 -289 -85q-184 0 -291 77.5t-107 214.5q0 139 107 222t284 83q192 0 296 -98v86zM471 123q121 0 186 42.5t65 121.5t-65 121t-186 42t-186 -42t-65 -121t65 -121.5 t186 -42.5z" />
<glyph d="M424 798v-156h-213v156h213zM771 798v-156h-213v156h213zM722 573h185v-573h-185v73q-99 -85 -289 -85q-184 0 -291 77.5t-107 214.5q0 139 107 222t284 83q192 0 296 -98v86zM471 123q121 0 186 42.5t65 121.5t-65 121t-186 42t-186 -42t-65 -121t65 -121.5t186 -42.5z " />
<glyph d="M610 642h-156l-171 210l2 3h205l122 -210zM722 573h185v-573h-185v73q-99 -85 -289 -85q-184 0 -291 77.5t-107 214.5q0 139 107 222t284 83q192 0 296 -98v86zM471 123q121 0 186 42.5t65 121.5t-65 121t-186 42t-186 -42t-65 -121t65 -121.5t186 -42.5z" />
<glyph d="M781 776v-123h-566v123h566zM722 573h185v-573h-185v73q-99 -85 -289 -85q-184 0 -291 77.5t-107 214.5q0 139 107 222t284 83q192 0 296 -98v86zM471 123q121 0 186 42.5t65 121.5t-65 121t-186 42t-186 -42t-65 -121t65 -121.5t186 -42.5z" />
<glyph d="M471 621q-99 0 -154 35.5t-55 96.5t54.5 95.5t154.5 34.5t154.5 -34.5t54.5 -95.5t-55 -96.5t-154 -35.5zM471 803q-40 0 -63.5 -14.5t-23.5 -35.5q0 -22 23.5 -37t63.5 -15t63.5 15t23.5 37q0 21 -23.5 35.5t-63.5 14.5zM722 573h185v-573h-185v73q-99 -85 -289 -85 q-184 0 -291 77.5t-107 214.5q0 139 107 222t284 83q192 0 296 -98v86zM471 123q121 0 186 42.5t65 121.5t-65 121t-186 42t-186 -42t-65 -121t65 -121.5t186 -42.5z" />
<glyph d="M312 654h-134q-5 83 45 135.5t136 51.5q61 0 150.5 -37t113.5 -37q25 0 38.5 17.5t11.5 47.5l3 2h134q2 -84 -44 -134.5t-126 -50.5q-58 0 -150.5 37t-116.5 37q-26 0 -42.5 -18.5t-15.5 -48.5zM722 573h185v-573h-185v73q-99 -85 -289 -85q-184 0 -291 77.5t-107 214.5 q0 139 107 222t284 83q192 0 296 -98v86zM471 123q121 0 186 42.5t65 121.5t-65 121t-186 42t-186 -42t-65 -121t65 -121.5t186 -42.5z" />
<glyph d="M907 0q-178 -58 -178 -117q0 -38 77 -38q52 0 97 15l4 -1v-99q-42 -12 -116 -12q-214 0 -214 107q0 45 38.5 78.5t123.5 66.5h-17v73q-99 -85 -289 -85q-184 0 -291 77.5t-107 214.5q0 139 107 222t284 83q192 0 296 -98v86h185v-573zM471 123q121 0 186 42.5t65 121.5 t-65 121t-186 42t-186 -42t-65 -121t65 -121.5t186 -42.5z" />
<glyph horiz-adv-x="325" d="M56 798h213v-156h-213v156zM70 573h185v-573h-185v573z" />
<glyph horiz-adv-x="1236" d="M886 453q310 -16 310 -215q0 -117 -110.5 -183.5t-316.5 -66.5q-177 0 -389 51v158l8 2q180 -61 381 -61q114 0 175.5 27.5t61.5 78.5q0 98 -302 98h-102l-5 7l183 221q-69 22 -177 22q-169 0 -251 -58t-82 -190v-344h-190v365q0 377 525 377q132 0 250 -32t177 -78z" />
<glyph horiz-adv-x="874" d="M804 521v-521h-185v405h-276v-405h-185v405h-133v116h133q7 113 80.5 167t218.5 54q55 0 113 -10v-123l-7 -2q-26 8 -74 8q-76 0 -111 -22t-35 -72h461z" />
<glyph horiz-adv-x="1335" d="M1265 521v-521h-185v405h-276v-405h-185v405h-276v-405h-185v405h-133v116h133q7 113 80.5 167t218.5 54q55 0 113 -10v-123l-7 -2q-26 8 -74 8q-76 0 -111 -22t-35 -72h276q7 113 80.5 167t218.5 54q55 0 113 -10v-123l-7 -2q-26 8 -74 8q-76 0 -111 -22t-35 -72h461z " />
<glyph horiz-adv-x="645" d="M80 645l122 210h205l2 -3l-171 -210h-156zM402 642l-2 3l150 210h203l2 -3l-196 -210h-157zM70 573h185v-573h-185v573zM250 -248v137l6 4q81 -7 110.5 22.5t29.5 122.5v535h184v-539q0 -137 -76 -211.5t-210 -74.5q-26 0 -44 4z" />
<glyph horiz-adv-x="1082" d="M541 742q230 0 365.5 -100.5t135.5 -276.5t-135.5 -276.5t-365.5 -100.5t-365.5 100.5t-135.5 276.5t135.5 276.5t365.5 100.5zM220 365q0 -121 106 -181l294 403q-42 5 -79 5q-149 0 -235 -59t-86 -168zM541 138q149 0 235 59t86 168q0 121 -106 180l-293 -402 q40 -5 78 -5z" />
<glyph horiz-adv-x="1082" d="M541 742q230 0 365.5 -100.5t135.5 -276.5t-135.5 -276.5t-365.5 -100.5t-365.5 100.5t-135.5 276.5t135.5 276.5t365.5 100.5zM220 365q0 -121 106 -181l294 403q-42 5 -79 5q-149 0 -235 -59t-86 -168zM541 138q149 0 235 59t86 168q0 121 -106 180l-293 -402 q40 -5 78 -5z" />
<glyph horiz-adv-x="579" d="M334 544l-301 -122l-3 2v149l337 149h142v-722h-175v544z" />
<glyph horiz-adv-x="939" d="M30 31q0 95 35 159t124.5 115t248.5 91q133 34 195 54t79 32.5t17 30.5q0 35 -61.5 56.5t-168.5 21.5q-254 0 -430 -119l-6 3v163q175 105 440 105q406 0 406 -229q0 -60 -30.5 -101.5t-111 -77.5t-225.5 -70q-131 -31 -189.5 -57t-71.5 -58h627v-150h-878v31z" />
<glyph horiz-adv-x="963" d="M788 384q135 -47 135 -163q0 -110 -126.5 -171.5t-351.5 -61.5q-252 0 -425 95v165l5 3q169 -112 434 -112q136 0 210 25.5t74 71.5q0 69 -186 69h-289v143h292q154 0 154 60q0 37 -71.5 60t-186.5 23q-245 0 -412 -113l-4 3v164q178 97 410 97q204 0 324 -56t120 -152 t-106 -150z" />
<glyph horiz-adv-x="998" d="M978 312v-143h-142v-169h-180v169h-626v114l647 439h159v-410h142zM316 312h340v231z" />
<glyph horiz-adv-x="999" d="M555 498q196 0 305 -62.5t109 -184.5q0 -129 -123.5 -196t-351.5 -67q-269 0 -461 104v170l8 3q192 -123 466 -123q136 0 209 28t73 82q0 105 -259 105q-175 0 -343 -77l-157 101l81 341h798v-143h-661l-38 -151q102 41 174.5 55.5t170.5 14.5z" />
<glyph horiz-adv-x="1039" d="M40 341q0 193 136 297t388 104q206 0 356 -60v-156l-9 -2q-173 70 -354 70q-131 0 -212.5 -37.5t-104.5 -108.5q109 53 325 53q219 0 331.5 -64t112.5 -186q0 -128 -123.5 -195.5t-349.5 -67.5q-246 0 -371 85.5t-125 267.5zM829 256q0 116 -296 116q-153 0 -223.5 -26 t-70.5 -84q0 -119 306 -119q148 0 216 26.5t68 86.5z" />
<glyph horiz-adv-x="879" d="M630 578h-620v144h859v-129q-203 -147 -295 -278.5t-121 -314.5h-185q33 189 117 318.5t245 259.5z" />
<glyph horiz-adv-x="1044" d="M825 387q95 -28 137 -69t42 -104q0 -111 -124 -168.5t-358 -57.5t-358 57.5t-124 168.5q0 63 42 104t137 69q-76 25 -111 61.5t-35 91.5q0 100 115 151t334 51t334 -51t115 -151q0 -55 -35 -91.5t-111 -61.5zM522 595q-269 0 -269 -73q0 -77 269 -77t269 77q0 73 -269 73 zM522 138q155 0 228.5 22.5t73.5 70.5q0 91 -302 91t-302 -91q0 -48 73.5 -70.5t228.5 -22.5z" />
<glyph horiz-adv-x="1033" d="M104 47v157l9 2q168 -70 351 -70q131 0 214.5 37.5t111.5 108.5q-115 -53 -328 -53t-322.5 63t-109.5 185q0 129 128.5 197t355.5 68q245 0 362 -85t117 -264q0 -194 -143 -299.5t-392 -105.5q-214 0 -354 59zM800 469q0 61 -74 89.5t-228 28.5q-149 0 -218.5 -27 t-69.5 -86q0 -62 68.5 -89t222.5 -27q157 0 228 26.5t71 84.5z" />
<glyph horiz-adv-x="756" d="M50 537q0 116 88.5 181t239.5 65t239.5 -65t88.5 -181q0 -115 -88.5 -180.5t-239.5 -65.5t-239.5 65.5t-88.5 180.5zM576 537q0 67 -53 102.5t-145 35.5t-145.5 -35.5t-53.5 -102.5t53.5 -102.5t145.5 -35.5t145 35.5t53 102.5z" />
<glyph horiz-adv-x="424" d="M248 644l-198 -80v109l220 97h104v-471h-126v345z" />
<glyph horiz-adv-x="677" d="M50 319q0 98 59.5 154t199.5 87q70 15 102.5 23t54.5 16t26.5 13.5t4.5 14.5q0 47 -139 47q-166 0 -282 -77l-4 2v116q112 69 281 69q131 0 202.5 -42.5t71.5 -119.5q0 -61 -48.5 -93.5t-190.5 -62.5q-98 -21 -132 -32.5t-41 -26.5h411v-108h-576v20z" />
<glyph horiz-adv-x="690" d="M50 352v118l3 2q110 -72 283 -72q174 0 174 55q0 38 -114 38h-184v103h187q92 0 92 32q0 20 -44.5 33t-113.5 13q-159 0 -267 -72l-3 2v117q113 62 266 62q135 0 213.5 -36.5t78.5 -99.5t-69 -96q88 -29 88 -108q0 -71 -83.5 -111.5t-230.5 -40.5q-166 0 -276 61z" />
<glyph horiz-adv-x="725" d="M675 513v-102h-95v-112h-129v112h-401v82l413 277h117v-257h95zM252 513h199v132z" />
<glyph horiz-adv-x="718" d="M396 624q130 0 201 -40.5t71 -120.5q0 -85 -80.5 -128.5t-231.5 -43.5q-177 0 -304 68v122l6 2q126 -81 307 -81q174 0 174 62q0 59 -162 59q-109 0 -215 -44l-112 72l54 219h500v-102h-402l-22 -85q70 24 115 32.5t101 8.5z" />
<glyph horiz-adv-x="736" d="M50 521q0 126 89.5 194t255.5 68q134 0 233 -39v-112l-6 -1q-113 46 -232 46q-88 0 -134.5 -23.5t-61.5 -76.5q73 48 203 48q143 0 216 -42t73 -121q0 -84 -81 -127.5t-229 -43.5q-326 0 -326 230zM557 466q0 37 -41.5 52t-142.5 15q-96 0 -138.5 -14.5t-42.5 -48.5 q0 -67 190 -67q93 0 134 14.5t41 48.5z" />
<glyph horiz-adv-x="661" d="M441 667h-391v103h561v-94q-132 -96 -189.5 -178.5t-76.5 -198.5h-133q21 120 73 201.5t156 166.5z" />
<glyph horiz-adv-x="734" d="M569 551q62 -18 88.5 -44t26.5 -67q0 -73 -81.5 -111t-235.5 -38t-235.5 38t-81.5 111q0 41 27 67t89 44q-50 16 -72 39.5t-22 59.5q0 133 295 133q296 0 296 -133q0 -36 -22 -59.5t-72 -39.5zM367 678q-166 0 -166 -41q0 -44 166 -44t166 44q0 41 -166 41zM367 399 q188 0 188 53q0 54 -188 54t-188 -54q0 -53 188 -53z" />
<glyph horiz-adv-x="732" d="M99 330v112l6 1q109 -45 230 -45q94 0 146 23t54 65q-23 -16 -79 -26t-123 -10q-283 0 -283 160q0 83 83.5 128t235.5 45q161 0 237 -55.5t76 -172.5q0 -126 -94 -195t-257 -69q-140 0 -232 39zM544 604q0 35 -44.5 51t-142.5 16q-94 0 -136 -14.5t-42 -49.5t41.5 -50.5 t137.5 -15.5q98 0 142 15t44 48z" />
<glyph horiz-adv-x="756" d="M50 185q0 116 88.5 181t239.5 65t239.5 -65t88.5 -181q0 -115 -88.5 -180.5t-239.5 -65.5t-239.5 65.5t-88.5 180.5zM576 185q0 67 -53 102.5t-145 35.5t-145.5 -35.5t-53.5 -102.5t53.5 -102.5t145.5 -35.5t145 35.5t53 102.5z" />
<glyph horiz-adv-x="424" d="M248 297l-198 -80v109l220 97h104v-471h-126v345z" />
<glyph horiz-adv-x="677" d="M50 -28q0 98 59.5 154t199.5 87q70 15 102.5 23t54.5 16t26.5 13.5t4.5 14.5q0 47 -139 47q-166 0 -282 -77l-4 2v116q112 69 281 69q131 0 202.5 -42.5t71.5 -119.5q0 -61 -48.5 -93.5t-190.5 -62.5q-98 -21 -132 -32.5t-41 -26.5h411v-108h-576v20z" />
<glyph horiz-adv-x="690" d="M50 0v118l3 2q110 -72 283 -72q174 0 174 55q0 38 -114 38h-184v103h187q92 0 92 32q0 20 -44.5 33t-113.5 13q-159 0 -267 -72l-3 2v117q113 62 266 62q135 0 213.5 -36.5t78.5 -99.5t-69 -96q88 -29 88 -108q0 -71 -83.5 -111.5t-230.5 -40.5q-166 0 -276 61z" />
<glyph horiz-adv-x="725" d="M675 166v-102h-95v-112h-129v112h-401v82l413 277h117v-257h95zM252 166h199v132z" />
<glyph horiz-adv-x="718" d="M396 272q130 0 201 -40.5t71 -120.5q0 -85 -80.5 -128.5t-231.5 -43.5q-177 0 -304 68v122l6 2q126 -81 307 -81q174 0 174 62q0 59 -162 59q-109 0 -215 -44l-112 72l54 219h500v-102h-402l-22 -85q70 24 115 32.5t101 8.5z" />
<glyph horiz-adv-x="736" d="M50 169q0 126 89.5 194t255.5 68q134 0 233 -39v-112l-6 -1q-113 46 -232 46q-88 0 -134.5 -23.5t-61.5 -76.5q73 48 203 48q143 0 216 -42t73 -121q0 -84 -81 -127.5t-229 -43.5q-326 0 -326 230zM557 114q0 37 -41.5 52t-142.5 15q-96 0 -138.5 -14.5t-42.5 -48.5 q0 -67 190 -67q93 0 134 14.5t41 48.5z" />
<glyph horiz-adv-x="661" d="M441 320h-391v103h561v-94q-132 -96 -189.5 -178.5t-76.5 -198.5h-133q21 120 73 201.5t156 166.5z" />
<glyph horiz-adv-x="734" d="M569 199q62 -18 88.5 -44t26.5 -67q0 -73 -81.5 -111t-235.5 -38t-235.5 38t-81.5 111q0 41 27 67t89 44q-50 16 -72 39.5t-22 59.5q0 133 295 133q296 0 296 -133q0 -36 -22 -59.5t-72 -39.5zM367 326q-166 0 -166 -41q0 -44 166 -44t166 44q0 41 -166 41zM367 47 q188 0 188 53q0 54 -188 54t-188 -54q0 -53 188 -53z" />
<glyph horiz-adv-x="732" d="M99 -22v112l6 1q109 -45 230 -45q94 0 146 23t54 65q-23 -16 -79 -26t-123 -10q-283 0 -283 160q0 83 83.5 128t235.5 45q161 0 237 -55.5t76 -172.5q0 -126 -94 -195t-257 -69q-140 0 -232 39zM544 252q0 35 -44.5 51t-142.5 16q-94 0 -136 -14.5t-42 -49.5t41.5 -50.5 t137.5 -15.5q98 0 142 15t44 48z" />
<glyph horiz-adv-x="756" d="M50 496q0 116 88.5 181t239.5 65t239.5 -65t88.5 -181q0 -115 -88.5 -180.5t-239.5 -65.5t-239.5 65.5t-88.5 180.5zM576 496q0 68 -53 103t-145 35t-145.5 -35.5t-53.5 -102.5t53.5 -102.5t145.5 -35.5t145 35t53 103z" />
<glyph horiz-adv-x="424" d="M248 596l-198 -80v109l220 97h104v-471h-126v345z" />
<glyph horiz-adv-x="677" d="M50 277q0 98 59.5 154t199.5 87q70 15 102.5 23t54.5 16t26.5 13.5t4.5 14.5q0 47 -139 47q-166 0 -282 -77l-4 2v116q112 69 281 69q131 0 202.5 -42.5t71.5 -119.5q0 -61 -48.5 -93.5t-190.5 -62.5q-98 -21 -132 -32.5t-41 -26.5h411v-108h-576v20z" />
<glyph horiz-adv-x="690" d="M50 311v118l3 2q110 -72 283 -72q174 0 174 55q0 38 -114 38h-184v103h187q92 0 92 32q0 20 -44.5 33t-113.5 13q-159 0 -267 -72l-3 2v117q113 62 266 62q135 0 213.5 -36.5t78.5 -99.5t-69 -96q88 -29 88 -108q0 -71 -83.5 -111.5t-230.5 -40.5q-166 0 -276 61z" />
<glyph horiz-adv-x="725" d="M675 465v-102h-95v-112h-129v112h-401v82l413 277h117v-257h95zM252 465h199v132z" />
<glyph horiz-adv-x="718" d="M396 576q130 0 201 -40.5t71 -120.5q0 -85 -80.5 -128.5t-231.5 -43.5q-177 0 -304 68v122l6 2q126 -81 307 -81q174 0 174 62q0 59 -162 59q-109 0 -215 -44l-112 72l54 219h500v-102h-402l-22 -85q70 24 115 32.5t101 8.5z" />
<glyph horiz-adv-x="736" d="M50 480q0 126 89.5 194t255.5 68q134 0 233 -39v-112l-6 -1q-113 46 -232 46q-88 0 -134.5 -23.5t-61.5 -76.5q73 48 203 48q143 0 216 -42t73 -121q0 -84 -81 -127.5t-229 -43.5q-326 0 -326 230zM557 425q0 37 -41.5 52t-142.5 15q-96 0 -138.5 -14.5t-42.5 -48.5 q0 -67 190 -67q93 0 134 14.5t41 48.5z" />
<glyph horiz-adv-x="661" d="M441 619h-391v103h561v-94q-132 -96 -189.5 -178.5t-76.5 -198.5h-133q21 120 73 201.5t156 166.5z" />
<glyph horiz-adv-x="734" d="M569 510q62 -18 88.5 -44t26.5 -67q0 -73 -81.5 -111t-235.5 -38t-235.5 38t-81.5 111q0 41 27 67t89 44q-50 16 -72 39.5t-22 59.5q0 133 295 133q296 0 296 -133q0 -36 -22 -59.5t-72 -39.5zM367 637q-166 0 -166 -41q0 -44 166 -44t166 44q0 41 -166 41zM367 358 q188 0 188 53q0 54 -188 54t-188 -54q0 -53 188 -53z" />
<glyph horiz-adv-x="732" d="M99 289v112l6 1q109 -45 230 -45q94 0 146 23t54 65q-23 -16 -79 -26t-123 -10q-283 0 -283 160q0 83 83.5 128t235.5 45q161 0 237 -55.5t76 -172.5q0 -126 -94 -195t-257 -69q-140 0 -232 39zM544 563q0 35 -44.5 51t-142.5 16q-94 0 -136 -14.5t-42 -49.5t41.5 -50.5 t137.5 -15.5q98 0 142 15t44 48z" />
<glyph horiz-adv-x="756" d="M50 234q0 116 88.5 181t239.5 65t239.5 -65t88.5 -181q0 -115 -88.5 -180.5t-239.5 -65.5t-239.5 65.5t-88.5 180.5zM576 234q0 68 -53 103t-145 35t-145.5 -35.5t-53.5 -102.5t53.5 -102.5t145.5 -35.5t145 35t53 103z" />
<glyph horiz-adv-x="424" d="M248 345l-198 -80v109l220 97h104v-471h-126v345z" />
<glyph horiz-adv-x="677" d="M50 20q0 98 59.5 154t199.5 87q70 15 102.5 23t54.5 16t26.5 13.5t4.5 14.5q0 47 -139 47q-166 0 -282 -77l-4 2v116q112 69 281 69q131 0 202.5 -42.5t71.5 -119.5q0 -61 -48.5 -93.5t-190.5 -62.5q-98 -21 -132 -32.5t-41 -26.5h411v-108h-576v20z" />
<glyph horiz-adv-x="690" d="M50 49v118l3 2q110 -72 283 -72q174 0 174 55q0 38 -114 38h-184v103h187q92 0 92 32q0 20 -44.5 33t-113.5 13q-159 0 -267 -72l-3 2v117q113 62 266 62q135 0 213.5 -36.5t78.5 -99.5t-69 -96q88 -29 88 -108q0 -71 -83.5 -111.5t-230.5 -40.5q-166 0 -276 61z" />
<glyph horiz-adv-x="725" d="M675 214v-102h-95v-112h-129v112h-401v82l413 277h117v-257h95zM252 214h199v132z" />
<glyph horiz-adv-x="718" d="M396 321q130 0 201 -40.5t71 -120.5q0 -85 -80.5 -128.5t-231.5 -43.5q-177 0 -304 68v122l6 2q126 -81 307 -81q174 0 174 62q0 59 -162 59q-109 0 -215 -44l-112 72l54 219h500v-102h-402l-22 -85q70 24 115 32.5t101 8.5z" />
<glyph horiz-adv-x="736" d="M50 218q0 126 89.5 194t255.5 68q134 0 233 -39v-112l-6 -1q-113 46 -232 46q-88 0 -134.5 -23.5t-61.5 -76.5q73 48 203 48q143 0 216 -42t73 -121q0 -84 -81 -127.5t-229 -43.5q-326 0 -326 230zM557 163q0 37 -41.5 52t-142.5 15q-96 0 -138.5 -14.5t-42.5 -48.5 q0 -67 190 -67q93 0 134 14.5t41 48.5z" />
<glyph horiz-adv-x="661" d="M441 368h-391v103h561v-94q-132 -96 -189.5 -178.5t-76.5 -198.5h-133q21 120 73 201.5t156 166.5z" />
<glyph horiz-adv-x="734" d="M569 248q62 -18 88.5 -44t26.5 -67q0 -73 -81.5 -111t-235.5 -38t-235.5 38t-81.5 111q0 41 27 67t89 44q-50 16 -72 39.5t-22 59.5q0 133 295 133q296 0 296 -133q0 -36 -22 -59.5t-72 -39.5zM367 375q-166 0 -166 -41q0 -44 166 -44t166 44q0 41 -166 41zM367 96 q188 0 188 53q0 54 -188 54t-188 -54q0 -53 188 -53z" />
<glyph horiz-adv-x="732" d="M99 27v112l6 1q109 -45 230 -45q94 0 146 23t54 65q-23 -16 -79 -26t-123 -10q-283 0 -283 160q0 83 83.5 128t235.5 45q161 0 237 -55.5t76 -172.5q0 -126 -94 -195t-257 -69q-140 0 -232 39zM544 301q0 35 -44.5 51t-142.5 16q-94 0 -136 -14.5t-42 -49.5t41.5 -50.5 t137.5 -15.5q98 0 142 15t44 48z" />
<glyph horiz-adv-x="286" d="M50 556v166h186v-166h-186zM52 272l7 236h166l7 -236v-272h-180v272z" />
<glyph horiz-adv-x="878" d="M537 564h-186v166h186v-166zM828 350q0 -80 -82 -113q-68 -27 -278 -43q-21 -2 -82 -6q-89 -6 -122.5 -13.5t-33.5 -22.5q0 -31 143 -31q104 0 218.5 12t181.5 32l4 -2v-134q-158 -41 -371 -41q-187 0 -271.5 37t-84.5 124q0 20 4.5 37.5t15.5 31.5t22.5 25t33.5 20.5 t41 16.5t52.5 13t59 10t70 8.5t77 7.5t86.5 7q113 9 127 16q8 5 9 13q0 10 -15 16.5t-52 9.5t-102 3q-241 0 -409 -58l-4 2v137q156 53 378 53q200 0 292 -41t92 -127z" />
<glyph horiz-adv-x="807" d="M50 301v120l334 180v-160l-157 -80l157 -80v-160zM757 601v-160l-157 -80l157 -80v-160l-334 180v120z" />
<glyph horiz-adv-x="807" d="M50 441v160l334 -180v-120l-334 -180v160l157 80zM423 601l334 -180v-120l-334 -180v160l157 80l-157 80v160z" />
<glyph horiz-adv-x="434" d="M384 601v-160l-157 -80l157 -80v-160l-334 180v120z" />
<glyph horiz-adv-x="434" d="M50 601l334 -180v-120l-334 -180v160l157 80l-157 80v160z" />
<glyph horiz-adv-x="596" d="M238 -10v182q0 55 -29 89t-84 34h-25v132h25q55 0 84 34t29 89v182q0 71 43 113t117 42h173v-120h-147q-27 0 -27 -32v-162q0 -87 -29 -138t-98 -74q69 -23 98 -74t29 -138v-162q0 -32 27 -32h147v-120h-173q-74 0 -117 42t-43 113z" />
<glyph horiz-adv-x="596" d="M198 -165h-173v120h147q27 0 27 32v162q0 87 29 138t98 74q-69 23 -98 74t-29 138v162q0 32 -27 32h-147v120h173q74 0 117 -42t43 -113v-182q0 -55 29 -89t84 -34h25v-132h-25q-55 0 -84 -34t-29 -89v-182q0 -71 -43 -113t-117 -42z" />
<glyph horiz-adv-x="458" d="M100 887h333v-120h-174v-812h174v-120h-333v1052z" />
<glyph horiz-adv-x="458" d="M358 887v-1052h-333v120h174v812h-174v120h333z" />
<glyph horiz-adv-x="548" d="M100 362q0 142 64.5 287t168.5 238h185l2 -5q-111 -84 -184.5 -227t-73.5 -293q0 -151 74.5 -294.5t186.5 -227.5l-2 -5h-188q-104 93 -168.5 238t-64.5 289z" />
<glyph horiz-adv-x="548" d="M215 -165h-188l-2 5q112 84 186.5 227.5t74.5 294.5q0 150 -73.5 293t-184.5 227l2 5h185q104 -93 168.5 -238t64.5 -287q0 -144 -64.5 -289t-168.5 -238z" />
<glyph horiz-adv-x="600" d="M50 436h500v-149l-500 -1v150z" />
<glyph horiz-adv-x="950" d="M50 436h850v-150h-850v150z" />
<glyph horiz-adv-x="1700" d="M50 436h1600v-150h-1600v150z" />
<glyph horiz-adv-x="664" d="M533 615q-79 0 -112.5 -25t-33.5 -92v-91h227v-116h-227v-307q0 -233 -299 -233q-55 0 -113 10v123l7 2q26 -8 74 -8q79 0 112.5 24.5t33.5 89.5v299h-133v116h133v102q0 115 76.5 174t222.5 59q55 0 113 -10v-123l-7 -2q-26 8 -74 8z" />
</font>
</defs>
</svg>
