<?xml version="1.0" standalone="no"?>
<!DOCTYPE svg PUBLIC "-//W3C//DTD SVG 1.1//EN" "http://www.w3.org/Graphics/SVG/1.1/DTD/svg11.dtd" >
<svg xmlns="http://www.w3.org/2000/svg" xmlns:xlink="http://www.w3.org/1999/xlink" version="1.1">
<metadata></metadata>
<defs>
<font id="panoregular" horiz-adv-x="971" >
<font-face units-per-em="1000" ascent="768" descent="-232" />
<missing-glyph horiz-adv-x="308" />
<glyph unicode="fi" horiz-adv-x="810" d="M730 534v-534h-122v447h-319v-447h-122v447h-133v87h134q21 208 276 208q51 0 103 -10v-87l-6 -2q-29 8 -77 8q-86 0 -128.5 -28t-46.5 -89h441z" />
<glyph unicode="fl" horiz-adv-x="810" d="M608 722h122v-722h-122v447h-319v-447h-122v447h-133v87h134q21 208 276 208q51 0 103 -10v-87l-6 -2q-29 8 -77 8q-86 0 -128.5 -28t-46.5 -89h319v188z" />
<glyph unicode="ff" horiz-adv-x="1048" d="M885 742q51 0 103 -10v-87l-6 -2q-29 8 -77 8q-86 0 -128.5 -28t-46.5 -89h231v-87h-231v-447h-122v447h-319v-447h-122v447h-133v87h134q21 208 276 208q51 0 103 -10v-87l-6 -2q-29 8 -77 8q-86 0 -128.5 -28t-46.5 -89h320q21 208 276 208z" />
<glyph unicode="ft" horiz-adv-x="935" d="M916 447h-186v-203q0 -91 37 -126t128 -35h16l5 -3v-90q-32 -2 -52 -2q-256 0 -256 247v212h-319v-447h-122v447h-133v87h134q7 100 81 154t203 54t199.5 -53.5t77.5 -154.5h187v-87zM451 655q-152 0 -162 -121h319q-10 121 -157 121z" />
<glyph unicode="fft" horiz-adv-x="1376" d="M1357 447h-186v-203q0 -91 37 -126t128 -35h16l5 -3v-90q-32 -2 -52 -2q-256 0 -256 247v212h-319v-447h-122v447h-319v-447h-122v447h-133v87h134q21 208 276 208q51 0 103 -10v-87l-6 -2q-29 8 -77 8q-86 0 -128.5 -28t-46.5 -89h320q7 100 81 154t203 54t199.5 -53.5 t77.5 -154.5h187v-87zM892 655q-152 0 -162 -121h319q-10 121 -157 121z" />
<glyph unicode="ffi" horiz-adv-x="1251" d="M1171 534v-534h-122v447h-319v-447h-122v447h-319v-447h-122v447h-133v87h134q21 208 276 208q51 0 103 -10v-87l-6 -2q-29 8 -77 8q-86 0 -128.5 -28t-46.5 -89h320q21 208 276 208q51 0 103 -10v-87l-6 -2q-29 8 -77 8q-86 0 -128.5 -28t-46.5 -89h441z" />
<glyph unicode="ij" horiz-adv-x="534" d="M63 761h156v-117h-156v117zM338 761h156v-117h-156v117zM79 565h122v-565h-122v565zM215 -248v92l6 4q74 -7 104.5 27t30.5 116v574h121v-577q0 -113 -59 -176.5t-161 -63.5q-24 0 -42 4z" />
<glyph horiz-adv-x="0" />
<glyph horiz-adv-x="333" />
<glyph unicode="&#xd;" horiz-adv-x="600" />
<glyph unicode=" "  horiz-adv-x="308" />
<glyph unicode="&#x09;" horiz-adv-x="308" />
<glyph unicode="&#xa0;" horiz-adv-x="308" />
<glyph unicode="!" horiz-adv-x="255" d="M66 450v272h122v-272l-7 -236h-108zM50 131h155v-131h-155v131z" />
<glyph unicode="&#x22;" horiz-adv-x="415" d="M50 597v125h117v-125l-7 -141h-103zM248 597v125h117v-125l-7 -141h-103z" />
<glyph unicode="#" horiz-adv-x="1145" d="M1095 452h-257l-56 -180h222v-85h-249l-58 -187h-108l58 187h-259l-58 -187h-108l58 187h-230v85h256l56 180h-221v85h248l57 185h108l-57 -185h259l57 185h109l-58 -185h231v-85zM673 272l56 180h-259l-56 -180h259z" />
<glyph unicode="$" horiz-adv-x="1091" d="M1031 215q0 -112 -106.5 -167.5t-336.5 -59.5v-100h-89v100q-264 6 -432 62v113l6 3q181 -67 426 -73v227q-62 4 -107.5 9t-100 14.5t-91.5 24.5t-70 36.5t-49.5 52.5t-16.5 71q0 101 111.5 155.5t323.5 58.5v102h89v-103q219 -8 393 -62v-107l-6 -2q-174 57 -387 67 v-208q64 -5 109.5 -10t101 -15t93.5 -25t71.5 -37t50.5 -54t17 -73zM193 536q0 -19 10.5 -33.5t33 -24.5t46.5 -17t63.5 -12t71 -8t81.5 -6v203q-142 -3 -224 -31t-82 -71zM588 92q315 7 315 117q0 19 -11 34.5t-34 26t-48 18t-65.5 12.5t-73.5 8t-83 6v-222z" />
<glyph unicode="%" horiz-adv-x="1649" d="M50 492q0 116 89.5 182.5t240.5 66.5t240.5 -66.5t89.5 -182.5q0 -115 -90 -182t-240 -67t-240 67t-90 182zM483 4l565 718h110l2 -4l-564 -718h-110zM609 492q0 78 -61.5 122t-167.5 44t-167.5 -44t-61.5 -122t61.5 -121.5t167.5 -43.5t167.5 43.5t61.5 121.5zM940 237 q0 116 89.5 182.5t240.5 66.5t240.5 -66.5t89.5 -182.5q0 -115 -90 -182t-240 -67t-240 67t-90 182zM1499 237q0 78 -61.5 122t-167.5 44t-167.5 -44t-61.5 -122t61.5 -121.5t167.5 -43.5t167.5 43.5t61.5 121.5z" />
<glyph unicode="&#x26;" horiz-adv-x="1408" d="M1060 153q70 -33 323 -147v-6h-228q-127 57 -198 91q-202 -103 -450 -103q-222 0 -339.5 67.5t-117.5 186.5q0 103 85.5 161.5t233.5 61.5q-31 47 -31 94q0 183 388 183q195 0 287 -45.5t92 -139.5q0 -88 -76 -136.5t-217 -48.5h-174q96 -62 308 -165q173 98 348 286 l4 -2v-142q-127 -123 -238 -196zM730 647q-260 0 -260 -96q0 -42 54 -86h260q198 0 198 89q0 48 -60 70.5t-192 22.5zM503 90q173 0 328 62q-258 127 -374 220h-47q-111 0 -171 -33t-60 -91q0 -70 84.5 -114t239.5 -44z" />
<glyph unicode="'" horiz-adv-x="217" d="M50 597v125h117v-125l-7 -141h-103z" />
<glyph unicode="(" horiz-adv-x="501" d="M100 328q0 139 63 273.5t170 226.5h138l2 -5q-111 -79 -183.5 -215.5t-72.5 -279.5q0 -144 73.5 -280t185.5 -215l-2 -5h-141q-107 91 -170 226t-63 274z" />
<glyph unicode=")" horiz-adv-x="501" d="M168 -172h-141l-2 5q112 79 185.5 215t73.5 280q0 143 -72.5 279.5t-183.5 215.5l2 5h138q107 -92 170 -226.5t63 -273.5t-63 -274t-170 -226z" />
<glyph unicode="*" horiz-adv-x="868" d="M818 577v-76h-234l177 -123l-64 -65l-213 170v-170h-99v170l-212 -170l-64 65l177 123h-236v76h335v145h99v-145h334z" />
<glyph unicode="+" horiz-adv-x="889" d="M839 410v-96h-341v-218h-108v218h-340v96h340v217h108v-217h341z" />
<glyph unicode="," horiz-adv-x="268" d="M50 140h168v-116l-107 -196h-50l44 172h-55v140z" />
<glyph unicode="-" horiz-adv-x="537" d="M50 340h437v-98l-437 -1v99z" />
<glyph unicode="." horiz-adv-x="267" d="M50 141h167v-141h-167v141z" />
<glyph unicode="/" horiz-adv-x="640" d="M-46 -118l618 965h112l3 -4l-618 -965h-113z" />
<glyph unicode="0" horiz-adv-x="1093" d="M49 365q0 174 136 275.5t362 101.5q225 0 361 -101.5t136 -275.5t-136 -275.5t-361 -101.5q-226 0 -362 101.5t-136 275.5zM921 365q0 128 -100.5 202t-273.5 74t-274 -74t-101 -202t101 -202t274 -74t273.5 74t100.5 202z" />
<glyph unicode="1" horiz-adv-x="546" d="M347 595l-304 -134l-4 2v101l341 158h87v-722h-120v595z" />
<glyph unicode="2" horiz-adv-x="944" d="M39 30q0 136 95 213.5t348 141.5q138 35 200 57t81 39.5t19 45.5q0 51 -76 82.5t-206 31.5q-246 0 -422 -120l-6 3v113q170 105 430 105q192 0 297.5 -55t105.5 -160q0 -57 -31 -94.5t-109.5 -70.5t-228.5 -70q-184 -45 -259.5 -87t-84.5 -104h712v-101h-865v30z" />
<glyph unicode="3" horiz-adv-x="981" d="M791 381q140 -47 140 -161q0 -110 -124 -171t-346 -61q-246 0 -432 101v113l5 3q178 -116 438 -116q160 0 248.5 35.5t88.5 99.5q0 103 -223 103h-309v98h310q93 0 143 24.5t50 69.5q0 56 -81.5 89t-220.5 33q-130 0 -232 -28.5t-193 -89.5l-3 3v113q190 103 425 103 q195 0 311 -56.5t116 -151.5q0 -97 -111 -153z" />
<glyph unicode="4" horiz-adv-x="986" d="M957 260v-99h-132v-161h-121v161h-665v78l692 483h94v-462h132zM244 260h460v323z" />
<glyph unicode="5" horiz-adv-x="991" d="M548 499q191 0 297.5 -65t106.5 -184q0 -127 -122 -194.5t-340 -67.5q-259 0 -449 104v115l8 3q186 -120 449 -120q158 0 244.5 42t86.5 118q0 72 -77 112t-217 40q-106 0 -197 -26t-187 -84l-110 73l76 357h778v-98h-684l-46 -219q93 50 183 72t200 22z" />
<glyph unicode="6" horiz-adv-x="1039" d="M49 345q0 192 132.5 294.5t379.5 102.5q203 0 351 -60v-109l-9 -2q-167 71 -348 71q-162 0 -257.5 -57t-114.5 -164q107 86 373 86q216 0 330 -65t114 -188q0 -129 -120.5 -197.5t-344.5 -68.5q-249 0 -367.5 86t-118.5 271zM877 256q0 76 -87.5 116.5t-252.5 40.5 q-348 0 -348 -151q0 -83 91 -127t262 -44q335 0 335 165z" />
<glyph unicode="7" horiz-adv-x="897" d="M707 623h-688v99h859v-83q-207 -147 -310.5 -294t-134.5 -345h-123q34 197 128 343t269 280z" />
<glyph unicode="8" horiz-adv-x="1038" d="M804 386q95 -26 139.5 -69.5t44.5 -107.5q0 -109 -120.5 -165t-348.5 -56t-349 56t-121 165q0 64 45 107.5t140 69.5q-152 51 -152 159q0 97 112 147t325 50t325 -50t112 -147q0 -108 -152 -159zM203 534q0 -105 316 -105q315 0 315 105q0 108 -315 108q-316 0 -316 -108 zM519 89q347 0 347 130q0 62 -83.5 90.5t-263.5 28.5q-181 0 -264 -28.5t-83 -90.5q0 -130 347 -130z" />
<glyph unicode="9" horiz-adv-x="1037" d="M110 48v109l9 2q170 -71 345 -71q161 0 264.5 56.5t124.5 164.5q-110 -86 -372 -86q-215 0 -328.5 65.5t-113.5 190.5q0 128 122.5 195.5t349.5 67.5q244 0 360 -85t116 -264q0 -194 -139 -299.5t-389 -105.5q-207 0 -349 60zM850 475q0 81 -90 122.5t-261 41.5 q-165 0 -251 -40.5t-86 -118.5q0 -163 343 -163q345 0 345 158z" />
<glyph unicode=":" horiz-adv-x="267" d="M50 537h167v-141h-167v141zM50 141h167v-141h-167v141z" />
<glyph unicode=";" horiz-adv-x="268" d="M51 538h167v-141h-167v141zM50 0v140h168v-116l-107 -196h-50l44 172h-55z" />
<glyph unicode="&#x3c;" horiz-adv-x="781" d="M731 634v-109l-517 -164l517 -164v-109l-681 227v92z" />
<glyph unicode="=" horiz-adv-x="889" d="M50 536h789v-96h-789v96zM50 275h789v-96h-789v96z" />
<glyph unicode="&#x3e;" horiz-adv-x="781" d="M50 634l681 -227v-92l-681 -227v109l517 164l-517 164v109z" />
<glyph unicode="?" horiz-adv-x="869" d="M50 372q0 29 11 51t38 38t56.5 26t84 18.5t101 13t126.5 10.5q130 9 180 22t50 39q0 58 -212 58q-211 0 -385 -52l-3 2v95q171 49 380 49q175 0 258.5 -37.5t83.5 -116.5q0 -28 -10 -49.5t-35 -37t-55 -26.5t-83 -19.5t-106 -14t-135 -12.5q-152 -12 -188 -26 q-34 -12 -34 -34q0 -32 67 -48.5t180 -16.5q214 0 386 62l5 -2v-96q-163 -58 -383 -58q-378 0 -378 162zM366 136h162v-136h-162v136z" />
<glyph unicode="@" horiz-adv-x="1208" d="M620 729q243 0 393 -96t150 -251q0 -93 -63 -151t-164 -58q-59 0 -101 20.5t-59 56.5q-67 -77 -217 -77q-110 0 -173.5 41.5t-63.5 114.5q0 80 75.5 130.5t196.5 50.5q132 0 187 -61l10 41h94q-34 -134 -34 -163q0 -35 22.5 -54.5t61.5 -19.5q53 0 87.5 39t34.5 103 q0 108 -120 177.5t-308 69.5q-216 0 -347 -85.5t-131 -228.5q0 -137 123 -218t327 -81q171 0 317 59l6 -3v-85q-141 -58 -327 -58q-250 0 -401.5 106t-151.5 279q0 179 159.5 290.5t416.5 111.5zM576 253q82 0 127.5 25.5t45.5 72.5q0 37 -38.5 57.5t-109.5 20.5 q-80 0 -125 -24t-45 -67q0 -40 38.5 -62.5t106.5 -22.5z" />
<glyph unicode="A" horiz-adv-x="1089" d="M946 0l-108 168h-585l-110 -168h-143l480 722h138l471 -722h-143zM318 269h456l-226 352z" />
<glyph unicode="B" horiz-adv-x="1121" d="M907 379q165 -43 165 -179q0 -99 -82 -149.5t-240 -50.5h-661v722h610q316 0 316 -185q0 -108 -108 -158zM690 618h-474v-198h494q87 0 129 23.5t42 73.5q0 53 -45.5 77t-145.5 24zM765 104q84 0 128.5 28t44.5 81q0 109 -201 109h-521v-218h549z" />
<glyph unicode="C" horiz-adv-x="1125" d="M49 365q0 177 147 277t395 100q250 0 445 -113v-117l-6 -1q-206 127 -430 127q-200 0 -310 -73t-110 -200t109.5 -200t310.5 -73q224 0 430 127l5 -1v-117q-196 -113 -440 -113q-250 0 -398 100t-148 277z" />
<glyph unicode="D" horiz-adv-x="1163" d="M589 722q261 0 393 -94.5t132 -266.5t-132 -266.5t-391 -94.5h-502v722h500zM572 104q216 0 313.5 62.5t97.5 194.5t-97.5 194.5t-313.5 62.5h-356v-514h356z" />
<glyph unicode="E" horiz-adv-x="1030" d="M970 619h-754v-207h709v-101h-709v-208h754v-103h-881v722h881v-103z" />
<glyph unicode="F" horiz-adv-x="1033" d="M973 618h-757v-205h712v-103h-712v-310h-127v722h884v-104z" />
<glyph unicode="G" horiz-adv-x="1125" d="M600 638q-200 0 -310 -73t-110 -200t109.5 -200t310.5 -73q162 0 308 63v226h127v-280q-196 -113 -440 -113q-250 0 -398 100t-148 277t147 277t395 100q250 0 445 -113v-117l-6 -1q-206 127 -430 127z" />
<glyph unicode="H" horiz-adv-x="1121" d="M904 722h127v-722h-127v309h-688v-309h-127v722h127v-309h688v309z" />
<glyph unicode="I" horiz-adv-x="306" d="M89 722h127v-722h-127v722z" />
<glyph unicode="J" horiz-adv-x="711" d="M89 18v110l6 3q83 -38 162 -38q238 0 238 264v365h127v-346q0 -388 -362 -388q-103 0 -171 30z" />
<glyph unicode="K" horiz-adv-x="1006" d="M523 436l483 -432l-2 -4h-172l-413 372l-203 -127v-245h-127v722h127v-344l570 344h186l3 -4z" />
<glyph unicode="L" horiz-adv-x="984" d="M220 102h705v-102h-832v722h127v-620z" />
<glyph unicode="M" horiz-adv-x="1287" d="M1197 722v-722h-125v546l-368 -546h-123l-367 543v-543h-125v722h140l414 -610l414 610h140z" />
<glyph unicode="N" horiz-adv-x="1127" d="M910 722h127v-722h-138l-683 577v-577h-127v722h131l690 -582v582z" />
<glyph unicode="O" horiz-adv-x="1206" d="M49 365q0 177 146.5 277t407.5 100t407.5 -100t146.5 -277t-146.5 -277t-407.5 -100t-407.5 100t-146.5 277zM1026 365q0 128 -110 200.5t-313 72.5t-313 -72.5t-110 -200.5t110 -200.5t313 -72.5t313 72.5t110 200.5z" />
<glyph unicode="P" horiz-adv-x="1067" d="M654 722q183 0 273.5 -62t90.5 -169t-90 -169.5t-272 -62.5h-440v-259h-127v722h565zM643 363q129 0 186.5 30t57.5 98q0 67 -57.5 97t-186.5 30h-427v-255h427z" />
<glyph unicode="Q" horiz-adv-x="1206" d="M1157 365q0 -205 -193 -305l157 -142l-3 -4h-151l-115 104q-108 -30 -249 -30q-261 0 -407.5 100t-146.5 277t146.5 277t407.5 100t407.5 -100t146.5 -277zM603 92q87 0 153 13l-189 171l3 4h152l153 -138q151 70 151 223q0 128 -110 200.5t-313 72.5t-313 -72.5 t-110 -200.5t110 -200.5t313 -72.5z" />
<glyph unicode="R" horiz-adv-x="1108" d="M867 340q40 -12 67 -37.5t42 -61t25 -72t24.5 -83.5t32.5 -81v-5h-137q-12 35 -25 86.5t-24.5 86.5t-27.5 59q-20 30 -54.5 43.5t-111.5 13.5h-462v-289h-127v722h614q149 0 230.5 -51t81.5 -144q0 -62 -38 -110.5t-110 -76.5zM216 393h468q200 0 200 114q0 111 -214 111 h-454v-225z" />
<glyph unicode="S" horiz-adv-x="1091" d="M67 50v113l6 3q199 -74 477 -74q353 0 353 117q0 39 -46.5 61.5t-120.5 30.5t-163 13t-178.5 15t-163.5 29t-120.5 62t-46.5 108q0 105 119 159.5t343 54.5q252 0 455 -63v-107l-6 -2q-207 68 -444 68q-156 0 -247 -28t-91 -74q0 -33 36 -54.5t95 -29.5t134 -14.5 t154 -10.5t154 -17.5t134 -34t95 -61.5t36 -99q0 -117 -117 -172t-370 -55q-288 0 -477 62z" />
<glyph unicode="T" horiz-adv-x="1060" d="M1040 722v-103h-447v-619h-127v619h-446v103h1020z" />
<glyph unicode="U" horiz-adv-x="1058" d="M89 389v333h127v-347q0 -143 77.5 -213t235.5 -70t235.5 70t77.5 213v347h127v-333q0 -204 -109 -302.5t-331 -98.5t-331 98.5t-109 302.5z" />
<glyph unicode="V" horiz-adv-x="1077" d="M1075 722l2 -4l-466 -718h-137l-474 718l2 4h139l401 -617l395 617h138z" />
<glyph unicode="W" horiz-adv-x="1339" d="M1336 722l3 -3l-311 -719h-123l-236 574l-236 -574h-124l-309 718l2 4h133l235 -573l235 573h128l235 -574l236 574h132z" />
<glyph unicode="X" horiz-adv-x="981" d="M573 368l408 -364l-2 -4h-159l-330 294l-330 -294h-158l-2 4l408 363l-394 351l3 4h159l315 -281l314 281h158l2 -4z" />
<glyph unicode="Y" horiz-adv-x="1000" d="M998 722l2 -4l-436 -490v-228h-127v228l-437 490l2 4h147l352 -396l351 396h146z" />
<glyph unicode="Z" horiz-adv-x="1085" d="M299 104h697v-104h-907v83l693 535h-665v104h866v-83z" />
<glyph unicode="[" horiz-adv-x="413" d="M100 842h288v-86h-174v-842h174v-86h-288v1014z" />
<glyph unicode="\" horiz-adv-x="640" d="M686 -118l-2 -4h-113l-618 965l3 4h112z" />
<glyph unicode="]" horiz-adv-x="413" d="M313 842v-1014h-288v86h174v842h-174v86h288z" />
<glyph unicode="^" horiz-adv-x="733" d="M683 417h-111l-205 444l-205 -444h-112l270 572h93z" />
<glyph unicode="_" horiz-adv-x="949" d="M0 0h949v-81h-949v81z" />
<glyph unicode="`" horiz-adv-x="387" d="M337 646l-2 -2h-113l-172 211l2 2h140z" />
<glyph unicode="a" d="M770 565h122v-565h-122v88q-103 -100 -324 -100q-185 0 -293.5 76.5t-108.5 216.5q0 139 108.5 217.5t290.5 78.5q220 0 327 -107v95zM470 82q136 0 214 47t86 133v42q-8 87 -85.5 133t-214.5 46q-145 0 -223 -51.5t-78 -148.5q0 -96 78 -148.5t223 -52.5z" />
<glyph unicode="b" d="M528 577q182 0 290.5 -78.5t108.5 -217.5q0 -140 -108 -216.5t-293 -76.5q-222 0 -325 101v-89h-122v722h122v-252q105 107 327 107zM502 82q143 0 221.5 53t78.5 148t-78.5 147.5t-221.5 52.5q-144 0 -222.5 -52.5t-78.5 -147.5t78.5 -148t222.5 -53z" />
<glyph unicode="c" horiz-adv-x="889" d="M44 282q0 136 115 215.5t316 79.5q182 0 334 -76v-118l-4 -1q-144 98 -330 98q-146 0 -225.5 -51.5t-79.5 -146.5q0 -94 79.5 -145.5t225.5 -51.5q189 0 330 97l4 -1v-116q-151 -77 -334 -77q-201 0 -316 79.5t-115 214.5z" />
<glyph unicode="d" d="M770 722h122v-722h-122v89q-103 -101 -325 -101q-185 0 -293 76.5t-108 216.5q0 139 108.5 217.5t290.5 78.5q222 0 327 -107v252zM469 82q144 0 222.5 53t78.5 148t-78.5 147.5t-222.5 52.5q-143 0 -221.5 -52.5t-78.5 -147.5t78.5 -148t221.5 -53z" />
<glyph unicode="e" horiz-adv-x="918" d="M873 283v-29h-702q12 -82 93 -125.5t222 -43.5q105 0 185 24t158 77l4 -2v-112q-159 -84 -348 -84q-208 0 -324.5 79.5t-116.5 215.5t116.5 215t304.5 79q186 0 297 -78.5t111 -215.5zM466 486q-109 0 -187 -37t-105 -110h576q-25 75 -101 111t-183 36z" />
<glyph unicode="f" horiz-adv-x="607" d="M444 742q51 0 103 -10v-87l-6 -2q-29 8 -77 8q-86 0 -128.5 -28t-46.5 -89h231v-87h-231v-447h-122v447h-133v87h134q21 208 276 208z" />
<glyph unicode="g" horiz-adv-x="970" d="M772 565h122v-482q-3 -335 -453 -335q-206 0 -361 81v115l5 2q153 -104 359 -104q156 0 241.5 55.5t86.5 162.5v32q-107 -105 -326 -105q-185 0 -293.5 77t-108.5 216q0 140 108.5 218.5t290.5 78.5q220 0 329 -109v97zM470 81q145 0 223.5 52.5t78.5 149.5 q0 96 -78.5 148t-223.5 52q-144 0 -222 -52t-78 -148q0 -97 78 -149.5t222 -52.5z" />
<glyph unicode="h" horiz-adv-x="946" d="M524 577q167 0 257.5 -77t90.5 -224v-276h-122v255q0 118 -61.5 173.5t-187.5 55.5q-145 0 -222.5 -71.5t-77.5 -215.5v-197h-122v722h122v-273q101 128 323 128z" />
<glyph unicode="i" horiz-adv-x="281" d="M63 761h156v-117h-156v117zM79 565h122v-565h-122v565z" />
<glyph unicode="j" horiz-adv-x="281" d="M68 761h156v-117h-156v117zM-55 -248v92l6 4q74 -7 104.5 27t30.5 116v574h121v-577q0 -113 -59 -176.5t-161 -63.5q-24 0 -42 4z" />
<glyph unicode="k" horiz-adv-x="907" d="M470 332l437 -328l-2 -4l-177 1l-353 271l-174 -111v-161h-122v722h122v-437l452 280h176l2 -4z" />
<glyph unicode="l" horiz-adv-x="281" d="M79 722h122v-722h-122v722z" />
<glyph unicode="m" horiz-adv-x="1463" d="M1077 577q150 0 230.5 -76.5t80.5 -222.5v-278h-122v255q0 121 -53.5 174.5t-161.5 53.5q-258 0 -258 -286v-197h-122v255q0 118 -51.5 173t-161.5 55q-257 0 -257 -286v-197h-122v565h122v-117q89 129 286 129q212 0 279 -154q43 76 123.5 115t187.5 39z" />
<glyph unicode="n" horiz-adv-x="946" d="M524 577q169 0 258.5 -76t89.5 -225v-276h-122v247q0 123 -60 179.5t-188 56.5q-301 0 -301 -294v-189h-122v565h122v-119q101 131 323 131z" />
<glyph unicode="o" horiz-adv-x="937" d="M44 283q0 137 115.5 215.5t308.5 78.5t309 -78.5t116 -215.5t-116 -216t-309 -79q-192 0 -308 79t-116 216zM767 283q0 97 -80 148.5t-219 51.5q-138 0 -218 -52t-80 -148q0 -97 80 -149t218 -52q139 0 219 52t80 149z" />
<glyph unicode="p" d="M528 577q182 0 290.5 -78.5t108.5 -217.5q0 -140 -108 -216.5t-293 -76.5q-219 0 -325 103v-323h-122v797h122v-97q109 109 327 109zM502 82q143 0 221.5 53t78.5 148t-78.5 147.5t-221.5 52.5q-144 0 -222.5 -52.5t-78.5 -147.5t78.5 -148t222.5 -53z" />
<glyph unicode="q" d="M770 565h122v-797h-122v323q-106 -103 -325 -103q-185 0 -293 76.5t-108 216.5q0 139 108.5 217.5t290.5 78.5q218 0 327 -109v97zM469 82q144 0 222.5 53t78.5 148t-78.5 147.5t-222.5 52.5q-143 0 -221.5 -52.5t-78.5 -147.5t78.5 -148t221.5 -53z" />
<glyph unicode="r" horiz-adv-x="627" d="M493 577q36 0 74 -5v-99l-5 -2q-35 8 -95 8q-116 0 -191 -68.5t-75 -183.5v-227h-122v565h122v-107q97 119 292 119z" />
<glyph unicode="s" horiz-adv-x="901" d="M62 56v101l5 2q163 -80 399 -80q124 0 189.5 21.5t65.5 61.5q0 33 -49 50.5t-122.5 21t-159.5 11.5t-159.5 19.5t-122.5 47t-49 92.5q0 84 93 128.5t268 44.5q214 0 368 -57v-97l-7 -2q-155 65 -373 65q-106 0 -164.5 -19t-58.5 -54q0 -26 36.5 -41t94.5 -20.5t128.5 -9 t141.5 -12t129 -24t94.5 -50.5t36.5 -86q0 -89 -95.5 -135.5t-283.5 -46.5q-118 0 -227 18.5t-178 49.5z" />
<glyph unicode="t" horiz-adv-x="477" d="M458 474h-185v-244q0 -81 36 -114t124 -33h20l5 -3v-90q-32 -2 -51 -2q-132 0 -194 58t-62 178v250h-132v87h132v127h122v-127h185v-87z" />
<glyph unicode="u" horiz-adv-x="940" d="M739 565h122v-565h-122v114q-100 -126 -317 -126q-167 0 -257.5 79.5t-90.5 233.5v264h122v-250q0 -118 61.5 -175.5t188.5 -57.5q293 0 293 298v185z" />
<glyph unicode="v" horiz-adv-x="872" d="M870 565l2 -3l-367 -562h-138l-367 562l2 3h133l302 -471l302 471h131z" />
<glyph unicode="w" horiz-adv-x="1269" d="M1267 565l2 -3l-288 -562h-129l-218 445l-218 -445h-128l-288 562l2 3h129l224 -453l220 453h122l219 -453l225 453h126z" />
<glyph unicode="x" horiz-adv-x="846" d="M341 291l-321 271l3 3h156l244 -204l244 204h156l2 -3l-321 -271l342 -288l-3 -3h-156l-264 222l-264 -222h-157l-2 3z" />
<glyph unicode="y" horiz-adv-x="885" d="M882 565l3 -4l-452 -675q-50 -74 -106.5 -106t-141.5 -32h-33v92l5 4h21q61 0 94.5 21t71.5 80l39 57l-383 559l2 4h135l311 -457l306 457h128z" />
<glyph unicode="z" horiz-adv-x="915" d="M271 94h565v-94h-757v86l552 385h-536v94h727v-86z" />
<glyph unicode="{" horiz-adv-x="526" d="M213 -35v212q0 52 -24 81.5t-70 29.5h-19v94h19q46 0 70 29.5t24 81.5v212q0 64 37 100.5t108 36.5h143v-86h-131q-43 0 -43 -48v-203q0 -138 -99 -170q99 -32 99 -170v-203q0 -48 43 -48h131v-86h-143q-71 0 -108 36.5t-37 100.5z" />
<glyph unicode="|" horiz-adv-x="210" d="M50 882h110v-1032h-110v1032z" />
<glyph unicode="}" horiz-adv-x="526" d="M168 -172h-143v86h131q43 0 43 48v203q0 138 99 170q-99 32 -99 170v203q0 48 -43 48h-131v86h143q71 0 108 -36.5t37 -100.5v-212q0 -52 24 -81.5t70 -29.5h19v-94h-19q-46 0 -70 -29.5t-24 -81.5v-212q0 -64 -37 -100.5t-108 -36.5z" />
<glyph unicode="~" horiz-adv-x="972" d="M287 365q-50 0 -83.5 -26.5t-41.5 -72.5h-112q11 95 76 150t166 55q62 0 141 -27t151 -54t117 -27q91 0 109 98h112q-10 -99 -67.5 -151.5t-157.5 -52.5q-64 0 -141 27t-148 54t-121 27z" />
<glyph unicode="&#xa1;" horiz-adv-x="255" d="M50 359v131h155v-131h-155zM66 40l7 236h108l7 -236v-272h-122v272z" />
<glyph unicode="&#xa2;" horiz-adv-x="889" d="M805 382q-94 65 -201 86l-222 -377q44 -6 93 -6q189 0 330 97l4 -1v-116q-151 -77 -334 -77q-82 0 -146 13l-65 -111h-91l-4 6l75 128q-96 36 -148 102.5t-52 155.5q0 136 115 215.5t316 79.5q42 0 92 -5l61 104h91l4 -6l-67 -113q83 -20 153 -56v-118zM296 113l216 366 q-12 1 -37 1q-146 0 -225.5 -51.5t-79.5 -146.5q0 -121 126 -169z" />
<glyph unicode="&#xa3;" horiz-adv-x="985" d="M931 177l4 -2v-112q-119 -76 -228 -76q-66 0 -182 37t-180 37q-104 0 -247 -61l-39 91q166 65 166 132q0 32 -39 99h-136v93h88q-15 40 -15 77q0 112 108 180.5t284 68.5q210 0 363 -105v-115l-4 -3q-159 119 -358 119q-116 0 -192 -41.5t-76 -104.5q0 -30 23 -76h483 v-93h-434q21 -45 21 -78q0 -63 -70 -109q69 18 125 18q68 0 165 -31t146 -31q102 0 224 86z" />
<glyph unicode="&#xa4;" horiz-adv-x="953" d="M865 361q0 -87 -47 -154l85 -85l-80 -76l-85 85q-104 -65 -262 -65q-157 0 -261 65l-85 -85l-80 76l85 85q-47 67 -47 154q0 89 47 153l-85 85l80 76l85 -85q102 65 261 65q158 0 262 -65l85 85l80 -76l-85 -85q47 -64 47 -153zM476 160q124 0 197 52.5t73 148.5 t-73.5 148t-196.5 52t-196 -52t-73 -148t73 -148.5t196 -52.5z" />
<glyph unicode="&#xa5;" horiz-adv-x="1000" d="M1000 718l-356 -400h297v-94h-377v-224h-127v224h-377v94h297l-357 400l2 4h147l352 -396l351 396h146z" />
<glyph unicode="&#xa6;" horiz-adv-x="210" d="M50 882h110v-411h-110v411zM50 261h110v-411h-110v411z" />
<glyph unicode="&#xa7;" horiz-adv-x="888" d="M756 90q82 -48 82 -138q0 -204 -375 -204q-212 0 -381 58v100l5 1q192 -63 389 -63q248 0 248 100q0 37 -37 59.5t-96.5 32t-131.5 16.5t-144 17.5t-131.5 29.5t-96.5 59.5t-37 100.5q0 85 93 146q-93 48 -93 142q0 97 98.5 146t284.5 49q200 0 369 -58v-100l-5 -1 q-192 63 -372 63q-260 0 -260 -95q0 -35 37 -56.5t96.5 -31t131 -16t143 -18t131 -31.5t96.5 -61.5t37 -103.5q0 -79 -81 -143zM157 276q0 -37 32.5 -60.5t90.5 -34t119.5 -16.5t139 -15.5t129.5 -23.5q62 36 62 92q0 38 -30.5 62t-86 36t-113.5 18.5t-134 15.5t-127 21 q-37 -16 -59.5 -41.5t-22.5 -53.5z" />
<glyph unicode="&#xa8;" horiz-adv-x="563" d="M50 762h156v-118h-156v118zM357 762h156v-118h-156v118z" />
<glyph unicode="&#xa9;" horiz-adv-x="1211" d="M50 365q0 169 149 271t407 102q257 0 406 -102t149 -271t-149 -271t-406 -102q-258 0 -407 102t-149 271zM1063 365q0 133 -121.5 213.5t-335.5 80.5q-215 0 -336.5 -80.5t-121.5 -213.5t121.5 -213.5t336.5 -80.5q214 0 335.5 80.5t121.5 213.5zM315 365q0 90 78.5 142 t214.5 52q132 0 234 -54v-87l-4 -1q-110 61 -221 61q-95 0 -147.5 -30t-52.5 -84q0 -52 53 -82.5t147 -30.5q113 0 221 62l4 -2v-87q-100 -53 -228 -53q-140 0 -219.5 52t-79.5 142z" />
<glyph unicode="&#xaa;" horiz-adv-x="697" d="M372 734q275 0 275 -167v-271h-103v78q-90 -87 -262 -87q-112 0 -172 34.5t-60 101.5q0 64 64.5 97t214.5 41q67 4 215 9v1q0 82 -175 82q-156 0 -277 -77l-2 1v95q125 62 282 62zM296 368q112 0 180 35t68 89v10q-139 -5 -236 -13q-80 -6 -113.5 -20t-33.5 -42 q0 -59 135 -59z" />
<glyph unicode="&#xab;" horiz-adv-x="783" d="M50 323l334 199v-109l-218 -130l218 -131v-110l-334 199v82zM733 522v-109l-218 -130l218 -131v-110l-334 199v82z" />
<glyph unicode="&#xac;" horiz-adv-x="889" d="M50 410h789v-314h-108v218h-681v96z" />
<glyph unicode="&#xad;" horiz-adv-x="524" d="M50 340h424v-99h-424v99z" />
<glyph unicode="&#xae;" horiz-adv-x="1211" d="M606 738q257 0 406 -102t149 -271t-149 -271t-406 -102q-258 0 -407 102t-149 271t149 271t407 102zM606 71q214 0 335.5 80.5t121.5 213.5t-121.5 213.5t-335.5 80.5q-215 0 -336.5 -80.5t-121.5 -213.5t121.5 -213.5t336.5 -80.5zM861 426q0 -46 -32 -76.5t-93 -40.5 l129 -121v-3h-111l-123 119h-158v-119h-96v364h293q93 0 142 -32t49 -91zM473 474v-96h194q53 0 76 11.5t23 36.5q0 27 -24.5 37.5t-74.5 10.5h-194z" />
<glyph unicode="&#xaf;" horiz-adv-x="660" d="M50 753h560v-87h-560v87z" />
<glyph unicode="&#xb0;" horiz-adv-x="718" d="M50 534q0 110 87 179.5t222 69.5t222 -69.5t87 -179.5q0 -109 -87 -178.5t-222 -69.5t-222 69.5t-87 178.5zM567 534q0 75 -57 120.5t-151 45.5t-151 -45.5t-57 -120.5q0 -74 57 -119.5t151 -45.5t151 45.5t57 119.5z" />
<glyph unicode="&#xb1;" horiz-adv-x="889" d="M498 454h341v-96h-341v-173h-108v173h-340v96h340v173h108v-173zM50 4v96h789v-96h-789z" />
<glyph unicode="&#xb4;" horiz-adv-x="387" d="M50 646l145 211h140l2 -2l-172 -211h-113z" />
<glyph unicode="&#xb5;" horiz-adv-x="886" d="M715 565h122v-565h-122v114q-100 -126 -317 -126q-140 0 -226 56v-276h-122v797h122v-250q0 -118 61.5 -175.5t188.5 -57.5q293 0 293 298v185z" />
<glyph unicode="&#xb6;" horiz-adv-x="1188" d="M1098 722v-722h-127v619h-201v-619h-127v259h-235q-182 0 -272 62.5t-90 169.5t90.5 169t273.5 62h688zM643 362v257h-222q-130 0 -187.5 -30.5t-57.5 -97.5t57.5 -98t187.5 -31h222z" />
<glyph unicode="&#xb7;" horiz-adv-x="267" d="M50 436h167v-141h-167v141z" />
<glyph unicode="&#xb8;" horiz-adv-x="330" d="M50 -183l115 183h115l-103 -186h-125z" />
<glyph unicode="&#xba;" horiz-adv-x="749" d="M50 510q0 104 88 164t236 60q149 0 237 -60t88 -164t-88 -164t-237 -60q-148 0 -236 60t-88 164zM590 510q0 69 -57 105t-159 36q-101 0 -158 -36t-57 -105t56.5 -105t158.5 -36t159 36t57 105z" />
<glyph unicode="&#xbb;" horiz-adv-x="783" d="M50 413v109l334 -199v-82l-334 -199v110l218 131zM399 522l334 -199v-82l-334 -199v110l218 131l-218 130v109z" />
<glyph unicode="&#xbc;" horiz-adv-x="1392" d="M347 245h-99v373l-198 -83v86l220 101h77v-477zM964 722l2 -4l-564 -718h-110l-3 4l565 718h110zM1342 190v-80h-90v-110h-100v110h-426v64l442 303h84v-287h90zM890 190h262v181z" />
<glyph unicode="&#xbd;" horiz-adv-x="1476" d="M248 618l-198 -83v86l220 101h77v-477h-99v373zM289 4l565 718h110l2 -4l-564 -718h-110zM850 20q0 95 63.5 148t216.5 91q70 17 105.5 26.5t57.5 19t27 17t5 20.5q0 30 -45 47t-123 17q-167 0 -282 -78l-4 2v91q114 70 283 70q129 0 200.5 -40t71.5 -113 q0 -59 -47.5 -89.5t-195.5 -64.5q-113 -27 -156 -48t-50 -52h448v-84h-575v20z" />
<glyph unicode="&#xbe;" horiz-adv-x="1599" d="M646 398q0 -72 -83 -113t-230 -41q-166 0 -283 65v92l4 2q116 -75 287 -75q97 0 150.5 20t53.5 56q0 57 -134 57h-197v80h198q114 0 114 50q0 30 -51 48.5t-135 18.5q-162 0 -274 -76l-2 2v92q120 66 273 66q133 0 211.5 -37t78.5 -100q0 -65 -72 -99q91 -30 91 -108z M1173 722l2 -4l-564 -718h-110l-3 4l565 718h110zM1549 190v-80h-90v-110h-100v110h-426v64l442 303h84v-287h90zM1097 190h262v181z" />
<glyph unicode="&#xbf;" horiz-adv-x="869" d="M518 356h-161v136h161v-136zM819 119q0 -29 -11 -51t-37.5 -37.5t-56.5 -26t-84 -18.5t-102 -12.5t-126 -10.5q-129 -9 -179 -22t-50 -39q0 -58 211 -58t385 52l4 -2v-95q-172 -49 -381 -49q-175 0 -258.5 37.5t-83.5 116.5q0 28 10 49.5t35 37t55.5 26.5t83.5 19.5 t105.5 14t134.5 12.5q152 12 188 25q35 13 35 35q0 64 -248 64q-217 0 -386 -61l-5 2v96q165 58 383 58q378 0 378 -163z" />
<glyph unicode="&#xc0;" horiz-adv-x="1089" d="M611 780h-115l-151 197l2 2h140l126 -197zM946 0l-108 168h-585l-110 -168h-143l480 722h138l471 -722h-143zM318 269h456l-226 352z" />
<glyph unicode="&#xc1;" horiz-adv-x="1089" d="M607 780h-115l-2 2l126 197h140l2 -2zM946 0l-108 168h-585l-110 -168h-143l480 722h138l471 -722h-143zM318 269h456l-226 352z" />
<glyph unicode="&#xc2;" horiz-adv-x="1089" d="M402 780h-141l-2 2l210 197h151l211 -197l-2 -2h-141l-144 129zM946 0l-108 168h-585l-110 -168h-143l480 722h138l471 -722h-143zM318 269h456l-226 352z" />
<glyph unicode="&#xc3;" horiz-adv-x="1089" d="M365 810l-3 -2h-97q2 70 46 111t111 41q50 0 141.5 -33.5t115.5 -33.5q49 0 53 59l3 2h97q-4 -71 -44.5 -110.5t-101.5 -39.5q-48 0 -141.5 33.5t-119.5 33.5q-53 0 -60 -61zM946 0l-108 168h-585l-110 -168h-143l480 722h138l471 -722h-143zM318 269h456l-226 352z" />
<glyph unicode="&#xc4;" horiz-adv-x="1089" d="M462 933v-123h-156v123h156zM783 933v-123h-156v123h156zM946 0l-108 168h-585l-110 -168h-143l480 722h138l471 -722h-143zM318 269h456l-226 352z" />
<glyph unicode="&#xc5;" horiz-adv-x="1089" d="M545 749q-86 0 -137.5 37.5t-51.5 100.5t51.5 100.5t137.5 37.5t137.5 -37.5t51.5 -100.5t-51.5 -100.5t-137.5 -37.5zM545 957q-49 0 -76.5 -18.5t-27.5 -51.5q0 -32 27.5 -51t76.5 -19t76.5 19t27.5 51q0 33 -27.5 51.5t-76.5 18.5zM946 0l-108 168h-585l-110 -168 h-143l480 722h138l471 -722h-143zM318 269h456l-226 352z" />
<glyph unicode="&#xc6;" horiz-adv-x="1820" d="M1006 619v-207h709v-101h-709v-208h754v-103h-881v171h-540l-178 -171h-161l756 722h1004v-103h-754zM444 272h435v347h-74z" />
<glyph unicode="&#xc7;" horiz-adv-x="1125" d="M600 638q-200 0 -310 -73t-110 -200t109.5 -200t310.5 -73q224 0 430 127l5 -1v-117q-172 -99 -380 -111l-97 -176h-125l-2 3l108 172q-226 11 -358 110t-132 266q0 177 147 277t395 100q250 0 445 -113v-117l-6 -1q-206 127 -430 127z" />
<glyph unicode="&#xc8;" horiz-adv-x="1030" d="M619 780h-115l-151 197l2 2h140l126 -197zM970 619h-754v-207h709v-101h-709v-208h754v-103h-881v722h881v-103z" />
<glyph unicode="&#xc9;" horiz-adv-x="1030" d="M555 780h-115l-2 2l126 197h140l2 -2zM970 619h-754v-207h709v-101h-709v-208h754v-103h-881v722h881v-103z" />
<glyph unicode="&#xca;" horiz-adv-x="1030" d="M387 780h-141l-2 2l210 197h151l211 -197l-2 -2h-141l-144 129zM970 619h-754v-207h709v-101h-709v-208h754v-103h-881v722h881v-103z" />
<glyph unicode="&#xcb;" horiz-adv-x="1030" d="M447 933v-123h-156v123h156zM768 933v-123h-156v123h156zM970 619h-754v-207h709v-101h-709v-208h754v-103h-881v722h881v-103z" />
<glyph unicode="&#xcc;" horiz-adv-x="306" d="M218 782l-2 -2h-115l-151 197l2 2h140zM89 722h127v-722h-127v722z" />
<glyph unicode="&#xcd;" horiz-adv-x="306" d="M93 782l126 197h140l2 -2l-151 -197h-115zM89 722h127v-722h-127v722z" />
<glyph unicode="&#xce;" horiz-adv-x="306" d="M227 979l211 -197l-2 -2h-141l-144 129l-142 -129h-141l-2 2l210 197h151zM89 0v722h127v-722h-127z" />
<glyph unicode="&#xcf;" horiz-adv-x="306" d="M-86 933h156v-123h-156v123zM235 933h156v-123h-156v123zM89 722h127v-722h-127v722z" />
<glyph unicode="&#xd0;" horiz-adv-x="1163" d="M846 910v-90h-600v90h600zM589 722q261 0 393 -94.5t132 -266.5t-132 -266.5t-391 -94.5h-502v722h500zM572 104q216 0 313.5 62.5t97.5 194.5t-97.5 194.5t-313.5 62.5h-356v-514h356z" />
<glyph unicode="&#xd1;" horiz-adv-x="1127" d="M381 810l-3 -2h-97q2 70 46 111t111 41q50 0 141.5 -33.5t115.5 -33.5q49 0 53 59l3 2h97q-4 -71 -44.5 -110.5t-101.5 -39.5q-48 0 -141 33.5t-120 33.5q-53 0 -60 -61zM910 722h127v-722h-138l-683 577v-577h-127v722h131l690 -582v582z" />
<glyph unicode="&#xd2;" horiz-adv-x="1206" d="M684 782l-2 -2h-115l-151 197l2 2h140zM49 365q0 177 146.5 277t407.5 100t407.5 -100t146.5 -277t-146.5 -277t-407.5 -100t-407.5 100t-146.5 277zM1026 365q0 128 -110 200.5t-313 72.5t-313 -72.5t-110 -200.5t110 -200.5t313 -72.5t313 72.5t110 200.5z" />
<glyph unicode="&#xd3;" horiz-adv-x="1206" d="M538 782l126 197h140l2 -2l-151 -197h-115zM49 365q0 177 146.5 277t407.5 100t407.5 -100t146.5 -277t-146.5 -277t-407.5 -100t-407.5 100t-146.5 277zM1026 365q0 128 -110 200.5t-313 72.5t-313 -72.5t-110 -200.5t110 -200.5t313 -72.5t313 72.5t110 200.5z" />
<glyph unicode="&#xd4;" horiz-adv-x="1206" d="M460 780h-141l-2 2l210 197h151l211 -197l-2 -2h-141l-144 129zM603 742q261 0 407.5 -100t146.5 -277t-146.5 -277t-407.5 -100t-407.5 100t-146.5 277t146.5 277t407.5 100zM603 92q203 0 313 72.5t110 200.5t-110 200.5t-313 72.5t-313 -72.5t-110 -200.5t110 -200.5 t313 -72.5z" />
<glyph unicode="&#xd5;" horiz-adv-x="1206" d="M480 871q-53 0 -60 -61l-3 -2h-97q2 70 46 111t111 41q50 0 141.5 -33.5t115.5 -33.5q49 0 53 59l3 2h97q-4 -71 -44.5 -110.5t-101.5 -39.5q-47 0 -141 33.5t-120 33.5zM49 365q0 177 146.5 277t407.5 100t407.5 -100t146.5 -277t-146.5 -277t-407.5 -100t-407.5 100 t-146.5 277zM1026 365q0 128 -110 200.5t-313 72.5t-313 -72.5t-110 -200.5t110 -200.5t313 -72.5t313 72.5t110 200.5z" />
<glyph unicode="&#xd6;" horiz-adv-x="954" d="M228 725h163v-114h-163v114zM563 725h163v-114h-163v114zM49 280q0 139 116 215.5t312 76.5t311.5 -76.5t115.5 -215.5t-115.5 -215.5t-311.5 -76.5t-312 76.5t-116 215.5zM774 280q0 90 -79 141t-218 51q-140 0 -218.5 -51t-78.5 -141q0 -91 78.5 -141.5t218.5 -50.5 t218.5 50.5t78.5 141.5z" />
<glyph unicode="&#xd7;" horiz-adv-x="623" d="M573 156l-71 -71l-190 191l-191 -191l-71 71l191 191l-190 190l71 70l190 -189l189 189l71 -70l-190 -190z" />
<glyph unicode="&#xd8;" horiz-adv-x="1206" d="M603 742q261 0 407.5 -100t146.5 -277t-146.5 -277t-407.5 -100t-407.5 100t-146.5 277t146.5 277t407.5 100zM603 638q-203 0 -313 -72.5t-110 -200.5q0 -120 95 -190l566 427q-96 36 -238 36zM603 92q203 0 313 72.5t110 200.5q0 119 -95 190l-565 -427q95 -36 237 -36 z" />
<glyph unicode="&#xd9;" horiz-adv-x="1058" d="M628 782l-2 -2h-115l-151 197l2 2h140zM89 389v333h127v-347q0 -143 77.5 -213t235.5 -70t235.5 70t77.5 213v347h127v-333q0 -204 -109 -302.5t-331 -98.5t-331 98.5t-109 302.5z" />
<glyph unicode="&#xda;" horiz-adv-x="1058" d="M445 782l126 197h140l2 -2l-151 -197h-115zM89 389v333h127v-347q0 -143 77.5 -213t235.5 -70t235.5 70t77.5 213v347h127v-333q0 -204 -109 -302.5t-331 -98.5t-331 98.5t-109 302.5z" />
<glyph unicode="&#xdb;" horiz-adv-x="1058" d="M386 780h-141l-2 2l210 197h151l211 -197l-2 -2h-141l-144 129zM842 722h127v-333q0 -204 -109 -302.5t-331 -98.5t-331 98.5t-109 302.5v333h127v-347q0 -143 77.5 -213t235.5 -70t235.5 70t77.5 213v347z" />
<glyph unicode="&#xdc;" horiz-adv-x="1058" d="M290 933h156v-123h-156v123zM611 933h156v-123h-156v123zM89 389v333h127v-347q0 -143 77.5 -213t235.5 -70t235.5 70t77.5 213v347h127v-333q0 -204 -109 -302.5t-331 -98.5t-331 98.5t-109 302.5z" />
<glyph unicode="&#xdd;" horiz-adv-x="1000" d="M538 780h-115l-2 2l126 197h140l2 -2zM998 722l2 -4l-436 -490v-228h-127v228l-437 490l2 4h147l352 -396l351 396h146z" />
<glyph unicode="&#xde;" horiz-adv-x="1013" d="M618 592q185 0 274.5 -62t89.5 -169t-89 -169t-273 -62h-404v-130h-127v722h127v-130h402zM607 234q129 0 186.5 29.5t57.5 97.5t-57.5 97.5t-186.5 29.5h-391v-254h391z" />
<glyph unicode="&#xdf;" horiz-adv-x="988" d="M264 35v102l5 2q146 -57 317 -57q116 0 183.5 38t67.5 101q0 129 -241 129h-172v92h116q104 0 152 27.5t48 83.5q0 58 -64 89t-183 31q-162 0 -238 -62.5t-76 -188.5v-422h-122v433q0 167 111.5 251t325.5 84q176 0 272 -54t96 -154q0 -51 -27 -91t-77 -58 q201 -36 201 -195q0 -108 -100.5 -168t-274.5 -60q-159 0 -320 47z" />
<glyph unicode="&#xe0;" d="M584 644h-113l-172 211l2 2h140l145 -211zM770 565h122v-565h-122v88q-103 -100 -324 -100q-185 0 -293.5 76.5t-108.5 216.5q0 139 108.5 217.5t290.5 78.5q220 0 327 -107v95zM470 82q136 0 214 47t86 133v42q-8 87 -85.5 133t-214.5 46q-145 0 -223 -51.5t-78 -148.5 q0 -96 78 -148.5t223 -52.5z" />
<glyph unicode="&#xe1;" d="M514 644h-113l-2 2l145 211h140l2 -2zM770 565h122v-565h-122v88q-103 -100 -324 -100q-185 0 -293.5 76.5t-108.5 216.5q0 139 108.5 217.5t290.5 78.5q220 0 327 -107v95zM470 82q136 0 214 47t86 133v42q-8 87 -85.5 133t-214.5 46q-145 0 -223 -51.5t-78 -148.5 q0 -96 78 -148.5t223 -52.5z" />
<glyph unicode="&#xe2;" d="M351 644h-129l-2 2l208 211h138l208 -210l-2 -3h-127l-147 141zM770 565h122v-565h-122v88q-103 -100 -324 -100q-185 0 -293.5 76.5t-108.5 216.5q0 139 108.5 217.5t290.5 78.5q220 0 327 -107v95zM470 82q136 0 214 47t86 133v42q-8 87 -85.5 133t-214.5 46 q-145 0 -223 -51.5t-78 -148.5q0 -96 78 -148.5t223 -52.5z" />
<glyph unicode="&#xe3;" d="M304 665l-3 -2h-96q1 66 43.5 107.5t107.5 40.5q51 0 142 -34t114 -34q44 0 49 58l3 2h96q-3 -67 -41 -107t-99 -40q-47 0 -139.5 34.5t-118.5 34.5q-52 0 -58 -60zM770 565h122v-565h-122v88q-103 -100 -324 -100q-185 0 -293.5 76.5t-108.5 216.5q0 139 108.5 217.5 t290.5 78.5q220 0 327 -107v95zM470 82q136 0 214 47t86 133v42q-8 87 -85.5 133t-214.5 46q-145 0 -223 -51.5t-78 -148.5q0 -96 78 -148.5t223 -52.5z" />
<glyph unicode="&#xe4;" d="M414 762v-118h-156v118h156zM721 762v-118h-156v118h156zM770 565h122v-565h-122v88q-103 -100 -324 -100q-185 0 -293.5 76.5t-108.5 216.5q0 139 108.5 217.5t290.5 78.5q220 0 327 -107v95zM470 82q136 0 214 47t86 133v42q-8 87 -85.5 133t-214.5 46 q-145 0 -223 -51.5t-78 -148.5q0 -96 78 -148.5t223 -52.5z" />
<glyph unicode="&#xe5;" d="M470 610q-91 0 -143.5 37t-52.5 99t52.5 98.5t143.5 36.5t144 -36.5t53 -98.5t-53 -99t-144 -37zM470 814q-51 0 -79 -18t-28 -50q0 -31 28.5 -50t78.5 -19t79 19t29 50q0 32 -28.5 50t-79.5 18zM770 565h122v-565h-122v88q-103 -100 -324 -100q-185 0 -293.5 76.5 t-108.5 216.5q0 139 108.5 217.5t290.5 78.5q220 0 327 -107v95zM470 82q136 0 214 47t86 133v42q-8 87 -85.5 133t-214.5 46q-145 0 -223 -51.5t-78 -148.5q0 -96 78 -148.5t223 -52.5z" />
<glyph unicode="&#xe6;" horiz-adv-x="1600" d="M1556 289v-30h-707q10 -84 92.5 -129t225.5 -45q104 0 185.5 24.5t159.5 77.5l4 -2v-113q-162 -84 -351 -84q-285 0 -386 148q-128 -148 -404 -148q-158 0 -244.5 47.5t-86.5 135.5q0 174 371 174h308v20q0 57 -65 89.5t-177 32.5q-212 0 -374 -105l-3 2v110 q174 87 378 87q250 0 322 -122q114 122 347 122q184 0 294.5 -78t110.5 -214zM1150 490q-111 0 -190 -36.5t-107 -109.5h579q-25 74 -100 110t-182 36zM374 82q148 0 244.5 49.5t104.5 127.5h-291q-140 0 -201 -20t-61 -65t52.5 -68.5t151.5 -23.5z" />
<glyph unicode="&#xe7;" horiz-adv-x="889" d="M475 480q-146 0 -225.5 -51.5t-79.5 -146.5q0 -94 79.5 -145.5t225.5 -51.5q189 0 330 97l4 -1v-116q-126 -65 -271 -75l-98 -176h-125l-2 3l108 173q-177 10 -277 88.5t-100 203.5q0 136 115 215.5t316 79.5q182 0 334 -76v-118l-4 -1q-144 98 -330 98z" />
<glyph unicode="&#xe8;" horiz-adv-x="918" d="M552 644h-113l-172 211l2 2h140l145 -211zM873 283v-29h-702q12 -82 93 -125.5t222 -43.5q105 0 185 24t158 77l4 -2v-112q-159 -84 -348 -84q-208 0 -324.5 79.5t-116.5 215.5t116.5 215t304.5 79q186 0 297 -78.5t111 -215.5zM466 486q-109 0 -187 -37t-105 -110h576 q-25 75 -101 111t-183 36z" />
<glyph unicode="&#xe9;" horiz-adv-x="918" d="M518 644h-113l-2 2l145 211h140l2 -2zM873 283v-29h-702q12 -82 93 -125.5t222 -43.5q105 0 185 24t158 77l4 -2v-112q-159 -84 -348 -84q-208 0 -324.5 79.5t-116.5 215.5t116.5 215t304.5 79q186 0 297 -78.5t111 -215.5zM466 486q-109 0 -187 -37t-105 -110h576 q-25 75 -101 111t-183 36z" />
<glyph unicode="&#xea;" horiz-adv-x="918" d="M327 644h-129l-2 2l208 211h138l208 -210l-2 -3h-127l-147 141zM873 283v-29h-702q12 -82 93 -125.5t222 -43.5q105 0 185 24t158 77l4 -2v-112q-159 -84 -348 -84q-208 0 -324.5 79.5t-116.5 215.5t116.5 215t304.5 79q186 0 297 -78.5t111 -215.5zM466 486 q-109 0 -187 -37t-105 -110h576q-25 75 -101 111t-183 36z" />
<glyph unicode="&#xeb;" horiz-adv-x="918" d="M394 762v-118h-156v118h156zM701 762v-118h-156v118h156zM873 283v-29h-702q12 -82 93 -125.5t222 -43.5q105 0 185 24t158 77l4 -2v-112q-159 -84 -348 -84q-208 0 -324.5 79.5t-116.5 215.5t116.5 215t304.5 79q186 0 297 -78.5t111 -215.5zM466 486q-109 0 -187 -37 t-105 -110h576q-25 75 -101 111t-183 36z" />
<glyph unicode="&#xec;" horiz-adv-x="281" d="M204 646l-2 -2h-113l-172 211l2 2h140zM79 565h122v-565h-122v565z" />
<glyph unicode="&#xed;" horiz-adv-x="281" d="M81 646l145 211h140l2 -2l-172 -211h-113zM79 565h122v-565h-122v565z" />
<glyph unicode="&#xee;" horiz-adv-x="281" d="M209 857l208 -210l-2 -3h-127l-147 141l-147 -141h-129l-2 2l208 211h138zM79 0v565h122v-565h-122z" />
<glyph unicode="&#xef;" horiz-adv-x="281" d="M-91 762h156v-118h-156v118zM216 762h156v-118h-156v118zM79 565h122v-565h-122v565z" />
<glyph unicode="&#xf0;" horiz-adv-x="947" d="M733 629q168 -125 168 -325q0 -153 -105 -234.5t-322 -81.5q-202 0 -316 69.5t-114 200.5q0 124 104 194.5t288 70.5q107 0 192 -23t134 -62q-31 94 -158 171l-312 -50l-9 61l228 36q-90 38 -199 59v7h235q57 -18 107 -44l235 37l10 -59zM472 82q145 0 223.5 45t78.5 130 q0 84 -79 129.5t-224 45.5t-223 -45t-78 -128q0 -84 79.5 -130.5t222.5 -46.5z" />
<glyph unicode="&#xf1;" horiz-adv-x="946" d="M310 665l-3 -2h-96q1 66 43.5 107.5t107.5 40.5q51 0 142 -34t114 -34q44 0 49 58l3 2h96q-3 -67 -41 -107t-99 -40q-47 0 -139.5 34.5t-118.5 34.5q-52 0 -58 -60zM524 577q169 0 258.5 -76t89.5 -225v-276h-122v247q0 123 -60 179.5t-188 56.5q-301 0 -301 -294v-189 h-122v565h122v-119q101 131 323 131z" />
<glyph unicode="&#xf2;" horiz-adv-x="937" d="M551 646l-2 -2h-113l-172 211l2 2h140zM44 283q0 137 115.5 215.5t308.5 78.5t309 -78.5t116 -215.5t-116 -216t-309 -79q-192 0 -308 79t-116 216zM767 283q0 97 -80 148.5t-219 51.5q-138 0 -218 -52t-80 -148q0 -97 80 -149t218 -52q139 0 219 52t80 149z" />
<glyph unicode="&#xf3;" horiz-adv-x="937" d="M400 646l145 211h140l2 -2l-172 -211h-113zM44 283q0 137 115.5 215.5t308.5 78.5t309 -78.5t116 -215.5t-116 -216t-309 -79q-192 0 -308 79t-116 216zM767 283q0 97 -80 148.5t-219 51.5q-138 0 -218 -52t-80 -148q0 -97 80 -149t218 -52q139 0 219 52t80 149z" />
<glyph unicode="&#xf4;" horiz-adv-x="937" d="M322 644h-129l-2 2l208 211h138l208 -210l-2 -3h-127l-147 141zM468 577q193 0 309 -78.5t116 -215.5t-116 -216t-309 -79q-192 0 -308 79t-116 216t115.5 215.5t308.5 78.5zM468 82q139 0 219 52t80 149t-80 148.5t-219 51.5q-138 0 -218 -52t-80 -148q0 -97 80 -149 t218 -52z" />
<glyph unicode="&#xf5;" horiz-adv-x="937" d="M349 725q-52 0 -58 -60l-3 -2h-96q1 66 43.5 107.5t107.5 40.5q51 0 142 -34t114 -34q44 0 49 58l3 2h96q-3 -67 -41 -107t-99 -40q-47 0 -139.5 34.5t-118.5 34.5zM44 283q0 137 115.5 215.5t308.5 78.5t309 -78.5t116 -215.5t-116 -216t-309 -79q-192 0 -308 79 t-116 216zM767 283q0 97 -80 148.5t-219 51.5q-138 0 -218 -52t-80 -148q0 -97 80 -149t218 -52q139 0 219 52t80 149z" />
<glyph unicode="&#xf6;" horiz-adv-x="937" d="M237 762h156v-118h-156v118zM544 762h156v-118h-156v118zM44 283q0 137 115.5 215.5t308.5 78.5t309 -78.5t116 -215.5t-116 -216t-309 -79q-192 0 -308 79t-116 216zM767 283q0 97 -80 148.5t-219 51.5q-138 0 -218 -52t-80 -148q0 -97 80 -149t218 -52q139 0 219 52 t80 149z" />
<glyph unicode="&#xf7;" horiz-adv-x="889" d="M366 629h158v-133h-158v133zM50 409h789v-96h-789v96zM366 229h158v-133h-158v133z" />
<glyph unicode="&#xf8;" horiz-adv-x="937" d="M468 577q193 0 309 -78.5t116 -215.5t-116 -216t-309 -79q-192 0 -308 79t-116 216t115.5 215.5t308.5 78.5zM468 483q-138 0 -218 -52t-80 -148q0 -72 45 -120l425 292q-69 28 -172 28zM468 82q139 0 219 52t80 149q0 77 -53 127l-429 -295q73 -33 183 -33z" />
<glyph unicode="&#xf9;" horiz-adv-x="940" d="M562 644h-113l-172 211l2 2h140l145 -211zM739 565h122v-565h-122v114q-100 -126 -317 -126q-167 0 -257.5 79.5t-90.5 233.5v264h122v-250q0 -118 61.5 -175.5t188.5 -57.5q293 0 293 298v185z" />
<glyph unicode="&#xfa;" horiz-adv-x="940" d="M499 644h-113l-2 2l145 211h140l2 -2zM739 565h122v-565h-122v114q-100 -126 -317 -126q-167 0 -257.5 79.5t-90.5 233.5v264h122v-250q0 -118 61.5 -175.5t188.5 -57.5q293 0 293 298v185z" />
<glyph unicode="&#xfb;" horiz-adv-x="940" d="M321 644h-129l-2 2l208 211h138l208 -210l-2 -3h-127l-147 141zM739 565h122v-565h-122v114q-100 -126 -317 -126q-167 0 -257.5 79.5t-90.5 233.5v264h122v-250q0 -118 61.5 -175.5t188.5 -57.5q293 0 293 298v185z" />
<glyph unicode="&#xfc;" horiz-adv-x="940" d="M392 762v-118h-156v118h156zM699 762v-118h-156v118h156zM739 565h122v-565h-122v114q-100 -126 -317 -126q-167 0 -257.5 79.5t-90.5 233.5v264h122v-250q0 -118 61.5 -175.5t188.5 -57.5q293 0 293 298v185z" />
<glyph unicode="&#xfd;" horiz-adv-x="885" d="M484 644h-113l-2 2l145 211h140l2 -2zM882 565l3 -4l-452 -675q-50 -74 -106.5 -106t-141.5 -32h-33v92l5 4h21q61 0 94.5 21t71.5 80l39 57l-383 559l2 4h135l311 -457l306 457h128z" />
<glyph unicode="&#xfe;" horiz-adv-x="976" d="M531 581q183 0 292 -79t109 -219q0 -141 -108.5 -218t-295.5 -77q-222 0 -327 105v-325h-122v954h122v-251q110 110 330 110zM504 82q141 0 222 51.5t81 151.5q0 99 -81 150.5t-222 51.5t-222 -51.5t-81 -150.5t81.5 -151t221.5 -52z" />
<glyph unicode="&#xff;" horiz-adv-x="885" d="M371 762v-118h-156v118h156zM678 762v-118h-156v118h156zM882 565l3 -4l-452 -675q-50 -74 -106.5 -106t-141.5 -32h-33v92l5 4h21q61 0 94.5 21t71.5 80l39 57l-383 559l2 4h135l311 -457l306 457h128z" />
<glyph unicode="&#x100;" horiz-adv-x="1089" d="M845 910v-90h-600v90h600zM946 0l-108 168h-585l-110 -168h-143l480 722h138l471 -722h-143zM318 269h456l-226 352z" />
<glyph unicode="&#x101;" d="M769 753v-87h-560v87h560zM770 565h122v-565h-122v88q-103 -100 -324 -100q-185 0 -293.5 76.5t-108.5 216.5q0 139 108.5 217.5t290.5 78.5q220 0 327 -107v95zM470 82q136 0 214 47t86 133v42q-8 87 -85.5 133t-214.5 46q-145 0 -223 -51.5t-78 -148.5q0 -96 78 -148.5 t223 -52.5z" />
<glyph unicode="&#x102;" horiz-adv-x="1089" d="M545 775q-122 0 -187 54.5t-66 149.5h105l3 -3q2 -55 41.5 -84.5t103.5 -29.5t104 29.5t41 84.5l3 3h106q-2 -95 -67 -149.5t-187 -54.5zM946 0l-108 168h-585l-110 -168h-143l480 722h138l471 -722h-143zM318 269h456l-226 352z" />
<glyph unicode="&#x103;" d="M498 640q-123 0 -188.5 58.5t-65.5 158.5h102l3 -3q1 -129 149 -129t149 129l3 3h102q0 -100 -65.5 -158.5t-188.5 -58.5zM770 565h122v-565h-122v88q-103 -100 -324 -100q-185 0 -293.5 76.5t-108.5 216.5q0 139 108.5 217.5t290.5 78.5q220 0 327 -107v95zM470 82 q136 0 214 47t86 133v42q-8 87 -85.5 133t-214.5 46q-145 0 -223 -51.5t-78 -148.5q0 -96 78 -148.5t223 -52.5z" />
<glyph unicode="&#x104;" horiz-adv-x="1089" d="M1087 0q-172 -64 -172 -128q0 -50 81 -50q47 0 86 14l3 -2v-73q-44 -13 -98 -13q-84 0 -130.5 28t-46.5 78q0 87 161 146h-25l-108 168h-585l-110 -168h-143l480 722h138l471 -722h-2zM318 269h456l-226 352z" />
<glyph unicode="&#x105;" d="M892 0q-172 -64 -172 -128q0 -50 81 -50q47 0 86 14l3 -2v-73q-44 -13 -98 -13q-84 0 -130.5 28t-46.5 78q0 87 161 146h-6v88q-103 -100 -324 -100q-185 0 -293.5 76.5t-108.5 216.5q0 139 108.5 217.5t290.5 78.5q220 0 327 -107v95h122v-565zM470 82q136 0 214 47 t86 133v42q-8 87 -85.5 133t-214.5 46q-145 0 -223 -51.5t-78 -148.5q0 -96 78 -148.5t223 -52.5z" />
<glyph unicode="&#x106;" horiz-adv-x="1125" d="M512 782l126 197h140l2 -2l-151 -197h-115zM49 365q0 177 147 277t395 100q250 0 445 -113v-117l-6 -1q-206 127 -430 127q-200 0 -310 -73t-110 -200t109.5 -200t310.5 -73q224 0 430 127l5 -1v-117q-196 -113 -440 -113q-250 0 -398 100t-148 277z" />
<glyph unicode="&#x107;" horiz-adv-x="889" d="M399 646l145 211h140l2 -2l-172 -211h-113zM44 282q0 136 115 215.5t316 79.5q182 0 334 -76v-118l-4 -1q-144 98 -330 98q-146 0 -225.5 -51.5t-79.5 -146.5q0 -94 79.5 -145.5t225.5 -51.5q189 0 330 97l4 -1v-116q-151 -77 -334 -77q-201 0 -316 79.5t-115 214.5z" />
<glyph unicode="&#x108;" horiz-adv-x="1125" d="M448 780h-141l-2 2l210 197h151l211 -197l-2 -2h-141l-144 129zM600 638q-200 0 -310 -73t-110 -200t109.5 -200t310.5 -73q224 0 430 127l5 -1v-117q-196 -113 -440 -113q-250 0 -398 100t-148 277t147 277t395 100q250 0 445 -113v-117l-6 -1q-206 127 -430 127z" />
<glyph unicode="&#x109;" horiz-adv-x="889" d="M324 644h-129l-2 2l208 211h138l208 -210l-2 -3h-127l-147 141zM475 480q-146 0 -225.5 -51.5t-79.5 -146.5q0 -94 79.5 -145.5t225.5 -51.5q189 0 330 97l4 -1v-116q-151 -77 -334 -77q-201 0 -316 79.5t-115 214.5q0 136 115 215.5t316 79.5q182 0 334 -76v-118l-4 -1 q-144 98 -330 98z" />
<glyph unicode="&#x10a;" horiz-adv-x="1125" d="M514 932h155v-122h-155v122zM49 365q0 177 147 277t395 100q250 0 445 -113v-117l-6 -1q-206 127 -430 127q-200 0 -310 -73t-110 -200t109.5 -200t310.5 -73q224 0 430 127l5 -1v-117q-196 -113 -440 -113q-250 0 -398 100t-148 277z" />
<glyph unicode="&#x10b;" horiz-adv-x="889" d="M397 761h156v-117h-156v117zM44 282q0 136 115 215.5t316 79.5q182 0 334 -76v-118l-4 -1q-144 98 -330 98q-146 0 -225.5 -51.5t-79.5 -146.5q0 -94 79.5 -145.5t225.5 -51.5q189 0 330 97l4 -1v-116q-151 -77 -334 -77q-201 0 -316 79.5t-115 214.5z" />
<glyph unicode="&#x10c;" horiz-adv-x="1125" d="M659 780h-137l-222 197l2 2h146l143 -127l144 127h146l2 -2zM600 638q-200 0 -310 -73t-110 -200t109.5 -200t310.5 -73q224 0 430 127l5 -1v-117q-196 -113 -440 -113q-250 0 -398 100t-148 277t147 277t395 100q250 0 445 -113v-117l-6 -1q-206 127 -430 127z" />
<glyph unicode="&#x10d;" horiz-adv-x="889" d="M530 644h-112l-226 211l2 2h140l140 -136l143 136h137l2 -2zM475 480q-146 0 -225.5 -51.5t-79.5 -146.5q0 -94 79.5 -145.5t225.5 -51.5q189 0 330 97l4 -1v-116q-151 -77 -334 -77q-201 0 -316 79.5t-115 214.5q0 136 115 215.5t316 79.5q182 0 334 -76v-118l-4 -1 q-144 98 -330 98z" />
<glyph unicode="&#x10e;" horiz-adv-x="1163" d="M617 780h-137l-222 197l2 2h146l143 -127l144 127h146l2 -2zM589 722q261 0 393 -94.5t132 -266.5t-132 -266.5t-391 -94.5h-502v722h500zM572 104q216 0 313.5 62.5t97.5 194.5t-97.5 194.5t-313.5 62.5h-356v-514h356z" />
<glyph unicode="&#x10f;" horiz-adv-x="1026" d="M770 470v252h122v-722h-122v89q-103 -101 -325 -101q-185 0 -293 76.5t-108 216.5q0 139 108.5 217.5t290.5 78.5q222 0 327 -107zM941 722h115l-23 -260h-92v260zM469 82q144 0 222.5 53t78.5 148t-78.5 147.5t-222.5 52.5q-143 0 -221.5 -52.5t-78.5 -147.5t78.5 -148 t221.5 -53z" />
<glyph unicode="&#x110;" horiz-adv-x="1163" d="M589 722q261 0 393 -94.5t132 -266.5t-132 -266.5t-391 -94.5h-502v316h-91v90h91v316h500zM572 104q216 0 313.5 62.5t97.5 194.5t-97.5 194.5t-313.5 62.5h-356v-212h382v-90h-382v-212h356z" />
<glyph unicode="&#x111;" d="M993 673v-56h-101v-617h-122v89q-103 -101 -325 -101q-185 0 -293 76.5t-108 216.5q0 139 108.5 217.5t290.5 78.5q222 0 327 -107v147h-300v56h300v49h122v-49h101zM469 82q144 0 222.5 53t78.5 148t-78.5 147.5t-222.5 52.5q-143 0 -221.5 -52.5t-78.5 -147.5 t78.5 -148t221.5 -53z" />
<glyph unicode="&#x112;" horiz-adv-x="1030" d="M830 910v-90h-600v90h600zM970 619h-754v-207h709v-101h-709v-208h754v-103h-881v722h881v-103z" />
<glyph unicode="&#x113;" horiz-adv-x="918" d="M750 753v-87h-560v87h560zM873 283v-29h-702q12 -82 93 -125.5t222 -43.5q105 0 185 24t158 77l4 -2v-112q-159 -84 -348 -84q-208 0 -324.5 79.5t-116.5 215.5t116.5 215t304.5 79q186 0 297 -78.5t111 -215.5zM466 486q-109 0 -187 -37t-105 -110h576q-25 75 -101 111 t-183 36z" />
<glyph unicode="&#x114;" horiz-adv-x="1030" d="M530 775q-122 0 -187 54.5t-66 149.5h105l3 -3q2 -55 41.5 -84.5t103.5 -29.5t104 29.5t41 84.5l3 3h106q-2 -95 -67 -149.5t-187 -54.5zM970 619h-754v-207h709v-101h-709v-208h754v-103h-881v722h881v-103z" />
<glyph unicode="&#x115;" horiz-adv-x="918" d="M470 640q-123 0 -188.5 58.5t-65.5 158.5h102l3 -3q1 -129 149 -129t149 129l3 3h102q0 -100 -65.5 -158.5t-188.5 -58.5zM873 283v-29h-702q12 -82 93 -125.5t222 -43.5q105 0 185 24t158 77l4 -2v-112q-159 -84 -348 -84q-208 0 -324.5 79.5t-116.5 215.5t116.5 215 t304.5 79q186 0 297 -78.5t111 -215.5zM466 486q-109 0 -187 -37t-105 -110h576q-25 75 -101 111t-183 36z" />
<glyph unicode="&#x116;" horiz-adv-x="1030" d="M608 932v-122h-155v122h155zM970 619h-754v-207h709v-101h-709v-208h754v-103h-881v722h881v-103z" />
<glyph unicode="&#x117;" horiz-adv-x="918" d="M549 761v-117h-156v117h156zM873 283v-29h-702q12 -82 93 -125.5t222 -43.5q105 0 185 24t158 77l4 -2v-112q-159 -84 -348 -84q-208 0 -324.5 79.5t-116.5 215.5t116.5 215t304.5 79q186 0 297 -78.5t111 -215.5zM466 486q-109 0 -187 -37t-105 -110h576 q-25 75 -101 111t-183 36z" />
<glyph unicode="&#x118;" horiz-adv-x="1030" d="M880 -178q47 0 86 14l3 -2v-73q-44 -13 -98 -13q-84 0 -130.5 28t-46.5 78q0 87 161 146h-766v722h881v-103h-754v-207h709v-101h-709v-208h754v-103h1q-172 -64 -172 -128q0 -50 81 -50z" />
<glyph unicode="&#x119;" horiz-adv-x="918" d="M873 283v-29h-702q12 -82 93 -125.5t222 -43.5q105 0 185 24t158 77l4 -2v-112q-77 -43 -128 -94.5t-51 -95.5q0 -26 20.5 -41t56.5 -15q61 0 99 32l3 -1v-81q-37 -28 -112 -28q-76 0 -120 30.5t-44 82.5q0 82 102 145q-78 -18 -174 -18q-208 0 -324.5 79.5t-116.5 215.5 t116.5 215t304.5 79q186 0 297 -78.5t111 -215.5zM466 486q-109 0 -187 -37t-105 -110h576q-25 75 -101 111t-183 36z" />
<glyph unicode="&#x11a;" horiz-adv-x="1030" d="M598 780h-137l-222 197l2 2h146l143 -127l144 127h146l2 -2zM970 619h-754v-207h709v-101h-709v-208h754v-103h-881v722h881v-103z" />
<glyph unicode="&#x11b;" horiz-adv-x="918" d="M529 644h-112l-226 211l2 2h140l140 -136l143 136h137l2 -2zM873 283v-29h-702q12 -82 93 -125.5t222 -43.5q105 0 185 24t158 77l4 -2v-112q-159 -84 -348 -84q-208 0 -324.5 79.5t-116.5 215.5t116.5 215t304.5 79q186 0 297 -78.5t111 -215.5zM466 486 q-109 0 -187 -37t-105 -110h576q-25 75 -101 111t-183 36z" />
<glyph unicode="&#x11c;" horiz-adv-x="1125" d="M448 780h-141l-2 2l210 197h151l211 -197l-2 -2h-141l-144 129zM600 638q-200 0 -310 -73t-110 -200t109.5 -200t310.5 -73q162 0 308 63v226h127v-280q-196 -113 -440 -113q-250 0 -398 100t-148 277t147 277t395 100q250 0 445 -113v-117l-6 -1q-206 127 -430 127z" />
<glyph unicode="&#x11d;" horiz-adv-x="970" d="M325 644h-129l-2 2l208 211h138l208 -210l-2 -3h-127l-147 141zM772 565h122v-482q-3 -335 -453 -335q-206 0 -361 81v115l5 2q153 -104 359 -104q156 0 241.5 55.5t86.5 162.5v32q-107 -105 -326 -105q-185 0 -293.5 77t-108.5 216q0 140 108.5 218.5t290.5 78.5 q220 0 329 -109v97zM470 81q145 0 223.5 52.5t78.5 149.5q0 96 -78.5 148t-223.5 52q-144 0 -222 -52t-78 -148q0 -97 78 -149.5t222 -52.5z" />
<glyph unicode="&#x11e;" horiz-adv-x="1125" d="M591 775q-122 0 -187 54.5t-66 149.5h105l3 -3q2 -55 41.5 -84.5t103.5 -29.5t104 29.5t41 84.5l3 3h106q-2 -95 -67 -149.5t-187 -54.5zM600 638q-200 0 -310 -73t-110 -200t109.5 -200t310.5 -73q162 0 308 63v226h127v-280q-196 -113 -440 -113q-250 0 -398 100 t-148 277t147 277t395 100q250 0 445 -113v-117l-6 -1q-206 127 -430 127z" />
<glyph unicode="&#x11f;" horiz-adv-x="970" d="M471 640q-123 0 -188.5 58.5t-65.5 158.5h102l3 -3q1 -129 149 -129t149 129l3 3h102q0 -100 -65.5 -158.5t-188.5 -58.5zM772 565h122v-482q-3 -335 -453 -335q-206 0 -361 81v115l5 2q153 -104 359 -104q156 0 241.5 55.5t86.5 162.5v32q-107 -105 -326 -105 q-185 0 -293.5 77t-108.5 216q0 140 108.5 218.5t290.5 78.5q220 0 329 -109v97zM470 81q145 0 223.5 52.5t78.5 149.5q0 96 -78.5 148t-223.5 52q-144 0 -222 -52t-78 -148q0 -97 78 -149.5t222 -52.5z" />
<glyph unicode="&#x120;" horiz-adv-x="1125" d="M669 932v-122h-155v122h155zM600 638q-200 0 -310 -73t-110 -200t109.5 -200t310.5 -73q162 0 308 63v226h127v-280q-196 -113 -440 -113q-250 0 -398 100t-148 277t147 277t395 100q250 0 445 -113v-117l-6 -1q-206 127 -430 127z" />
<glyph unicode="&#x121;" horiz-adv-x="970" d="M549 761v-117h-156v117h156zM772 565h122v-482q-3 -335 -453 -335q-206 0 -361 81v115l5 2q153 -104 359 -104q156 0 241.5 55.5t86.5 162.5v32q-107 -105 -326 -105q-185 0 -293.5 77t-108.5 216q0 140 108.5 218.5t290.5 78.5q220 0 329 -109v97zM470 81 q145 0 223.5 52.5t78.5 149.5q0 96 -78.5 148t-223.5 52q-144 0 -222 -52t-78 -148q0 -97 78 -149.5t222 -52.5z" />
<glyph unicode="&#x122;" horiz-adv-x="1125" d="M600 638q-200 0 -310 -73t-110 -200t109.5 -200t310.5 -73q162 0 308 63v226h127v-280q-196 -113 -440 -113q-250 0 -398 100t-148 277t147 277t395 100q250 0 445 -113v-117l-6 -1q-206 127 -430 127zM516 -168v120h143v-97l-79 -139h-47l31 116h-48z" />
<glyph unicode="&#x123;" horiz-adv-x="970" d="M549 748v-120h-143v97l79 139h47l-31 -116h48zM772 565h122v-482q-3 -335 -453 -335q-206 0 -361 81v115l5 2q153 -104 359 -104q156 0 241.5 55.5t86.5 162.5v32q-107 -105 -326 -105q-185 0 -293.5 77t-108.5 216q0 140 108.5 218.5t290.5 78.5q220 0 329 -109v97z M470 81q145 0 223.5 52.5t78.5 149.5q0 96 -78.5 148t-223.5 52q-144 0 -222 -52t-78 -148q0 -97 78 -149.5t222 -52.5z" />
<glyph unicode="&#x124;" horiz-adv-x="1121" d="M418 780h-141l-2 2l210 197h151l211 -197l-2 -2h-141l-144 129zM904 722h127v-722h-127v309h-688v-309h-127v722h127v-309h688v309z" />
<glyph unicode="&#x125;" horiz-adv-x="946" d="M289 801l-147 141l-147 -141h-129l-2 2l208 211h138l208 -210l-2 -3h-127zM524 577q167 0 257.5 -77t90.5 -224v-276h-122v255q0 118 -61.5 173.5t-187.5 55.5q-145 0 -222.5 -71.5t-77.5 -215.5v-197h-122v722h122v-273q101 128 323 128z" />
<glyph unicode="&#x126;" horiz-adv-x="1121" d="M1121 603v-79h-90v-524h-127v309h-688v-309h-127v524h-89v79h89v119h127v-119h688v119h127v-119h90zM904 413v111h-688v-111h688z" />
<glyph unicode="&#x127;" horiz-adv-x="946" d="M524 577q167 0 257.5 -77t90.5 -224v-276h-122v255q0 118 -61.5 173.5t-187.5 55.5q-145 0 -222.5 -71.5t-77.5 -215.5v-197h-122v617h-118v56h118v49h122v-49h278v-56h-278v-168q101 128 323 128z" />
<glyph unicode="&#x128;" horiz-adv-x="306" d="M30 871q-53 0 -60 -61l-3 -2h-97q2 70 46 111t111 41q50 0 141.5 -33.5t115.5 -33.5q49 0 53 59l3 2h97q-4 -71 -44.5 -110.5t-101.5 -39.5q-47 0 -141 33.5t-120 33.5zM89 722h127v-722h-127v722z" />
<glyph unicode="&#x129;" horiz-adv-x="281" d="M37 727q-52 0 -56 -62l-4 -2h-92q1 66 41.5 107t105.5 41q48 0 124.5 -35t96.5 -35q44 0 47 60l3 2h92q-1 -68 -38 -107t-97 -39q-47 0 -124 35t-99 35zM79 565h122v-565h-122v565z" />
<glyph unicode="&#x12a;" horiz-adv-x="306" d="M-115 910h536v-90h-536v90zM89 722h127v-722h-127v722z" />
<glyph unicode="&#x12b;" horiz-adv-x="281" d="M-40 752h361v-86h-361v86zM79 565h122v-565h-122v565z" />
<glyph unicode="&#x12c;" horiz-adv-x="306" d="M-100 979h105l3 -3q2 -55 41.5 -84.5t103.5 -29.5t104 29.5t41 84.5l3 3h106q-2 -95 -67 -149.5t-187 -54.5t-187 54.5t-66 149.5zM89 722h127v-722h-127v722z" />
<glyph unicode="&#x12d;" horiz-adv-x="281" d="M-113 857h102l3 -3q1 -129 149 -129t149 129l3 3h102q0 -100 -65.5 -158.5t-188.5 -58.5t-188.5 58.5t-65.5 158.5zM79 565h122v-565h-122v565z" />
<glyph unicode="&#x12e;" horiz-adv-x="306" d="M126 -178q47 0 86 14l3 -2v-73q-44 -13 -98 -13q-84 0 -130.5 28t-46.5 78q0 87 161 146h-12v722h127v-722h1q-172 -64 -172 -128q0 -50 81 -50z" />
<glyph unicode="&#x12f;" horiz-adv-x="281" d="M63 761h156v-117h-156v117zM202 0q-172 -64 -172 -128q0 -50 81 -50q47 0 86 14l3 -2v-73q-44 -13 -98 -13q-84 0 -130.5 28t-46.5 78q0 87 161 146h-7v565h122v-565h1z" />
<glyph unicode="&#x130;" horiz-adv-x="306" d="M75 932h155v-122h-155v122zM89 722h127v-722h-127v722z" />
<glyph unicode="&#x131;" horiz-adv-x="281" d="M79 565h122v-565h-122v565z" />
<glyph unicode="&#x132;" horiz-adv-x="987" d="M89 722h127v-722h-127v722zM365 18v110l6 3q83 -38 162 -38q238 0 238 264v365h127v-346q0 -388 -362 -388q-103 0 -171 30z" />
<glyph unicode="&#x133;" horiz-adv-x="534" d="M63 761h156v-117h-156v117zM338 761h156v-117h-156v117zM79 565h122v-565h-122v565zM215 -248v92l6 4q74 -7 104.5 27t30.5 116v574h121v-577q0 -113 -59 -176.5t-161 -63.5q-24 0 -42 4z" />
<glyph unicode="&#x134;" horiz-adv-x="711" d="M633 979l211 -197l-2 -2h-141l-144 129l-142 -129h-141l-2 2l210 197h151zM495 357v365h127v-346q0 -388 -362 -388q-103 0 -171 30v110l6 3q83 -38 162 -38q238 0 238 264z" />
<glyph unicode="&#x135;" horiz-adv-x="264" d="M214 857l208 -210l-2 -3h-127l-147 141l-147 -141h-129l-2 2l208 211h138zM86 -9v574h121v-577q0 -113 -59 -176.5t-161 -63.5q-24 0 -42 4v92l6 4q74 -7 104.5 27t30.5 116z" />
<glyph unicode="&#x136;" horiz-adv-x="1006" d="M523 436l483 -432l-2 -4h-172l-413 372l-203 -127v-245h-127v722h127v-344l570 344h186l3 -4zM439 -168v120h143v-97l-79 -139h-47l31 116h-48z" />
<glyph unicode="&#x137;" horiz-adv-x="907" d="M470 332l437 -328l-2 -4l-177 1l-353 271l-174 -111v-161h-122v722h122v-437l452 280h176l2 -4zM381 -168v120h143v-97l-79 -139h-47l31 116h-48z" />
<glyph unicode="&#x139;" horiz-adv-x="984" d="M212 780h-115l-2 2l126 197h140l2 -2zM220 102h705v-102h-832v722h127v-620z" />
<glyph unicode="&#x13a;" horiz-adv-x="281" d="M82 803l145 211h140l2 -2l-172 -211h-113zM79 722h122v-722h-122v722z" />
<glyph unicode="&#x13b;" horiz-adv-x="984" d="M220 102h705v-102h-832v722h127v-620zM437 -168v120h143v-97l-79 -139h-47l31 116h-48z" />
<glyph unicode="&#x13c;" horiz-adv-x="281" d="M201 722v-722h-122v722h122zM70 -48h143v-97l-79 -139h-47l31 116h-48v120z" />
<glyph unicode="&#x13d;" horiz-adv-x="984" d="M220 102h705v-102h-832v722h127v-620zM394 722l-23 -260h-92v260h115z" />
<glyph unicode="&#x13e;" horiz-adv-x="336" d="M79 722h122v-722h-122v722zM250 722h115l-23 -260h-92v260z" />
<glyph unicode="&#x13f;" horiz-adv-x="984" d="M220 102h705v-102h-832v722h127v-620zM720 483v-141h-167v141h167z" />
<glyph unicode="&#x140;" horiz-adv-x="451" d="M79 722h122v-722h-122v722zM284 436h167v-141h-167v141z" />
<glyph unicode="&#x141;" horiz-adv-x="1004" d="M240 102h705v-102h-832v278l-151 -73l-4 1v111l155 75v330h127v-268l260 126l4 -1v-111l-264 -128v-238z" />
<glyph unicode="&#x142;" horiz-adv-x="281" d="M323 521v-100l-122 -68v-353h-122v285l-119 -66l-3 1v100l122 68v334h122v-266l119 66z" />
<glyph unicode="&#x143;" horiz-adv-x="1127" d="M605 780h-115l-2 2l126 197h140l2 -2zM910 722h127v-722h-138l-683 577v-577h-127v722h131l690 -582v582z" />
<glyph unicode="&#x144;" horiz-adv-x="946" d="M525 644h-113l-2 2l145 211h140l2 -2zM524 577q169 0 258.5 -76t89.5 -225v-276h-122v247q0 123 -60 179.5t-188 56.5q-301 0 -301 -294v-189h-122v565h122v-119q101 131 323 131z" />
<glyph unicode="&#x145;" horiz-adv-x="1127" d="M910 722h127v-722h-138l-683 577v-577h-127v722h131l690 -582v582zM493 -168v120h143v-97l-79 -139h-47l31 116h-48z" />
<glyph unicode="&#x146;" horiz-adv-x="946" d="M524 577q169 0 258.5 -76t89.5 -225v-276h-122v247q0 123 -60 179.5t-188 56.5q-301 0 -301 -294v-189h-122v565h122v-119q101 131 323 131zM413 -168v120h143v-97l-79 -139h-47l31 116h-48z" />
<glyph unicode="&#x147;" horiz-adv-x="1127" d="M631 780h-137l-222 197l2 2h146l143 -127l144 127h146l2 -2zM910 722h127v-722h-138l-683 577v-577h-127v722h131l690 -582v582z" />
<glyph unicode="&#x148;" horiz-adv-x="946" d="M545 644h-112l-226 211l2 2h140l140 -136l143 136h137l2 -2zM524 577q169 0 258.5 -76t89.5 -225v-276h-122v247q0 123 -60 179.5t-188 56.5q-301 0 -301 -294v-189h-122v565h122v-119q101 131 323 131z" />
<glyph unicode="&#x14a;" horiz-adv-x="1127" d="M910 722h127v-954h-127v232l-694 578v-578h-127v722h131l690 -574v574z" />
<glyph unicode="&#x14b;" horiz-adv-x="946" d="M524 577q169 0 258.5 -76t89.5 -225v-508h-122v479q0 123 -60 179.5t-188 56.5q-301 0 -301 -294v-189h-122v565h122v-119q101 131 323 131z" />
<glyph unicode="&#x14c;" horiz-adv-x="1206" d="M303 910h600v-90h-600v90zM49 365q0 177 146.5 277t407.5 100t407.5 -100t146.5 -277t-146.5 -277t-407.5 -100t-407.5 100t-146.5 277zM1026 365q0 128 -110 200.5t-313 72.5t-313 -72.5t-110 -200.5t110 -200.5t313 -72.5t313 72.5t110 200.5z" />
<glyph unicode="&#x14d;" horiz-adv-x="937" d="M189 753h560v-87h-560v87zM44 283q0 137 115.5 215.5t308.5 78.5t309 -78.5t116 -215.5t-116 -216t-309 -79q-192 0 -308 79t-116 216zM767 283q0 97 -80 148.5t-219 51.5q-138 0 -218 -52t-80 -148q0 -97 80 -149t218 -52q139 0 219 52t80 149z" />
<glyph unicode="&#x14e;" horiz-adv-x="1206" d="M350 979h105l3 -3q2 -55 41.5 -84.5t103.5 -29.5t104 29.5t41 84.5l3 3h106q-2 -95 -67 -149.5t-187 -54.5t-187 54.5t-66 149.5zM49 365q0 177 146.5 277t407.5 100t407.5 -100t146.5 -277t-146.5 -277t-407.5 -100t-407.5 100t-146.5 277zM1026 365q0 128 -110 200.5 t-313 72.5t-313 -72.5t-110 -200.5t110 -200.5t313 -72.5t313 72.5t110 200.5z" />
<glyph unicode="&#x14f;" horiz-adv-x="937" d="M214 857h102l3 -3q1 -129 149 -129t149 129l3 3h102q0 -100 -65.5 -158.5t-188.5 -58.5t-188.5 58.5t-65.5 158.5zM44 283q0 137 115.5 215.5t308.5 78.5t309 -78.5t116 -215.5t-116 -216t-309 -79q-192 0 -308 79t-116 216zM767 283q0 97 -80 148.5t-219 51.5 q-138 0 -218 -52t-80 -148q0 -97 80 -149t218 -52q139 0 219 52t80 149z" />
<glyph unicode="&#x150;" horiz-adv-x="1206" d="M394 782l126 197h140l2 -2l-151 -197h-115zM662 782l142 197h144l2 -2l-171 -197h-115zM49 365q0 177 146.5 277t407.5 100t407.5 -100t146.5 -277t-146.5 -277t-407.5 -100t-407.5 100t-146.5 277zM1026 365q0 128 -110 200.5t-313 72.5t-313 -72.5t-110 -200.5 t110 -200.5t313 -72.5t313 72.5t110 200.5z" />
<glyph unicode="&#x151;" horiz-adv-x="937" d="M271 646l145 211h140l2 -2l-172 -211h-113zM512 646l173 211h138l2 -2l-197 -211h-114zM44 283q0 137 115.5 215.5t308.5 78.5t309 -78.5t116 -215.5t-116 -216t-309 -79q-192 0 -308 79t-116 216zM767 283q0 97 -80 148.5t-219 51.5q-138 0 -218 -52t-80 -148 q0 -97 80 -149t218 -52q139 0 219 52t80 149z" />
<glyph unicode="&#x152;" horiz-adv-x="1969" d="M1909 619h-754v-207h709v-101h-709v-208h754v-103h-881v101q-147 -113 -425 -113q-261 0 -407.5 100t-146.5 277t146.5 277t407.5 100q278 0 425 -113v93h881v-103zM603 92q203 0 313 72.5t110 200.5t-110 200.5t-313 72.5t-313 -72.5t-110 -200.5t110 -200.5t313 -72.5z " />
<glyph unicode="&#x153;" horiz-adv-x="1653" d="M44 285q0 137 116.5 216.5t311.5 79.5q259 0 366 -134q52 65 145.5 99.5t214.5 34.5q188 0 299 -79t112 -217v-29h-707q12 -83 94 -127t223 -44q106 0 186.5 24.5t159.5 77.5l4 -2v-113q-162 -84 -351 -84q-273 0 -380 135q-52 -66 -147 -100.5t-219 -34.5 q-195 0 -311.5 79.5t-116.5 217.5zM1484 341q-21 73 -97.5 111t-187.5 38q-112 0 -191 -39.5t-103 -109.5h579zM775 285q0 98 -81.5 150t-221.5 52t-221 -52t-81 -150q0 -99 81 -151t221 -52t221.5 52.5t81.5 150.5z" />
<glyph unicode="&#x154;" horiz-adv-x="1097" d="M549 776h-115l-2 2l126 197h140l2 -2zM867 340q40 -12 67 -37.5t42 -61t25 -72t24.5 -83.5t32.5 -81v-5h-137q-12 35 -25 86.5t-24.5 86.5t-27.5 59q-20 30 -54.5 43.5t-111.5 13.5h-462v-289h-127v722h614q149 0 230.5 -51t81.5 -144q0 -62 -38 -110.5t-110 -76.5z M216 393h468q200 0 200 114q0 111 -214 111h-454v-225z" />
<glyph unicode="&#x155;" horiz-adv-x="627" d="M369 644h-113l-2 2l145 211h140l2 -2zM493 577q36 0 74 -5v-99l-5 -2q-35 8 -95 8q-116 0 -191 -68.5t-75 -183.5v-227h-122v565h122v-107q97 119 292 119z" />
<glyph unicode="&#x156;" horiz-adv-x="1097" d="M867 340q40 -12 67 -37.5t42 -61t25 -72t24.5 -83.5t32.5 -81v-5h-137q-12 35 -25 86.5t-24.5 86.5t-27.5 59q-20 30 -54.5 43.5t-111.5 13.5h-462v-289h-127v722h614q149 0 230.5 -51t81.5 -144q0 -62 -38 -110.5t-110 -76.5zM216 393h468q200 0 200 114q0 111 -214 111 h-454v-225zM491 -168v120h143v-97l-79 -139h-47l31 116h-48z" />
<glyph unicode="&#x157;" horiz-adv-x="627" d="M493 577q36 0 74 -5v-99l-5 -2q-35 8 -95 8q-116 0 -191 -68.5t-75 -183.5v-227h-122v565h122v-107q97 119 292 119zM69 -168v120h143v-97l-79 -139h-47l31 116h-48z" />
<glyph unicode="&#x158;" horiz-adv-x="1097" d="M591 780h-137l-222 197l2 2h146l143 -127l144 127h146l2 -2zM867 340q40 -12 67 -37.5t42 -61t25 -72t24.5 -83.5t32.5 -81v-5h-137q-12 35 -25 86.5t-24.5 86.5t-27.5 59q-20 30 -54.5 43.5t-111.5 13.5h-462v-289h-127v722h614q149 0 230.5 -51t81.5 -144 q0 -62 -38 -110.5t-110 -76.5zM216 393h468q200 0 200 114q0 111 -214 111h-454v-225z" />
<glyph unicode="&#x159;" horiz-adv-x="627" d="M373 644h-112l-226 211l2 2h140l140 -136l143 136h137l2 -2zM201 458q97 119 292 119q36 0 74 -5v-99l-5 -2q-35 8 -95 8q-116 0 -191 -68.5t-75 -183.5v-227h-122v565h122v-107z" />
<glyph unicode="&#x15a;" horiz-adv-x="1091" d="M457 782l126 197h140l2 -2l-151 -197h-115zM67 50v113l6 3q199 -74 477 -74q353 0 353 117q0 39 -46.5 61.5t-120.5 30.5t-163 13t-178.5 15t-163.5 29t-120.5 62t-46.5 108q0 105 119 159.5t343 54.5q252 0 455 -63v-107l-6 -2q-207 68 -444 68q-156 0 -247 -28t-91 -74 q0 -33 36 -54.5t95 -29.5t134 -14.5t154 -10.5t154 -17.5t134 -34t95 -61.5t36 -99q0 -117 -117 -172t-370 -55q-288 0 -477 62z" />
<glyph unicode="&#x15b;" horiz-adv-x="901" d="M357 646l145 211h140l2 -2l-172 -211h-113zM62 56v101l5 2q163 -80 399 -80q124 0 189.5 21.5t65.5 61.5q0 33 -49 50.5t-122.5 21t-159.5 11.5t-159.5 19.5t-122.5 47t-49 92.5q0 84 93 128.5t268 44.5q214 0 368 -57v-97l-7 -2q-155 65 -373 65q-106 0 -164.5 -19 t-58.5 -54q0 -26 36.5 -41t94.5 -20.5t128.5 -9t141.5 -12t129 -24t94.5 -50.5t36.5 -86q0 -89 -95.5 -135.5t-283.5 -46.5q-118 0 -227 18.5t-178 49.5z" />
<glyph unicode="&#x15c;" horiz-adv-x="1091" d="M394 780h-141l-2 2l210 197h151l211 -197l-2 -2h-141l-144 129zM193 536q0 -33 36 -54.5t95 -29.5t134 -14.5t154 -10.5t154 -17.5t134 -34t95 -61.5t36 -99q0 -117 -117 -172t-370 -55q-288 0 -477 62v113l6 3q199 -74 477 -74q353 0 353 117q0 39 -46.5 61.5 t-120.5 30.5t-163 13t-178.5 15t-163.5 29t-120.5 62t-46.5 108q0 105 119 159.5t343 54.5q252 0 455 -63v-107l-6 -2q-207 68 -444 68q-156 0 -247 -28t-91 -74z" />
<glyph unicode="&#x15d;" horiz-adv-x="901" d="M298 644h-129l-2 2l208 211h138l208 -210l-2 -3h-127l-147 141zM185 413q0 -26 36.5 -41t94.5 -20.5t128.5 -9t141.5 -12t129 -24t94.5 -50.5t36.5 -86q0 -89 -95.5 -135.5t-283.5 -46.5q-118 0 -227 18.5t-178 49.5v101l5 2q163 -80 399 -80q124 0 189.5 21.5t65.5 61.5 q0 33 -49 50.5t-122.5 21t-159.5 11.5t-159.5 19.5t-122.5 47t-49 92.5q0 84 93 128.5t268 44.5q214 0 368 -57v-97l-7 -2q-155 65 -373 65q-106 0 -164.5 -19t-58.5 -54z" />
<glyph unicode="&#x15e;" horiz-adv-x="1091" d="M1031 215q0 -107 -97 -162t-305 -63l-97 -176h-125l-2 3l108 171q-273 5 -446 62v113l6 3q199 -74 477 -74q353 0 353 117q0 39 -46.5 61.5t-120.5 30.5t-163 13t-178.5 15t-163.5 29t-120.5 62t-46.5 108q0 105 119 159.5t343 54.5q252 0 455 -63v-107l-6 -2 q-207 68 -444 68q-156 0 -247 -28t-91 -74q0 -33 36 -54.5t95 -29.5t134 -14.5t154 -10.5t154 -17.5t134 -34t95 -61.5t36 -99z" />
<glyph unicode="&#x15f;" horiz-adv-x="901" d="M846 170q0 -167 -324 -181l-97 -175h-125l-2 3l108 172q-218 10 -344 67v101l5 2q163 -80 399 -80q124 0 189.5 21.5t65.5 61.5q0 33 -49 50.5t-122.5 21t-159.5 11.5t-159.5 19.5t-122.5 47t-49 92.5q0 84 93 128.5t268 44.5q214 0 368 -57v-97l-7 -2q-155 65 -373 65 q-106 0 -164.5 -19t-58.5 -54q0 -26 36.5 -41t94.5 -20.5t128.5 -9t141.5 -12t129 -24t94.5 -50.5t36.5 -86z" />
<glyph unicode="&#x160;" horiz-adv-x="1091" d="M603 780h-137l-222 197l2 2h146l143 -127l144 127h146l2 -2zM193 536q0 -33 36 -54.5t95 -29.5t134 -14.5t154 -10.5t154 -17.5t134 -34t95 -61.5t36 -99q0 -117 -117 -172t-370 -55q-288 0 -477 62v113l6 3q199 -74 477 -74q353 0 353 117q0 39 -46.5 61.5t-120.5 30.5 t-163 13t-178.5 15t-163.5 29t-120.5 62t-46.5 108q0 105 119 159.5t343 54.5q252 0 455 -63v-107l-6 -2q-207 68 -444 68q-156 0 -247 -28t-91 -74z" />
<glyph unicode="&#x161;" horiz-adv-x="901" d="M492 644h-112l-226 211l2 2h140l140 -136l143 136h137l2 -2zM185 413q0 -26 36.5 -41t94.5 -20.5t128.5 -9t141.5 -12t129 -24t94.5 -50.5t36.5 -86q0 -89 -95.5 -135.5t-283.5 -46.5q-118 0 -227 18.5t-178 49.5v101l5 2q163 -80 399 -80q124 0 189.5 21.5t65.5 61.5 q0 33 -49 50.5t-122.5 21t-159.5 11.5t-159.5 19.5t-122.5 47t-49 92.5q0 84 93 128.5t268 44.5q214 0 368 -57v-97l-7 -2q-155 65 -373 65q-106 0 -164.5 -19t-58.5 -54z" />
<glyph unicode="&#x162;" horiz-adv-x="1060" d="M1040 722v-103h-447v-619h-3l-103 -186h-125l-2 3l115 183h-9v619h-446v103h1020z" />
<glyph unicode="&#x163;" horiz-adv-x="477" d="M458 474h-185v-244q0 -81 36 -114t124 -33h20l5 -3v-90q-32 -2 -51 -2q-23 0 -34 1l-100 -175h-131l130 195q-121 49 -121 215v250h-132v87h132v127h122v-127h185v-87z" />
<glyph unicode="&#x164;" horiz-adv-x="1060" d="M598 780h-137l-222 197l2 2h146l143 -127l144 127h146l2 -2zM1040 722v-103h-447v-619h-127v619h-446v103h1020z" />
<glyph unicode="&#x165;" horiz-adv-x="477" d="M433 860l-23 -260h-92v260h115zM458 474h-185v-244q0 -81 36 -114t124 -33h20l5 -3v-90q-32 -2 -51 -2q-132 0 -194 58t-62 178v250h-132v87h132v127h122v-127h185v-87z" />
<glyph unicode="&#x166;" horiz-adv-x="1060" d="M1040 619h-447v-208h313v-92h-313v-319h-127v319h-312v92h312v208h-446v103h1020v-103z" />
<glyph unicode="&#x167;" horiz-adv-x="477" d="M458 474h-185v-116h165v-81h-165v-47q0 -81 36 -114t124 -33h20l5 -3v-90q-32 -2 -51 -2q-132 0 -194 58t-62 178v53h-116v81h116v116h-132v87h132v127h122v-127h185v-87z" />
<glyph unicode="&#x168;" horiz-adv-x="1058" d="M406 871q-53 0 -60 -61l-3 -2h-97q2 70 46 111t111 41q50 0 141.5 -33.5t115.5 -33.5q49 0 53 59l3 2h97q-4 -71 -44.5 -110.5t-101.5 -39.5q-47 0 -140.5 33.5t-120.5 33.5zM89 389v333h127v-347q0 -143 77.5 -213t235.5 -70t235.5 70t77.5 213v347h127v-333 q0 -204 -109 -302.5t-331 -98.5t-331 98.5t-109 302.5z" />
<glyph unicode="&#x169;" horiz-adv-x="940" d="M290 665l-3 -2h-96q1 66 43.5 107.5t107.5 40.5q51 0 142 -34t114 -34q44 0 49 58l3 2h96q-3 -67 -41 -107t-99 -40q-47 0 -139.5 34.5t-118.5 34.5q-52 0 -58 -60zM739 565h122v-565h-122v114q-100 -126 -317 -126q-167 0 -257.5 79.5t-90.5 233.5v264h122v-250 q0 -118 61.5 -175.5t188.5 -57.5q293 0 293 298v185z" />
<glyph unicode="&#x16a;" horiz-adv-x="1058" d="M229 910h600v-90h-600v90zM89 389v333h127v-347q0 -143 77.5 -213t235.5 -70t235.5 70t77.5 213v347h127v-333q0 -204 -109 -302.5t-331 -98.5t-331 98.5t-109 302.5z" />
<glyph unicode="&#x16b;" horiz-adv-x="940" d="M748 753v-87h-560v87h560zM739 565h122v-565h-122v114q-100 -126 -317 -126q-167 0 -257.5 79.5t-90.5 233.5v264h122v-250q0 -118 61.5 -175.5t188.5 -57.5q293 0 293 298v185z" />
<glyph unicode="&#x16c;" horiz-adv-x="1058" d="M276 979h105l3 -3q2 -55 41.5 -84.5t103.5 -29.5t104 29.5t41 84.5l3 3h106q-2 -95 -67 -149.5t-187 -54.5t-187 54.5t-66 149.5zM89 389v333h127v-347q0 -143 77.5 -213t235.5 -70t235.5 70t77.5 213v347h127v-333q0 -204 -109 -302.5t-331 -98.5t-331 98.5t-109 302.5z " />
<glyph unicode="&#x16d;" horiz-adv-x="940" d="M468 640q-123 0 -188.5 58.5t-65.5 158.5h102l3 -3q1 -129 149 -129t149 129l3 3h102q0 -100 -65.5 -158.5t-188.5 -58.5zM739 565h122v-565h-122v114q-100 -126 -317 -126q-167 0 -257.5 79.5t-90.5 233.5v264h122v-250q0 -118 61.5 -175.5t188.5 -57.5q293 0 293 298 v185z" />
<glyph unicode="&#x16e;" horiz-adv-x="1058" d="M340 887q0 63 51.5 100.5t137.5 37.5t137.5 -37.5t51.5 -100.5t-51.5 -100.5t-137.5 -37.5t-137.5 37.5t-51.5 100.5zM633 887q0 33 -27.5 51.5t-76.5 18.5t-76.5 -18.5t-27.5 -51.5q0 -32 27.5 -51t76.5 -19t76.5 19t27.5 51zM89 389v333h127v-347q0 -143 77.5 -213 t235.5 -70t235.5 70t77.5 213v347h127v-333q0 -204 -109 -302.5t-331 -98.5t-331 98.5t-109 302.5z" />
<glyph unicode="&#x16f;" horiz-adv-x="940" d="M467 610q-91 0 -143.5 37t-52.5 99t52.5 98.5t143.5 36.5t144 -36.5t53 -98.5t-53 -99t-144 -37zM467 814q-51 0 -79 -18t-28 -50q0 -31 28.5 -50t78.5 -19t79 19t29 50q0 32 -28.5 50t-79.5 18zM739 565h122v-565h-122v114q-100 -126 -317 -126q-167 0 -257.5 79.5 t-90.5 233.5v264h122v-250q0 -118 61.5 -175.5t188.5 -57.5q293 0 293 298v185z" />
<glyph unicode="&#x170;" horiz-adv-x="1058" d="M311 782l126 197h140l2 -2l-151 -197h-115zM579 782l142 197h144l2 -2l-171 -197h-115zM89 389v333h127v-347q0 -143 77.5 -213t235.5 -70t235.5 70t77.5 213v347h127v-333q0 -204 -109 -302.5t-331 -98.5t-331 98.5t-109 302.5z" />
<glyph unicode="&#x171;" horiz-adv-x="940" d="M377 644h-113l-2 2l145 211h140l2 -2zM505 644l-2 2l173 211h138l2 -2l-197 -211h-114zM739 565h122v-565h-122v114q-100 -126 -317 -126q-167 0 -257.5 79.5t-90.5 233.5v264h122v-250q0 -118 61.5 -175.5t188.5 -57.5q293 0 293 298v185z" />
<glyph unicode="&#x172;" horiz-adv-x="1058" d="M842 722h127v-333q0 -335 -302 -390q-170 -64 -170 -127q0 -50 81 -50q47 0 86 14l3 -2v-73q-44 -13 -98 -13q-84 0 -130.5 28t-46.5 78q0 80 130 134q-218 2 -325.5 100t-107.5 301v333h127v-347q0 -143 77.5 -213t235.5 -70t235.5 70t77.5 213v347z" />
<glyph unicode="&#x173;" horiz-adv-x="940" d="M861 0q-172 -64 -172 -128q0 -50 81 -50q47 0 86 14l3 -2v-73q-44 -13 -98 -13q-84 0 -130.5 28t-46.5 78q0 87 161 146h-6v114q-100 -126 -317 -126q-167 0 -257.5 79.5t-90.5 233.5v264h122v-250q0 -118 61.5 -175.5t188.5 -57.5q293 0 293 298v185h122v-565z" />
<glyph unicode="&#x174;" horiz-adv-x="1339" d="M526 780h-141l-2 2l210 197h151l211 -197l-2 -2h-141l-144 129zM1336 722l3 -3l-311 -719h-123l-236 574l-236 -574h-124l-309 718l2 4h133l235 -573l235 573h128l235 -574l236 574h132z" />
<glyph unicode="&#x175;" horiz-adv-x="1269" d="M489 644h-129l-2 2l208 211h138l208 -210l-2 -3h-127l-147 141zM1267 565l2 -3l-288 -562h-129l-218 445l-218 -445h-128l-288 562l2 3h129l224 -453l220 453h122l219 -453l225 453h126z" />
<glyph unicode="&#x176;" horiz-adv-x="1000" d="M357 780h-141l-2 2l210 197h151l211 -197l-2 -2h-141l-144 129zM998 722l2 -4l-436 -490v-228h-127v228l-437 490l2 4h147l352 -396l351 396h146z" />
<glyph unicode="&#x177;" horiz-adv-x="885" d="M301 644h-129l-2 2l208 211h138l208 -210l-2 -3h-127l-147 141zM882 565l3 -4l-452 -675q-50 -74 -106.5 -106t-141.5 -32h-33v92l5 4h21q61 0 94.5 21t71.5 80l39 57l-383 559l2 4h135l311 -457l306 457h128z" />
<glyph unicode="&#x178;" horiz-adv-x="1000" d="M417 933v-123h-156v123h156zM738 933v-123h-156v123h156zM998 722l2 -4l-436 -490v-228h-127v228l-437 490l2 4h147l352 -396l351 396h146z" />
<glyph unicode="&#x179;" horiz-adv-x="1085" d="M568 780h-115l-2 2l126 197h140l2 -2zM299 104h697v-104h-907v83l693 535h-665v104h866v-83z" />
<glyph unicode="&#x17a;" horiz-adv-x="915" d="M489 644h-113l-2 2l145 211h140l2 -2zM271 94h565v-94h-757v86l552 385h-536v94h727v-86z" />
<glyph unicode="&#x17b;" horiz-adv-x="1085" d="M622 932v-122h-155v122h155zM299 104h697v-104h-907v83l693 535h-665v104h866v-83z" />
<glyph unicode="&#x17c;" horiz-adv-x="915" d="M537 761v-117h-156v117h156zM271 94h565v-94h-757v86l552 385h-536v94h727v-86z" />
<glyph unicode="&#x17d;" horiz-adv-x="1085" d="M610 780h-137l-222 197l2 2h146l143 -127l144 127h146l2 -2zM299 104h697v-104h-907v83l693 535h-665v104h866v-83z" />
<glyph unicode="&#x17e;" horiz-adv-x="915" d="M514 644h-112l-226 211l2 2h140l140 -136l143 136h137l2 -2zM271 94h565v-94h-757v86l552 385h-536v94h727v-86z" />
<glyph unicode="&#x192;" horiz-adv-x="655" d="M502 742q49 0 103 -10v-87l-7 -2q-27 8 -79 8q-91 0 -132 -36t-41 -121v-116h231v-87h-231v-291q0 -251 -278 -251q-50 0 -102 10v87l6 2q27 -8 83 -8q88 0 128.5 37t40.5 126v288h-132v87h132v108q0 256 278 256z" />
<glyph unicode="&#x218;" horiz-adv-x="1091" d="M193 536q0 -33 36 -54.5t95 -29.5t134 -14.5t154 -10.5t154 -17.5t134 -34t95 -61.5t36 -99q0 -117 -117 -172t-370 -55q-288 0 -477 62v113l6 3q199 -74 477 -74q353 0 353 117q0 39 -46.5 61.5t-120.5 30.5t-163 13t-178.5 15t-163.5 29t-120.5 62t-46.5 108 q0 105 119 159.5t343 54.5q252 0 455 -63v-107l-6 -2q-207 68 -444 68q-156 0 -247 -28t-91 -74zM496 -168v120h143v-97l-79 -139h-47l31 116h-48z" />
<glyph unicode="&#x219;" horiz-adv-x="901" d="M185 413q0 -26 36.5 -41t94.5 -20.5t128.5 -9t141.5 -12t129 -24t94.5 -50.5t36.5 -86q0 -89 -95.5 -135.5t-283.5 -46.5q-118 0 -227 18.5t-178 49.5v101l5 2q163 -80 399 -80q124 0 189.5 21.5t65.5 61.5q0 33 -49 50.5t-122.5 21t-159.5 11.5t-159.5 19.5t-122.5 47 t-49 92.5q0 84 93 128.5t268 44.5q214 0 368 -57v-97l-7 -2q-155 65 -373 65q-106 0 -164.5 -19t-58.5 -54zM394 -168v120h143v-97l-79 -139h-47l31 116h-48z" />
<glyph unicode="&#x21a;" horiz-adv-x="1060" d="M1040 722v-103h-447v-619h-127v619h-446v103h1020zM459 -168v120h143v-97l-79 -139h-47l31 116h-48z" />
<glyph unicode="&#x21b;" horiz-adv-x="477" d="M458 474h-185v-244q0 -81 36 -114t124 -33h20l5 -3v-90q-32 -2 -51 -2q-132 0 -194 58t-62 178v250h-132v87h132v127h122v-127h185v-87zM239 -168v120h143v-97l-79 -139h-47l31 116h-48z" />
<glyph unicode="&#x2c6;" horiz-adv-x="654" d="M396 857l208 -210l-2 -3h-127l-147 141l-147 -141h-129l-2 2l208 211h138z" />
<glyph unicode="&#x2c7;" horiz-adv-x="664" d="M612 857l2 -2l-226 -211h-112l-226 211l2 2h140l140 -136l143 136h137z" />
<glyph unicode="&#x2d8;" horiz-adv-x="608" d="M50 857h102l3 -3q1 -129 149 -129t149 129l3 3h102q0 -100 -65.5 -158.5t-188.5 -58.5t-188.5 58.5t-65.5 158.5z" />
<glyph unicode="&#x2d9;" horiz-adv-x="256" d="M50 761h156v-117h-156v117z" />
<glyph unicode="&#x2da;" horiz-adv-x="493" d="M50 746q0 62 52.5 98.5t143.5 36.5t144 -36.5t53 -98.5t-53 -99t-144 -37t-143.5 37t-52.5 99zM354 746q0 32 -28.5 50t-79.5 18t-79 -18t-28 -50q0 -31 28.5 -50t78.5 -19t79 19t29 50z" />
<glyph unicode="&#x2db;" horiz-adv-x="377" d="M50 -146q0 87 161 146h116q-172 -64 -172 -128q0 -50 81 -50q47 0 86 14l3 -2v-73q-44 -13 -98 -13q-84 0 -130.5 28t-46.5 78z" />
<glyph unicode="&#x2dc;" horiz-adv-x="655" d="M207 725q-52 0 -58 -60l-3 -2h-96q1 66 43.5 107.5t107.5 40.5q51 0 142 -34t114 -34q44 0 49 58l3 2h96q-3 -67 -41 -107t-99 -40q-47 0 -139.5 34.5t-118.5 34.5z" />
<glyph unicode="&#x2dd;" horiz-adv-x="654" d="M50 646l145 211h140l2 -2l-172 -211h-113zM291 646l173 211h138l2 -2l-197 -211h-114z" />
<glyph unicode="&#x3a9;" horiz-adv-x="1236" d="M904 98h282v-98h-515v142q178 9 275 75t97 174q0 116 -111 183t-313 67t-312.5 -67t-110.5 -183q0 -108 96 -173.5t273 -75.5v-142h-515v98h286q-131 38 -200.5 114t-69.5 186q0 161 146 252.5t407 91.5t407.5 -91.5t146.5 -252.5q0 -110 -69 -186t-200 -114z" />
<glyph unicode="&#x3c0;" horiz-adv-x="1238" d="M1188 565v-98h-222v-467h-113v467h-468v-467h-113v467h-222v98h1138z" />
<glyph unicode="&#x1e80;" horiz-adv-x="1339" d="M724 780h-115l-151 197l2 2h140l126 -197zM1336 722l3 -3l-311 -719h-123l-236 574l-236 -574h-124l-309 718l2 4h133l235 -573l235 573h128l235 -574l236 574h132z" />
<glyph unicode="&#x1e81;" horiz-adv-x="1269" d="M692 644h-113l-172 211l2 2h140l145 -211zM1267 565l2 -3l-288 -562h-129l-218 445l-218 -445h-128l-288 562l2 3h129l224 -453l220 453h122l219 -453l225 453h126z" />
<glyph unicode="&#x1e82;" horiz-adv-x="1339" d="M730 780h-115l-2 2l126 197h140l2 -2zM1336 722l3 -3l-311 -719h-123l-236 574l-236 -574h-124l-309 718l2 4h133l235 -573l235 573h128l235 -574l236 574h132z" />
<glyph unicode="&#x1e83;" horiz-adv-x="1269" d="M698 644h-113l-2 2l145 211h140l2 -2zM1267 565l2 -3l-288 -562h-129l-218 445l-218 -445h-128l-288 562l2 3h129l224 -453l220 453h122l219 -453l225 453h126z" />
<glyph unicode="&#x1e84;" horiz-adv-x="1339" d="M586 933v-123h-156v123h156zM907 933v-123h-156v123h156zM1336 722l3 -3l-311 -719h-123l-236 574l-236 -574h-124l-309 718l2 4h133l235 -573l235 573h128l235 -574l236 574h132z" />
<glyph unicode="&#x1e85;" horiz-adv-x="1269" d="M560 762v-118h-156v118h156zM867 762v-118h-156v118h156zM1267 565l2 -3l-288 -562h-129l-218 445l-218 -445h-128l-288 562l2 3h129l224 -453l220 453h122l219 -453l225 453h126z" />
<glyph unicode="&#x1e9e;" horiz-adv-x="1167" d="M791 443q168 -2 258 -56t90 -159q0 -117 -110.5 -178.5t-318.5 -61.5q-167 0 -397 60v114l8 2q206 -72 395 -72q144 0 220 35.5t76 104.5q0 129 -329 129h-99l-6 7l211 230q-90 40 -229 40q-187 0 -279.5 -64.5t-92.5 -204.5v-369h-127v390q0 174 130.5 263t370.5 89 q122 0 232.5 -31t168.5 -79z" />
<glyph unicode="&#x1ef2;" horiz-adv-x="1000" d="M588 780h-115l-151 197l2 2h140l126 -197zM998 722l2 -4l-436 -490v-228h-127v228l-437 490l2 4h147l352 -396l351 396h146z" />
<glyph unicode="&#x1ef3;" horiz-adv-x="885" d="M534 644h-113l-172 211l2 2h140l145 -211zM882 565l3 -4l-452 -675q-50 -74 -106.5 -106t-141.5 -32h-33v92l5 4h21q61 0 94.5 21t71.5 80l39 57l-383 559l2 4h135l311 -457l306 457h128z" />
<glyph unicode="&#x2000;" horiz-adv-x="512" />
<glyph unicode="&#x2001;" horiz-adv-x="1025" />
<glyph unicode="&#x2002;" horiz-adv-x="500" />
<glyph unicode="&#x2003;" horiz-adv-x="1000" />
<glyph unicode="&#x2004;" horiz-adv-x="341" />
<glyph unicode="&#x2005;" horiz-adv-x="256" />
<glyph unicode="&#x2006;" horiz-adv-x="170" />
<glyph unicode="&#x2007;" horiz-adv-x="170" />
<glyph unicode="&#x2008;" horiz-adv-x="128" />
<glyph unicode="&#x2009;" horiz-adv-x="200" />
<glyph unicode="&#x200a;" horiz-adv-x="100" />
<glyph unicode="&#x2010;" horiz-adv-x="537" d="M50 340h437v-98l-437 -1v99z" />
<glyph unicode="&#x2011;" horiz-adv-x="537" d="M50 340h437v-98l-437 -1v99z" />
<glyph unicode="&#x2012;" horiz-adv-x="537" d="M50 340h437v-98l-437 -1v99z" />
<glyph unicode="&#x2013;" horiz-adv-x="887" d="M50 340h787v-99h-787v99z" />
<glyph unicode="&#x2014;" horiz-adv-x="1637" d="M50 340h1537v-99h-1537v99z" />
<glyph unicode="&#x2018;" horiz-adv-x="253" d="M148 580h55v-140h-168v116l107 196h50z" />
<glyph unicode="&#x2019;" horiz-adv-x="253" d="M40 729h168v-116l-107 -196h-50l44 172h-55v140z" />
<glyph unicode="&#x201a;" horiz-adv-x="253" d="M50 140h168v-116l-107 -196h-50l44 172h-55v140z" />
<glyph unicode="&#x201c;" horiz-adv-x="471" d="M191 722l-44 -172h55v-140h-168v116l107 196h50zM366 550h55v-140h-168v116l107 196h50z" />
<glyph unicode="&#x201d;" horiz-adv-x="471" d="M50 582v140h168v-116l-107 -196h-50l44 172h-55zM269 722h168v-116l-107 -196h-50l44 172h-55v140z" />
<glyph unicode="&#x201e;" horiz-adv-x="471" d="M50 0v140h168v-116l-107 -196h-50l44 172h-55zM269 140h168v-116l-107 -196h-50l44 172h-55v140z" />
<glyph unicode="&#x2020;" horiz-adv-x="892" d="M842 526v-98l-343 6l6 -585h-120l6 585l-341 -6v98l340 -5l-5 201h120l-5 -201z" />
<glyph unicode="&#x2021;" horiz-adv-x="892" d="M842 526v-98l-342 6l5 -148l-5 -149l342 6v-98l-342 5l5 -201h-120l5 201l-340 -5v98l340 -6l-5 149l5 148l-340 -6v98l340 -5l-5 201h120l-5 -201z" />
<glyph unicode="&#x2022;" horiz-adv-x="422" d="M50 361q0 69 44.5 115t116.5 46t116.5 -46t44.5 -115t-44.5 -115t-116.5 -46t-116.5 46t-44.5 115z" />
<glyph unicode="&#x2025;" horiz-adv-x="566" d="M50 141h167v-141h-167v141zM350 141h167v-141h-167v141z" />
<glyph unicode="&#x2026;" horiz-adv-x="866" d="M50 141h167v-141h-167v141zM350 141h167v-141h-167v141zM649 141h167v-141h-167v141z" />
<glyph unicode="&#x202f;" horiz-adv-x="205" />
<glyph unicode="&#x2030;" horiz-adv-x="2352" d="M50 492q0 116 89.5 182.5t240.5 66.5t240.5 -66.5t89.5 -182.5q0 -115 -90 -182t-240 -67t-240 67t-90 182zM483 4l565 718h110l2 -4l-564 -718h-110zM609 492q0 78 -61.5 122t-167.5 44t-167.5 -44t-61.5 -122t61.5 -121.5t167.5 -43.5t167.5 43.5t61.5 121.5zM940 237 q0 116 89.5 182.5t240.5 66.5t240.5 -66.5t89.5 -182.5q0 -115 -90 -182t-240 -67t-240 67t-90 182zM1642 237q0 116 89.5 182.5t240.5 66.5t240.5 -66.5t89.5 -182.5q0 -115 -90 -182t-240 -67t-240 67t-90 182zM1499 237q0 78 -61.5 122t-167.5 44t-167.5 -44t-61.5 -122 t61.5 -121.5t167.5 -43.5t167.5 43.5t61.5 121.5zM2201 237q0 78 -61.5 122t-167.5 44t-167.5 -44t-61.5 -122t61.5 -121.5t167.5 -43.5t167.5 43.5t61.5 121.5z" />
<glyph unicode="&#x2039;" horiz-adv-x="434" d="M384 522v-109l-218 -130l218 -131v-110l-334 199v82z" />
<glyph unicode="&#x203a;" horiz-adv-x="434" d="M50 522l334 -199v-82l-334 -199v110l218 131l-218 130v109z" />
<glyph unicode="&#x2044;" horiz-adv-x="340" d="M-169 4l565 718h110l2 -4l-564 -718h-110z" />
<glyph unicode="&#x205f;" horiz-adv-x="256" />
<glyph unicode="&#x20ac;" horiz-adv-x="1254" d="M729 638q-178 0 -285.5 -58.5t-129.5 -162.5h622l2 -4l-54 -88h-572q17 -110 125 -171.5t292 -61.5q224 0 430 127l5 -1v-117q-196 -113 -440 -113q-235 0 -381 89t-163 248h-178l-2 4l56 88h126q22 154 165.5 239.5t372.5 85.5q250 0 445 -113v-117l-6 -1 q-206 127 -430 127z" />
<glyph unicode="&#x2116;" horiz-adv-x="1807" d="M1425 281q-151 0 -242 63t-91 168q0 104 91 167t242 63t241.5 -63t90.5 -167q0 -105 -90.5 -168t-241.5 -63zM910 140v582h127v-722h-138l-683 577v-577h-127v722h131zM1425 652q-99 0 -158.5 -38.5t-59.5 -101.5q0 -64 59.5 -102.5t158.5 -38.5t158.5 38.5t59.5 102.5 q0 63 -59.5 101.5t-158.5 38.5zM1127 127v91h603v-91h-603z" />
<glyph unicode="&#x2122;" horiz-adv-x="1430" d="M671 722v-85h-258v-348h-105v348h-258v85h621zM1380 722v-433h-101v295l-184 -295h-100l-183 293v-293h-102v433h120l215 -338l215 338h120z" />
<glyph unicode="&#x2202;" horiz-adv-x="945" d="M44 258q0 125 104 195t288 70q219 0 327 -86q-32 93 -154 168.5t-297 109.5v7h235q169 -54 261.5 -163.5t92.5 -254.5q0 -153 -105 -234.5t-322 -81.5q-202 0 -316 69.5t-114 200.5zM774 257q0 84 -79 129.5t-224 45.5t-223 -45t-78 -128q0 -84 79.5 -130.5t222.5 -46.5 q145 0 223.5 45t78.5 130z" />
<glyph unicode="&#x2206;" horiz-adv-x="1241" d="M689 722l552 -722h-1241l551 722h138zM206 94h829l-415 543z" />
<glyph unicode="&#x220f;" horiz-adv-x="1037" d="M976 722v-722h-127v619h-661v-619h-127v722h915z" />
<glyph unicode="&#x2211;" horiz-adv-x="1011" d="M961 722v-103h-676l545 -253v-10l-547 -253h678v-103h-911v110l552 251l-552 252v109h911z" />
<glyph unicode="&#x221a;" horiz-adv-x="1131" d="M1079 722l2 -3l-445 -719h-141l-301 475h-144v90h226l292 -471l385 628h126z" />
<glyph unicode="&#x221e;" horiz-adv-x="1137" d="M851 560q103 0 169.5 -57.5t66.5 -141.5t-66.5 -141.5t-169.5 -57.5q-74 0 -137 30t-145 105q-83 -75 -146 -105t-137 -30q-103 0 -169.5 57.5t-66.5 141.5t66.5 141.5t169.5 57.5q74 0 137 -30t146 -105q82 75 145 105t137 30zM287 255q51 0 100.5 23t117.5 83 q-68 60 -117.5 83t-100.5 23q-60 0 -98 -29.5t-38 -76.5t38 -76.5t98 -29.5zM850 255q60 0 98 29.5t38 76.5t-38 76.5t-98 29.5q-51 0 -100.5 -23t-117.5 -83q68 -60 117.5 -83t100.5 -23z" />
<glyph unicode="&#x222b;" horiz-adv-x="682" d="M-100 -241l18 87l7 2q27 -8 82 -8q86 0 135.5 40t67.5 123l139 654q56 256 332 256q51 0 101 -10l-18 -87l-7 -2q-27 8 -78 8q-89 0 -139 -38t-67 -119l-141 -665q-54 -251 -331 -251q-51 0 -101 10z" />
<glyph unicode="&#x2248;" horiz-adv-x="972" d="M287 499q-50 0 -83.5 -26.5t-41.5 -72.5h-112q11 95 76 150t166 55q62 0 141 -27t151 -54t117 -27q91 0 109 98h112q-10 -99 -67.5 -151.5t-157.5 -52.5q-64 0 -141 27t-148 54t-121 27zM287 223q-50 0 -83.5 -26.5t-41.5 -72.5h-112q11 95 76 150t166 55q62 0 141 -27 t151 -54t117 -27q91 0 109 98h112q-10 -99 -67.5 -151.5t-157.5 -52.5q-64 0 -141 27t-148 54t-121 27z" />
<glyph unicode="&#x2260;" horiz-adv-x="889" d="M839 440h-281l-110 -165h391v-96h-454l-88 -132h-113l-3 4l85 128h-216v96h280l110 165h-390v96h454l88 133h113l2 -4l-86 -129h218v-96z" />
<glyph unicode="&#x2264;" horiz-adv-x="781" d="M731 634v-100l-489 -134l489 -134v-101l-681 195v79zM50 0v96h681v-96h-681z" />
<glyph unicode="&#x2265;" horiz-adv-x="781" d="M50 634l681 -195v-79l-681 -195v101l489 134l-489 134v100zM50 0v96h681v-96h-681z" />
<glyph unicode="&#x25ca;" horiz-adv-x="975" d="M542 722l383 -361l-383 -361h-108l-384 361l384 361h108zM488 104l278 257l-278 257l-278 -257z" />
<glyph unicode="&#x25fc;" horiz-adv-x="565" d="M0 565h565v-565h-565v565z" />
<glyph horiz-adv-x="1125" d="M600 638q-200 0 -310 -73t-110 -200t109.5 -200t310.5 -73q162 0 308 63v226h127v-280q-196 -113 -440 -113q-250 0 -398 100t-148 277t147 277t395 100q250 0 445 -113v-117l-6 -1q-206 127 -430 127z" />
<glyph horiz-adv-x="1125" d="M591 775q-122 0 -187 54.5t-66 149.5h105l3 -3q2 -55 41.5 -84.5t103.5 -29.5t104 29.5t41 84.5l3 3h106q-2 -95 -67 -149.5t-187 -54.5zM600 638q-200 0 -310 -73t-110 -200t109.5 -200t310.5 -73q162 0 308 63v226h127v-280q-196 -113 -440 -113q-250 0 -398 100 t-148 277t147 277t395 100q250 0 445 -113v-117l-6 -1q-206 127 -430 127z" />
<glyph horiz-adv-x="1125" d="M448 780h-141l-2 2l210 197h151l211 -197l-2 -2h-141l-144 129zM600 638q-200 0 -310 -73t-110 -200t109.5 -200t310.5 -73q162 0 308 63v226h127v-280q-196 -113 -440 -113q-250 0 -398 100t-148 277t147 277t395 100q250 0 445 -113v-117l-6 -1q-206 127 -430 127z" />
<glyph horiz-adv-x="1125" d="M600 638q-200 0 -310 -73t-110 -200t109.5 -200t310.5 -73q162 0 308 63v226h127v-280q-196 -113 -440 -113q-250 0 -398 100t-148 277t147 277t395 100q250 0 445 -113v-117l-6 -1q-206 127 -430 127zM516 -168v120h143v-97l-79 -139h-47l31 116h-48z" />
<glyph horiz-adv-x="1125" d="M669 932v-122h-155v122h155zM600 638q-200 0 -310 -73t-110 -200t109.5 -200t310.5 -73q162 0 308 63v226h127v-280q-196 -113 -440 -113q-250 0 -398 100t-148 277t147 277t395 100q250 0 445 -113v-117l-6 -1q-206 127 -430 127z" />
<glyph horiz-adv-x="987" d="M93 782l126 197h140l2 -2l-151 -197h-115zM772 782l126 197h140l2 -2l-151 -197h-115zM89 722h127v-722h-127v722zM365 18v110l6 3q83 -38 162 -38q238 0 238 264v365h127v-346q0 -388 -362 -388q-103 0 -171 30z" />
<glyph horiz-adv-x="954" d="M228 725h163v-114h-163v114zM563 725h163v-114h-163v114zM49 280q0 139 116 215.5t312 76.5t311.5 -76.5t115.5 -215.5t-115.5 -215.5t-311.5 -76.5t-312 76.5t-116 215.5zM774 280q0 90 -79 141t-218 51q-140 0 -218.5 -51t-78.5 -141q0 -91 78.5 -141.5t218.5 -50.5 t218.5 50.5t78.5 141.5z" />
<glyph horiz-adv-x="1108" d="M867 340q40 -12 67 -37.5t42 -61t25 -72t24.5 -83.5t32.5 -81v-5h-137q-12 35 -25 86.5t-24.5 86.5t-27.5 59q-20 30 -54.5 43.5t-111.5 13.5h-462v-289h-127v722h614q149 0 230.5 -51t81.5 -144q0 -62 -38 -110.5t-110 -76.5zM216 393h468q200 0 200 114q0 111 -214 111 h-454v-225z" />
<glyph horiz-adv-x="1097" d="M549 776h-115l-2 2l126 197h140l2 -2zM867 340q40 -12 67 -37.5t42 -61t25 -72t24.5 -83.5t32.5 -81v-5h-137q-12 35 -25 86.5t-24.5 86.5t-27.5 59q-20 30 -54.5 43.5t-111.5 13.5h-462v-289h-127v722h614q149 0 230.5 -51t81.5 -144q0 -62 -38 -110.5t-110 -76.5z M216 393h468q200 0 200 114q0 111 -214 111h-454v-225z" />
<glyph horiz-adv-x="1097" d="M591 780h-137l-222 197l2 2h146l143 -127l144 127h146l2 -2zM867 340q40 -12 67 -37.5t42 -61t25 -72t24.5 -83.5t32.5 -81v-5h-137q-12 35 -25 86.5t-24.5 86.5t-27.5 59q-20 30 -54.5 43.5t-111.5 13.5h-462v-289h-127v722h614q149 0 230.5 -51t81.5 -144 q0 -62 -38 -110.5t-110 -76.5zM216 393h468q200 0 200 114q0 111 -214 111h-454v-225z" />
<glyph horiz-adv-x="1097" d="M867 340q40 -12 67 -37.5t42 -61t25 -72t24.5 -83.5t32.5 -81v-5h-137q-12 35 -25 86.5t-24.5 86.5t-27.5 59q-20 30 -54.5 43.5t-111.5 13.5h-462v-289h-127v722h614q149 0 230.5 -51t81.5 -144q0 -62 -38 -110.5t-110 -76.5zM216 393h468q200 0 200 114q0 111 -214 111 h-454v-225zM491 -168v120h143v-97l-79 -139h-47l31 116h-48z" />
<glyph d="M770 565h122v-565h-122v88q-103 -100 -324 -100q-185 0 -293.5 76.5t-108.5 216.5q0 139 108.5 217.5t290.5 78.5q220 0 327 -107v95zM470 82q136 0 214 47t86 133v42q-8 87 -85.5 133t-214.5 46q-145 0 -223 -51.5t-78 -148.5q0 -96 78 -148.5t223 -52.5z" />
<glyph d="M514 644h-113l-2 2l145 211h140l2 -2zM770 565h122v-565h-122v88q-103 -100 -324 -100q-185 0 -293.5 76.5t-108.5 216.5q0 139 108.5 217.5t290.5 78.5q220 0 327 -107v95zM470 82q136 0 214 47t86 133v42q-8 87 -85.5 133t-214.5 46q-145 0 -223 -51.5t-78 -148.5 q0 -96 78 -148.5t223 -52.5z" />
<glyph d="M498 640q-123 0 -188.5 58.5t-65.5 158.5h102l3 -3q1 -129 149 -129t149 129l3 3h102q0 -100 -65.5 -158.5t-188.5 -58.5zM770 565h122v-565h-122v88q-103 -100 -324 -100q-185 0 -293.5 76.5t-108.5 216.5q0 139 108.5 217.5t290.5 78.5q220 0 327 -107v95zM470 82 q136 0 214 47t86 133v42q-8 87 -85.5 133t-214.5 46q-145 0 -223 -51.5t-78 -148.5q0 -96 78 -148.5t223 -52.5z" />
<glyph d="M351 644h-129l-2 2l208 211h138l208 -210l-2 -3h-127l-147 141zM770 565h122v-565h-122v88q-103 -100 -324 -100q-185 0 -293.5 76.5t-108.5 216.5q0 139 108.5 217.5t290.5 78.5q220 0 327 -107v95zM470 82q136 0 214 47t86 133v42q-8 87 -85.5 133t-214.5 46 q-145 0 -223 -51.5t-78 -148.5q0 -96 78 -148.5t223 -52.5z" />
<glyph d="M414 762v-118h-156v118h156zM721 762v-118h-156v118h156zM770 565h122v-565h-122v88q-103 -100 -324 -100q-185 0 -293.5 76.5t-108.5 216.5q0 139 108.5 217.5t290.5 78.5q220 0 327 -107v95zM470 82q136 0 214 47t86 133v42q-8 87 -85.5 133t-214.5 46 q-145 0 -223 -51.5t-78 -148.5q0 -96 78 -148.5t223 -52.5z" />
<glyph d="M584 644h-113l-172 211l2 2h140l145 -211zM770 565h122v-565h-122v88q-103 -100 -324 -100q-185 0 -293.5 76.5t-108.5 216.5q0 139 108.5 217.5t290.5 78.5q220 0 327 -107v95zM470 82q136 0 214 47t86 133v42q-8 87 -85.5 133t-214.5 46q-145 0 -223 -51.5t-78 -148.5 q0 -96 78 -148.5t223 -52.5z" />
<glyph d="M769 753v-87h-560v87h560zM770 565h122v-565h-122v88q-103 -100 -324 -100q-185 0 -293.5 76.5t-108.5 216.5q0 139 108.5 217.5t290.5 78.5q220 0 327 -107v95zM470 82q136 0 214 47t86 133v42q-8 87 -85.5 133t-214.5 46q-145 0 -223 -51.5t-78 -148.5q0 -96 78 -148.5 t223 -52.5z" />
<glyph d="M470 610q-91 0 -143.5 37t-52.5 99t52.5 98.5t143.5 36.5t144 -36.5t53 -98.5t-53 -99t-144 -37zM470 814q-51 0 -79 -18t-28 -50q0 -31 28.5 -50t78.5 -19t79 19t29 50q0 32 -28.5 50t-79.5 18zM770 565h122v-565h-122v88q-103 -100 -324 -100q-185 0 -293.5 76.5 t-108.5 216.5q0 139 108.5 217.5t290.5 78.5q220 0 327 -107v95zM470 82q136 0 214 47t86 133v42q-8 87 -85.5 133t-214.5 46q-145 0 -223 -51.5t-78 -148.5q0 -96 78 -148.5t223 -52.5z" />
<glyph d="M304 665l-3 -2h-96q1 66 43.5 107.5t107.5 40.5q51 0 142 -34t114 -34q44 0 49 58l3 2h96q-3 -67 -41 -107t-99 -40q-47 0 -139.5 34.5t-118.5 34.5q-52 0 -58 -60zM770 565h122v-565h-122v88q-103 -100 -324 -100q-185 0 -293.5 76.5t-108.5 216.5q0 139 108.5 217.5 t290.5 78.5q220 0 327 -107v95zM470 82q136 0 214 47t86 133v42q-8 87 -85.5 133t-214.5 46q-145 0 -223 -51.5t-78 -148.5q0 -96 78 -148.5t223 -52.5z" />
<glyph d="M892 0q-172 -64 -172 -128q0 -50 81 -50q47 0 86 14l3 -2v-73q-44 -13 -98 -13q-84 0 -130.5 28t-46.5 78q0 87 161 146h-6v88q-103 -100 -324 -100q-185 0 -293.5 76.5t-108.5 216.5q0 139 108.5 217.5t290.5 78.5q220 0 327 -107v95h122v-565zM470 82q136 0 214 47 t86 133v42q-8 87 -85.5 133t-214.5 46q-145 0 -223 -51.5t-78 -148.5q0 -96 78 -148.5t223 -52.5z" />
<glyph horiz-adv-x="281" d="M63 761h156v-117h-156v117zM79 565h122v-565h-122v565z" />
<glyph horiz-adv-x="1167" d="M791 443q168 -2 258 -56t90 -159q0 -117 -110.5 -178.5t-318.5 -61.5q-167 0 -397 60v114l8 2q206 -72 395 -72q144 0 220 35.5t76 104.5q0 129 -329 129h-99l-6 7l211 230q-90 40 -229 40q-187 0 -279.5 -64.5t-92.5 -204.5v-369h-127v390q0 174 130.5 263t370.5 89 q122 0 232.5 -31t168.5 -79z" />
<glyph horiz-adv-x="810" d="M730 534v-534h-122v447h-319v-447h-122v447h-133v87h134q21 208 276 208q51 0 103 -10v-87l-6 -2q-29 8 -77 8q-86 0 -128.5 -28t-46.5 -89h441z" />
<glyph horiz-adv-x="1251" d="M1171 534v-534h-122v447h-319v-447h-122v447h-319v-447h-122v447h-133v87h134q21 208 276 208q51 0 103 -10v-87l-6 -2q-29 8 -77 8q-86 0 -128.5 -28t-46.5 -89h320q21 208 276 208q51 0 103 -10v-87l-6 -2q-29 8 -77 8q-86 0 -128.5 -28t-46.5 -89h441z" />
<glyph horiz-adv-x="522" d="M73 646l145 211h140l2 -2l-172 -211h-113zM342 644l-2 2l166 211h138l2 -2l-191 -211h-113zM70 565h122v-565h-122v565zM203 -248v92l6 4q74 -7 104.5 27t30.5 116v574h121v-577q0 -113 -59 -176.5t-161 -63.5q-24 0 -42 4z" />
<glyph horiz-adv-x="1093" d="M547 742q225 0 361 -101.5t136 -275.5t-136 -275.5t-361 -101.5q-226 0 -362 101.5t-136 275.5t136 275.5t362 101.5zM172 365q0 -146 130 -221l403 477q-72 20 -158 20q-173 0 -274 -74t-101 -202zM547 89q173 0 273.5 74t100.5 202q0 147 -129 220l-402 -477 q73 -19 157 -19z" />
<glyph horiz-adv-x="1093" d="M547 742q225 0 361 -101.5t136 -275.5t-136 -275.5t-361 -101.5q-226 0 -362 101.5t-136 275.5t136 275.5t362 101.5zM172 365q0 -146 130 -221l403 477q-72 20 -158 20q-173 0 -274 -74t-101 -202zM547 89q173 0 273.5 74t100.5 202q0 147 -129 220l-402 -477 q73 -19 157 -19z" />
<glyph horiz-adv-x="546" d="M347 595l-304 -134l-4 2v101l341 158h87v-722h-120v595z" />
<glyph horiz-adv-x="944" d="M39 30q0 136 95 213.5t348 141.5q138 35 200 57t81 39.5t19 45.5q0 51 -76 82.5t-206 31.5q-246 0 -422 -120l-6 3v113q170 105 430 105q192 0 297.5 -55t105.5 -160q0 -57 -31 -94.5t-109.5 -70.5t-228.5 -70q-184 -45 -259.5 -87t-84.5 -104h712v-101h-865v30z" />
<glyph horiz-adv-x="981" d="M791 381q140 -47 140 -161q0 -110 -124 -171t-346 -61q-246 0 -432 101v113l5 3q178 -116 438 -116q160 0 248.5 35.5t88.5 99.5q0 103 -223 103h-309v98h310q93 0 143 24.5t50 69.5q0 56 -81.5 89t-220.5 33q-130 0 -232 -28.5t-193 -89.5l-3 3v113q190 103 425 103 q195 0 311 -56.5t116 -151.5q0 -97 -111 -153z" />
<glyph horiz-adv-x="986" d="M957 260v-99h-132v-161h-121v161h-665v78l692 483h94v-462h132zM244 260h460v323z" />
<glyph horiz-adv-x="991" d="M548 499q191 0 297.5 -65t106.5 -184q0 -127 -122 -194.5t-340 -67.5q-259 0 -449 104v115l8 3q186 -120 449 -120q158 0 244.5 42t86.5 118q0 72 -77 112t-217 40q-106 0 -197 -26t-187 -84l-110 73l76 357h778v-98h-684l-46 -219q93 50 183 72t200 22z" />
<glyph horiz-adv-x="1039" d="M49 345q0 192 132.5 294.5t379.5 102.5q203 0 351 -60v-109l-9 -2q-167 71 -348 71q-162 0 -257.5 -57t-114.5 -164q107 86 373 86q216 0 330 -65t114 -188q0 -129 -120.5 -197.5t-344.5 -68.5q-249 0 -367.5 86t-118.5 271zM877 256q0 76 -87.5 116.5t-252.5 40.5 q-348 0 -348 -151q0 -83 91 -127t262 -44q335 0 335 165z" />
<glyph horiz-adv-x="897" d="M707 623h-688v99h859v-83q-207 -147 -310.5 -294t-134.5 -345h-123q34 197 128 343t269 280z" />
<glyph horiz-adv-x="1038" d="M804 386q95 -26 139.5 -69.5t44.5 -107.5q0 -109 -120.5 -165t-348.5 -56t-349 56t-121 165q0 64 45 107.5t140 69.5q-152 51 -152 159q0 97 112 147t325 50t325 -50t112 -147q0 -108 -152 -159zM203 534q0 -105 316 -105q315 0 315 105q0 108 -315 108q-316 0 -316 -108 zM519 89q347 0 347 130q0 62 -83.5 90.5t-263.5 28.5q-181 0 -264 -28.5t-83 -90.5q0 -130 347 -130z" />
<glyph horiz-adv-x="1037" d="M110 48v109l9 2q170 -71 345 -71q161 0 264.5 56.5t124.5 164.5q-110 -86 -372 -86q-215 0 -328.5 65.5t-113.5 190.5q0 128 122.5 195.5t349.5 67.5q244 0 360 -85t116 -264q0 -194 -139 -299.5t-389 -105.5q-207 0 -349 60zM850 475q0 81 -90 122.5t-261 41.5 q-165 0 -251 -40.5t-86 -118.5q0 -163 343 -163q345 0 345 158z" />
<glyph horiz-adv-x="760" d="M50 534q0 116 89.5 182.5t240.5 66.5t240.5 -66.5t89.5 -182.5q0 -115 -90 -182t-240 -67t-240 67t-90 182zM609 534q0 78 -61.5 122t-167.5 44t-167.5 -44t-61.5 -122t61.5 -121.5t167.5 -43.5t167.5 43.5t61.5 121.5z" />
<glyph horiz-adv-x="397" d="M248 666l-198 -83v86l220 101h77v-477h-99v373z" />
<glyph horiz-adv-x="676" d="M50 313q0 95 63.5 148t216.5 91q70 17 105.5 26.5t57.5 19t27 17t5 20.5q0 30 -45 47t-123 17q-167 0 -282 -78l-4 2v91q114 70 283 70q129 0 200.5 -40t71.5 -113q0 -59 -47.5 -89.5t-195.5 -64.5q-113 -27 -156 -48t-50 -52h448v-84h-575v20z" />
<glyph horiz-adv-x="696" d="M50 350v92l4 2q116 -75 287 -75q97 0 150.5 20t53.5 56q0 57 -134 57h-197v80h198q114 0 114 50q0 30 -51 48.5t-135 18.5q-162 0 -274 -76l-2 2v92q120 66 273 66q133 0 211.5 -37t78.5 -100q0 -65 -72 -99q91 -30 91 -108q0 -72 -83 -113t-230 -41q-166 0 -283 65z" />
<glyph horiz-adv-x="716" d="M666 483v-80h-90v-110h-100v110h-426v64l442 303h84v-287h90zM214 483h262v181z" />
<glyph horiz-adv-x="711" d="M391 623q128 0 199 -42.5t71 -121.5q0 -85 -81 -129.5t-228 -44.5q-175 0 -301 69v95l5 2q123 -80 303 -80q97 0 149 22.5t52 65.5q0 41 -47 62.5t-135 21.5q-121 0 -239 -61l-89 58l52 230h501v-80h-424l-28 -122q118 55 240 55z" />
<glyph horiz-adv-x="734" d="M50 520q0 127 89 195t253 68q136 0 234 -39v-89l-6 -1q-110 47 -232 47q-200 0 -227 -128q70 53 230 53q144 0 218.5 -43t74.5 -124q0 -84 -80.5 -129t-228.5 -45q-162 0 -243.5 56.5t-81.5 178.5zM583 462q0 90 -209 90q-211 0 -211 -86q0 -95 217 -95q203 0 203 91z " />
<glyph horiz-adv-x="667" d="M481 690h-431v80h567v-71q-135 -97 -199.5 -188.5t-83.5 -217.5h-103q22 125 80.5 216.5t169.5 180.5z" />
<glyph horiz-adv-x="729" d="M558 548q64 -17 92.5 -44.5t28.5 -70.5q0 -73 -81 -110.5t-234 -37.5t-233.5 37.5t-80.5 110.5q0 43 28.5 70.5t91.5 44.5q-98 33 -98 103q0 132 292 132q293 0 293 -132q0 -70 -99 -103zM364 701q-192 0 -192 -59q0 -60 192 -60q193 0 193 60q0 59 -193 59zM364 369 q214 0 214 73q0 36 -51 52.5t-163 16.5t-162.5 -16.5t-50.5 -52.5q0 -73 213 -73z" />
<glyph horiz-adv-x="731" d="M98 325v88l6 2q112 -47 230 -47q101 0 163 31.5t72 91.5q-65 -49 -230 -49q-142 0 -215.5 42.5t-73.5 124.5q0 84 82.5 129t233.5 45q162 0 238.5 -56t76.5 -175q0 -128 -93 -197.5t-258 -69.5q-140 0 -232 40zM572 605q0 92 -216 92q-205 0 -205 -89q0 -92 208 -92 q213 0 213 89z" />
<glyph horiz-adv-x="760" d="M50 188q0 116 89.5 182.5t240.5 66.5t240.5 -66.5t89.5 -182.5q0 -115 -90 -182t-240 -67t-240 67t-90 182zM609 188q0 78 -61.5 122t-167.5 44t-167.5 -44t-61.5 -122t61.5 -121.5t167.5 -43.5t167.5 43.5t61.5 121.5z" />
<glyph horiz-adv-x="397" d="M248 325l-198 -83v86l220 101h77v-477h-99v373z" />
<glyph horiz-adv-x="676" d="M50 -28q0 95 63.5 148t216.5 91q70 17 105.5 26.5t57.5 19t27 17t5 20.5q0 30 -45 47t-123 17q-167 0 -282 -78l-4 2v91q114 70 283 70q129 0 200.5 -40t71.5 -113q0 -59 -47.5 -89.5t-195.5 -64.5q-113 -27 -156 -48t-50 -52h448v-84h-575v20z" />
<glyph horiz-adv-x="696" d="M50 4v92l4 2q116 -75 287 -75q97 0 150.5 20t53.5 56q0 57 -134 57h-197v80h198q114 0 114 50q0 30 -51 48.5t-135 18.5q-162 0 -274 -76l-2 2v92q120 66 273 66q133 0 211.5 -37t78.5 -100q0 -65 -72 -99q91 -30 91 -108q0 -72 -83 -113t-230 -41q-166 0 -283 65z" />
<glyph horiz-adv-x="716" d="M666 142v-80h-90v-110h-100v110h-426v64l442 303h84v-287h90zM214 142h262v181z" />
<glyph horiz-adv-x="711" d="M391 277q128 0 199 -42.5t71 -121.5q0 -85 -81 -129.5t-228 -44.5q-175 0 -301 69v95l5 2q123 -80 303 -80q97 0 149 22.5t52 65.5q0 41 -47 62.5t-135 21.5q-121 0 -239 -61l-89 58l52 230h501v-80h-424l-28 -122q118 55 240 55z" />
<glyph horiz-adv-x="734" d="M50 174q0 127 89 195t253 68q136 0 234 -39v-89l-6 -1q-110 47 -232 47q-200 0 -227 -128q70 53 230 53q144 0 218.5 -43t74.5 -124q0 -84 -80.5 -129t-228.5 -45q-162 0 -243.5 56.5t-81.5 178.5zM583 116q0 90 -209 90q-211 0 -211 -86q0 -95 217 -95q203 0 203 91z " />
<glyph horiz-adv-x="667" d="M481 349h-431v80h567v-71q-135 -97 -199.5 -188.5t-83.5 -217.5h-103q22 125 80.5 216.5t169.5 180.5z" />
<glyph horiz-adv-x="729" d="M558 202q64 -17 92.5 -44.5t28.5 -70.5q0 -73 -81 -110.5t-234 -37.5t-233.5 37.5t-80.5 110.5q0 43 28.5 70.5t91.5 44.5q-98 33 -98 103q0 132 292 132q293 0 293 -132q0 -70 -99 -103zM364 355q-192 0 -192 -59q0 -60 192 -60q193 0 193 60q0 59 -193 59zM364 23 q214 0 214 73q0 36 -51 52.5t-163 16.5t-162.5 -16.5t-50.5 -52.5q0 -73 213 -73z" />
<glyph horiz-adv-x="731" d="M98 -21v88l6 2q112 -47 230 -47q101 0 163 31.5t72 91.5q-65 -49 -230 -49q-142 0 -215.5 42.5t-73.5 124.5q0 84 82.5 129t233.5 45q162 0 238.5 -56t76.5 -175q0 -128 -93 -197.5t-258 -69.5q-140 0 -232 40zM572 259q0 92 -216 92q-205 0 -205 -89q0 -92 208 -92 q213 0 213 89z" />
<glyph horiz-adv-x="760" d="M50 493q0 116 89.5 182.5t240.5 66.5t240.5 -66.5t89.5 -182.5q0 -115 -90 -182t-240 -67t-240 67t-90 182zM609 493q0 78 -61.5 122t-167.5 44t-167.5 -44t-61.5 -122t61.5 -121.5t167.5 -43.5t167.5 43.5t61.5 121.5z" />
<glyph horiz-adv-x="397" d="M248 618l-198 -83v86l220 101h77v-477h-99v373z" />
<glyph horiz-adv-x="676" d="M50 271q0 95 63.5 148t216.5 91q70 17 105.5 26.5t57.5 19t27 17t5 20.5q0 30 -45 47t-123 17q-167 0 -282 -78l-4 2v91q114 70 283 70q129 0 200.5 -40t71.5 -113q0 -59 -47.5 -89.5t-195.5 -64.5q-113 -27 -156 -48t-50 -52h448v-84h-575v20z" />
<glyph horiz-adv-x="696" d="M50 309v92l4 2q116 -75 287 -75q97 0 150.5 20t53.5 56q0 57 -134 57h-197v80h198q114 0 114 50q0 30 -51 48.5t-135 18.5q-162 0 -274 -76l-2 2v92q120 66 273 66q133 0 211.5 -37t78.5 -100q0 -65 -72 -99q91 -30 91 -108q0 -72 -83 -113t-230 -41q-166 0 -283 65z" />
<glyph horiz-adv-x="716" d="M666 435v-80h-90v-110h-100v110h-426v64l442 303h84v-287h90zM214 435h262v181z" />
<glyph horiz-adv-x="711" d="M391 575q128 0 199 -42.5t71 -121.5q0 -85 -81 -129.5t-228 -44.5q-175 0 -301 69v95l5 2q123 -80 303 -80q97 0 149 22.5t52 65.5q0 41 -47 62.5t-135 21.5q-121 0 -239 -61l-89 58l52 230h501v-80h-424l-28 -122q118 55 240 55z" />
<glyph horiz-adv-x="734" d="M50 478q0 127 89 195t253 68q136 0 234 -39v-89l-6 -1q-110 47 -232 47q-200 0 -227 -128q70 53 230 53q144 0 218.5 -43t74.5 -124q0 -84 -80.5 -129t-228.5 -45q-162 0 -243.5 56.5t-81.5 178.5zM583 420q0 90 -209 90q-211 0 -211 -86q0 -95 217 -95q203 0 203 91z " />
<glyph horiz-adv-x="667" d="M481 642h-431v80h567v-71q-135 -97 -199.5 -188.5t-83.5 -217.5h-103q22 125 80.5 216.5t169.5 180.5z" />
<glyph horiz-adv-x="729" d="M558 507q64 -17 92.5 -44.5t28.5 -70.5q0 -73 -81 -110.5t-234 -37.5t-233.5 37.5t-80.5 110.5q0 43 28.5 70.5t91.5 44.5q-98 33 -98 103q0 132 292 132q293 0 293 -132q0 -70 -99 -103zM364 660q-192 0 -192 -59q0 -60 192 -60q193 0 193 60q0 59 -193 59zM364 328 q214 0 214 73q0 36 -51 52.5t-163 16.5t-162.5 -16.5t-50.5 -52.5q0 -73 213 -73z" />
<glyph horiz-adv-x="731" d="M98 284v88l6 2q112 -47 230 -47q101 0 163 31.5t72 91.5q-65 -49 -230 -49q-142 0 -215.5 42.5t-73.5 124.5q0 84 82.5 129t233.5 45q162 0 238.5 -56t76.5 -175q0 -128 -93 -197.5t-258 -69.5q-140 0 -232 40zM572 564q0 92 -216 92q-205 0 -205 -89q0 -92 208 -92 q213 0 213 89z" />
<glyph horiz-adv-x="760" d="M50 237q0 116 89.5 182.5t240.5 66.5t240.5 -66.5t89.5 -182.5q0 -115 -90 -182t-240 -67t-240 67t-90 182zM609 237q0 78 -61.5 122t-167.5 44t-167.5 -44t-61.5 -122t61.5 -121.5t167.5 -43.5t167.5 43.5t61.5 121.5z" />
<glyph horiz-adv-x="397" d="M248 373l-198 -83v86l220 101h77v-477h-99v373z" />
<glyph horiz-adv-x="676" d="M50 20q0 95 63.5 148t216.5 91q70 17 105.5 26.5t57.5 19t27 17t5 20.5q0 30 -45 47t-123 17q-167 0 -282 -78l-4 2v91q114 70 283 70q129 0 200.5 -40t71.5 -113q0 -59 -47.5 -89.5t-195.5 -64.5q-113 -27 -156 -48t-50 -52h448v-84h-575v20z" />
<glyph horiz-adv-x="696" d="M50 53v92l4 2q116 -75 287 -75q97 0 150.5 20t53.5 56q0 57 -134 57h-197v80h198q114 0 114 50q0 30 -51 48.5t-135 18.5q-162 0 -274 -76l-2 2v92q120 66 273 66q133 0 211.5 -37t78.5 -100q0 -65 -72 -99q91 -30 91 -108q0 -72 -83 -113t-230 -41q-166 0 -283 65z" />
<glyph horiz-adv-x="716" d="M666 190v-80h-90v-110h-100v110h-426v64l442 303h84v-287h90zM214 190h262v181z" />
<glyph horiz-adv-x="711" d="M391 326q128 0 199 -42.5t71 -121.5q0 -85 -81 -129.5t-228 -44.5q-175 0 -301 69v95l5 2q123 -80 303 -80q97 0 149 22.5t52 65.5q0 41 -47 62.5t-135 21.5q-121 0 -239 -61l-89 58l52 230h501v-80h-424l-28 -122q118 55 240 55z" />
<glyph horiz-adv-x="734" d="M50 223q0 127 89 195t253 68q136 0 234 -39v-89l-6 -1q-110 47 -232 47q-200 0 -227 -128q70 53 230 53q144 0 218.5 -43t74.5 -124q0 -84 -80.5 -129t-228.5 -45q-162 0 -243.5 56.5t-81.5 178.5zM583 165q0 90 -209 90q-211 0 -211 -86q0 -95 217 -95q203 0 203 91z " />
<glyph horiz-adv-x="667" d="M481 397h-431v80h567v-71q-135 -97 -199.5 -188.5t-83.5 -217.5h-103q22 125 80.5 216.5t169.5 180.5z" />
<glyph horiz-adv-x="729" d="M558 251q64 -17 92.5 -44.5t28.5 -70.5q0 -73 -81 -110.5t-234 -37.5t-233.5 37.5t-80.5 110.5q0 43 28.5 70.5t91.5 44.5q-98 33 -98 103q0 132 292 132q293 0 293 -132q0 -70 -99 -103zM364 404q-192 0 -192 -59q0 -60 192 -60q193 0 193 60q0 59 -193 59zM364 72 q214 0 214 73q0 36 -51 52.5t-163 16.5t-162.5 -16.5t-50.5 -52.5q0 -73 213 -73z" />
<glyph horiz-adv-x="731" d="M98 28v88l6 2q112 -47 230 -47q101 0 163 31.5t72 91.5q-65 -49 -230 -49q-142 0 -215.5 42.5t-73.5 124.5q0 84 82.5 129t233.5 45q162 0 238.5 -56t76.5 -175q0 -128 -93 -197.5t-258 -69.5q-140 0 -232 40zM572 308q0 92 -216 92q-205 0 -205 -89q0 -92 208 -92 q213 0 213 89z" />
<glyph horiz-adv-x="255" d="M50 591v131h155v-131h-155zM66 272l7 236h108l7 -236v-272h-122v272z" />
<glyph horiz-adv-x="869" d="M518 594h-161v136h161v-136zM819 357q0 -29 -11 -51t-37.5 -37.5t-56.5 -26t-84 -18.5t-102 -12.5t-126 -10.5q-129 -9 -179 -22t-50 -39q0 -58 211 -58t385 52l4 -2v-95q-172 -49 -381 -49q-175 0 -258.5 37.5t-83.5 116.5q0 28 10 49.5t35 37t55.5 26.5t83.5 19.5 t105.5 14t134.5 12.5q152 12 188 25q35 13 35 35q0 64 -248 64q-217 0 -386 -61l-5 2v96q165 58 383 58q378 0 378 -163z" />
<glyph horiz-adv-x="783" d="M50 399l334 199v-109l-218 -130l218 -131v-110l-334 199v82zM733 598v-109l-218 -130l218 -131v-110l-334 199v82z" />
<glyph horiz-adv-x="783" d="M50 489v109l334 -199v-82l-334 -199v110l218 131zM399 598l334 -199v-82l-334 -199v110l218 131l-218 130v109z" />
<glyph horiz-adv-x="434" d="M384 598v-109l-218 -130l218 -131v-110l-334 199v82z" />
<glyph horiz-adv-x="434" d="M50 598l334 -199v-82l-334 -199v110l218 131l-218 130v109z" />
<glyph horiz-adv-x="526" d="M213 -3v206q0 52 -24 81.5t-70 29.5h-19v94h19q46 0 70 29.5t24 81.5v206q0 63 37.5 100t107.5 37h143v-86h-131q-43 0 -43 -48v-197q0 -138 -99 -170q99 -32 99 -170v-197q0 -48 43 -48h131v-86h-143q-70 0 -107.5 37t-37.5 100z" />
<glyph horiz-adv-x="526" d="M168 -140h-143v86h131q43 0 43 48v197q0 138 99 170q-99 32 -99 170v197q0 48 -43 48h-131v86h143q70 0 107.5 -37t37.5 -100v-206q0 -52 24 -81.5t70 -29.5h19v-94h-19q-46 0 -70 -29.5t-24 -81.5v-206q0 -63 -37.5 -100t-107.5 -37z" />
<glyph horiz-adv-x="413" d="M100 862h288v-86h-174v-830h174v-86h-288v1002z" />
<glyph horiz-adv-x="413" d="M313 862v-1002h-288v86h174v830h-174v86h288z" />
<glyph horiz-adv-x="501" d="M100 361q0 139 63 274t170 227h138l2 -5q-111 -79 -183.5 -215.5t-72.5 -280.5t73.5 -280t185.5 -216l-2 -5h-141q-107 92 -170 227t-63 274z" />
<glyph horiz-adv-x="501" d="M168 -140h-141l-2 5q112 80 185.5 216t73.5 280t-72.5 280.5t-183.5 215.5l2 5h138q107 -92 170 -227t63 -274t-63 -274t-170 -227z" />
<glyph horiz-adv-x="537" d="M50 413h437v-103l-437 -1v104z" />
<glyph horiz-adv-x="906" d="M50 413h806v-104h-806v104z" />
<glyph horiz-adv-x="1637" d="M50 413h1537v-104h-1537v104z" />
<glyph horiz-adv-x="655" d="M502 742q49 0 103 -10v-87l-7 -2q-27 8 -79 8q-91 0 -132 -36t-41 -121v-116h231v-87h-231v-291q0 -251 -278 -251q-50 0 -102 10v87l6 2q27 -8 83 -8q88 0 128.5 37t40.5 126v288h-132v87h132v108q0 256 278 256z" />
</font>
</defs>
</svg>
